%TF.GenerationSoftware,KiCad,Pcbnew,10.0.4*%
%TF.CreationDate,2026-07-16T15:09:27+02:00*%
%TF.ProjectId,stm-sdcard,73746d2d-7364-4636-9172-642e6b696361,rev?*%
%TF.SameCoordinates,Original*%
%TF.FileFunction,Soldermask,Bot*%
%TF.FilePolarity,Negative*%
%FSLAX46Y46*%
G04 Gerber Fmt 4.6, Leading zero omitted, Abs format (unit mm)*
G04 Created by KiCad (PCBNEW 10.0.4) date 2026-07-16 15:09:27*
%MOMM*%
%LPD*%
G01*
G04 APERTURE LIST*
%ADD10C,1.400000*%
%ADD11C,1.200000*%
%ADD12C,2.900000*%
%ADD13R,1.700000X1.700000*%
%ADD14C,1.700000*%
%ADD15C,0.850000*%
%ADD16O,2.300000X1.200000*%
%ADD17O,2.000000X1.200000*%
G04 APERTURE END LIST*
D10*
%TO.C,GND*%
X109550000Y-71750000D03*
X107550000Y-71750000D03*
%TD*%
%TO.C,GND*%
X168200000Y-102650000D03*
X168200000Y-100650000D03*
%TD*%
D11*
%TO.C,U2*%
X146950000Y-108110000D03*
X154950000Y-108110000D03*
%TD*%
D12*
%TO.C,REF\u002A\u002A*%
X103000000Y-107000000D03*
%TD*%
D13*
%TO.C,UART_PRG1*%
X162500000Y-78420000D03*
D14*
X162500000Y-80960000D03*
X162500000Y-83500000D03*
X162500000Y-86040000D03*
X162500000Y-88580000D03*
%TD*%
D12*
%TO.C,REF\u002A\u002A*%
X167000000Y-107000000D03*
%TD*%
D15*
%TO.C,USB1*%
X104925000Y-79610000D03*
X104925000Y-85390000D03*
D16*
X105425000Y-78180000D03*
X105425000Y-86820000D03*
D17*
X101275000Y-78180000D03*
X101275000Y-86820000D03*
%TD*%
D13*
%TO.C,BAT1*%
X102000000Y-99225000D03*
D14*
X102000000Y-101765000D03*
%TD*%
D13*
%TO.C,USART1*%
X154920000Y-72000000D03*
D14*
X152380000Y-72000000D03*
X149840000Y-72000000D03*
%TD*%
D13*
%TO.C,J1*%
X127000000Y-87750000D03*
D14*
X127000000Y-85210000D03*
X127000000Y-82670000D03*
X127000000Y-80130000D03*
%TD*%
D13*
%TO.C,ADC2*%
X123960000Y-72000000D03*
D14*
X126500000Y-72000000D03*
X129040000Y-72000000D03*
%TD*%
D13*
%TO.C,OPA3*%
X142225000Y-72000000D03*
D14*
X144765000Y-72000000D03*
%TD*%
D13*
%TO.C,J2*%
X122750000Y-88250000D03*
D14*
X122750000Y-85710000D03*
X122750000Y-83170000D03*
%TD*%
D12*
%TO.C,REF\u002A\u002A*%
X167000000Y-73000000D03*
%TD*%
D13*
%TO.C,JP1*%
X102000000Y-90420000D03*
D14*
X102000000Y-92960000D03*
D13*
X102000000Y-95500000D03*
%TD*%
D12*
%TO.C,REF\u002A\u002A*%
X103000000Y-73000000D03*
%TD*%
D11*
%TO.C,U1*%
X128440000Y-107970000D03*
X136440000Y-107970000D03*
%TD*%
D13*
%TO.C,DAC1*%
X134725000Y-72000000D03*
D14*
X137265000Y-72000000D03*
%TD*%
D13*
%TO.C,U3*%
X108340000Y-107300000D03*
D14*
X110880000Y-107300000D03*
X113420000Y-107300000D03*
X115960000Y-107300000D03*
X118500000Y-107300000D03*
X121040000Y-107300000D03*
%TD*%
D13*
%TO.C,SWD_PRG1*%
X167500000Y-78150000D03*
D14*
X167500000Y-80690000D03*
X167500000Y-83230000D03*
X167500000Y-85770000D03*
X167500000Y-88310000D03*
X167500000Y-90850000D03*
%TD*%
D13*
%TO.C,ADC1*%
X112960000Y-72000000D03*
D14*
X115500000Y-72000000D03*
X118040000Y-72000000D03*
%TD*%
M02*
