%TF.GenerationSoftware,KiCad,Pcbnew,10.0.4*%
%TF.CreationDate,2026-07-16T15:09:27+02:00*%
%TF.ProjectId,stm-sdcard,73746d2d-7364-4636-9172-642e6b696361,rev?*%
%TF.SameCoordinates,Original*%
%TF.FileFunction,Copper,L2,Bot*%
%TF.FilePolarity,Positive*%
%FSLAX46Y46*%
G04 Gerber Fmt 4.6, Leading zero omitted, Abs format (unit mm)*
G04 Created by KiCad (PCBNEW 10.0.4) date 2026-07-16 15:09:27*
%MOMM*%
%LPD*%
G01*
G04 APERTURE LIST*
%TA.AperFunction,ComponentPad*%
%ADD10C,1.400000*%
%TD*%
%TA.AperFunction,ComponentPad*%
%ADD11C,1.200000*%
%TD*%
%TA.AperFunction,ComponentPad*%
%ADD12C,2.900000*%
%TD*%
%TA.AperFunction,ComponentPad*%
%ADD13R,1.700000X1.700000*%
%TD*%
%TA.AperFunction,ComponentPad*%
%ADD14C,1.700000*%
%TD*%
%TA.AperFunction,ComponentPad*%
%ADD15C,0.850000*%
%TD*%
%TA.AperFunction,ComponentPad*%
%ADD16O,2.300000X1.200000*%
%TD*%
%TA.AperFunction,ComponentPad*%
%ADD17O,2.000000X1.200000*%
%TD*%
%TA.AperFunction,ViaPad*%
%ADD18C,0.600000*%
%TD*%
%TA.AperFunction,ViaPad*%
%ADD19C,0.800000*%
%TD*%
%TA.AperFunction,Conductor*%
%ADD20C,0.200000*%
%TD*%
%TA.AperFunction,Conductor*%
%ADD21C,0.400000*%
%TD*%
G04 APERTURE END LIST*
D10*
%TO.P,GND,1*%
%TO.N,GND*%
X109550000Y-71750000D03*
X107550000Y-71750000D03*
%TD*%
%TO.P,GND,1*%
%TO.N,GND*%
X168200000Y-102650000D03*
X168200000Y-100650000D03*
%TD*%
D11*
%TO.P,U2,*%
%TO.N,*%
X146950000Y-108110000D03*
X154950000Y-108110000D03*
%TD*%
D12*
%TO.P,REF\u002A\u002A,1*%
%TO.N,N/C*%
X103000000Y-107000000D03*
%TD*%
D13*
%TO.P,UART_PRG1,1,Pin_1_1*%
%TO.N,+3.3V*%
X162500000Y-78420000D03*
D14*
%TO.P,UART_PRG1,2,Pin_2_2*%
%TO.N,/PB8_BOOT0*%
X162500000Y-80960000D03*
%TO.P,UART_PRG1,3,Pin_3_3*%
%TO.N,/PA9_Tx_BOOT*%
X162500000Y-83500000D03*
%TO.P,UART_PRG1,4,Pin_4_4*%
%TO.N,/PA10_Rx_BOOT*%
X162500000Y-86040000D03*
%TO.P,UART_PRG1,5,Pin_5_5*%
%TO.N,GND*%
X162500000Y-88580000D03*
%TD*%
D12*
%TO.P,REF\u002A\u002A,1*%
%TO.N,N/C*%
X167000000Y-107000000D03*
%TD*%
D15*
%TO.P,USB1,*%
%TO.N,*%
X104925000Y-79610000D03*
X104925000Y-85390000D03*
D16*
%TO.P,USB1,1,SHELL_1*%
%TO.N,GND*%
X105425000Y-78180000D03*
%TO.P,USB1,2,SHELL_2*%
X105425000Y-86820000D03*
D17*
%TO.P,USB1,3,SHELL_3*%
X101275000Y-78180000D03*
%TO.P,USB1,4,SHELL_4*%
X101275000Y-86820000D03*
%TD*%
D13*
%TO.P,BAT1,1,Pin_1_1*%
%TO.N,/U_BAT*%
X102000000Y-99225000D03*
D14*
%TO.P,BAT1,2,Pin_2_2*%
%TO.N,GND*%
X102000000Y-101765000D03*
%TD*%
D13*
%TO.P,USART1,1,Pin_1_1*%
%TO.N,/PB6_USART1_TX*%
X154920000Y-72000000D03*
D14*
%TO.P,USART1,2,Pin_2_2*%
%TO.N,/PB6_USART1_RX*%
X152380000Y-72000000D03*
%TO.P,USART1,3,Pin_3_3*%
%TO.N,GND*%
X149840000Y-72000000D03*
%TD*%
D13*
%TO.P,J1,1,Pin_1_1*%
%TO.N,/PC15*%
X127000000Y-87750000D03*
D14*
%TO.P,J1,2,Pin_2_2*%
%TO.N,/PC14*%
X127000000Y-85210000D03*
%TO.P,J1,3,Pin_3_3*%
%TO.N,/PC13*%
X127000000Y-82670000D03*
%TO.P,J1,4,Pin_4_4*%
%TO.N,GND*%
X127000000Y-80130000D03*
%TD*%
D13*
%TO.P,ADC2,1,Pin_1_1*%
%TO.N,+3.3V*%
X123960000Y-72000000D03*
D14*
%TO.P,ADC2,2,Pin_2_2*%
%TO.N,/PA1_ADC2*%
X126500000Y-72000000D03*
%TO.P,ADC2,3,Pin_3_3*%
%TO.N,GND*%
X129040000Y-72000000D03*
%TD*%
D13*
%TO.P,OPA3,1,Pin_1_1*%
%TO.N,/PB1_OPAMP3_OUT*%
X142225000Y-72000000D03*
D14*
%TO.P,OPA3,2,Pin_2_2*%
%TO.N,GND*%
X144765000Y-72000000D03*
%TD*%
D13*
%TO.P,J2,1,Pin_1_1*%
%TO.N,/PF1*%
X122750000Y-88250000D03*
D14*
%TO.P,J2,2,Pin_2_2*%
%TO.N,/PF0*%
X122750000Y-85710000D03*
%TO.P,J2,3,Pin_3_3*%
%TO.N,GND*%
X122750000Y-83170000D03*
%TD*%
D12*
%TO.P,REF\u002A\u002A,1*%
%TO.N,N/C*%
X167000000Y-73000000D03*
%TD*%
D13*
%TO.P,JP1,1,A_1*%
%TO.N,/USB_VBUS*%
X102000000Y-90420000D03*
D14*
%TO.P,JP1,2,C_2*%
%TO.N,+5V*%
X102000000Y-92960000D03*
D13*
%TO.P,JP1,3,B_3*%
%TO.N,/U_BAT*%
X102000000Y-95500000D03*
%TD*%
D12*
%TO.P,REF\u002A\u002A,1*%
%TO.N,N/C*%
X103000000Y-73000000D03*
%TD*%
D11*
%TO.P,U1,*%
%TO.N,*%
X128440000Y-107970000D03*
X136440000Y-107970000D03*
%TD*%
D13*
%TO.P,DAC1,1,Pin_1_1*%
%TO.N,/PA4_DAC1*%
X134725000Y-72000000D03*
D14*
%TO.P,DAC1,2,Pin_2_2*%
%TO.N,GND*%
X137265000Y-72000000D03*
%TD*%
D13*
%TO.P,U3,1,Pin_1_1*%
%TO.N,+3.3V*%
X108340000Y-107300000D03*
D14*
%TO.P,U3,2,Pin_2_2*%
%TO.N,/PB13*%
X110880000Y-107300000D03*
%TO.P,U3,3,Pin_3_3*%
%TO.N,/PB14*%
X113420000Y-107300000D03*
%TO.P,U3,4,Pin_4_4*%
%TO.N,/PB15*%
X115960000Y-107300000D03*
%TO.P,U3,5,Pin_5_5*%
%TO.N,/PB10*%
X118500000Y-107300000D03*
%TO.P,U3,6,Pin_6_6*%
%TO.N,GND*%
X121040000Y-107300000D03*
%TD*%
D13*
%TO.P,SWD_PRG1,1,Pin_1_1*%
%TO.N,+3.3V*%
X167500000Y-78150000D03*
D14*
%TO.P,SWD_PRG1,2,Pin_2_2*%
%TO.N,/PA2_VCP_Tx*%
X167500000Y-80690000D03*
%TO.P,SWD_PRG1,3,Pin_3_3*%
%TO.N,/PA13_SWDIO*%
X167500000Y-83230000D03*
%TO.P,SWD_PRG1,4,Pin_4_4*%
%TO.N,/PA14_SWDCLK*%
X167500000Y-85770000D03*
%TO.P,SWD_PRG1,5,Pin_5_5*%
%TO.N,/PG10_nRST*%
X167500000Y-88310000D03*
%TO.P,SWD_PRG1,6,Pin_6_6*%
%TO.N,GND*%
X167500000Y-90850000D03*
%TD*%
D13*
%TO.P,ADC1,1,Pin_1_1*%
%TO.N,+3.3V*%
X112960000Y-72000000D03*
D14*
%TO.P,ADC1,2,Pin_2_2*%
%TO.N,/PA0_ADC1*%
X115500000Y-72000000D03*
%TO.P,ADC1,3,Pin_3_3*%
%TO.N,GND*%
X118040000Y-72000000D03*
%TD*%
D18*
%TO.N,GND*%
X151940000Y-80350000D03*
X138740000Y-84810000D03*
X141830000Y-93950000D03*
X152320000Y-91470000D03*
X138000000Y-91537500D03*
X159750000Y-99550000D03*
X139958235Y-93598235D03*
D19*
X132600000Y-72000000D03*
D18*
X151830000Y-93560000D03*
X158260000Y-93460000D03*
X151920000Y-82520000D03*
X159650000Y-104200000D03*
X138073527Y-88375000D03*
X127040000Y-107300000D03*
D19*
%TO.N,+3.3V*%
X134200000Y-75500000D03*
X147250000Y-91500000D03*
X149440000Y-99700000D03*
X147600000Y-77400000D03*
D18*
%TO.N,/PB11*%
X144400000Y-85800000D03*
X144400000Y-91600000D03*
%TO.N,/PB5*%
X150280000Y-95400000D03*
X138650000Y-80200000D03*
%TO.N,/PB3*%
X147491925Y-95508075D03*
X141889230Y-85389231D03*
%TO.N,/PB4*%
X146522610Y-95507390D03*
X140900000Y-84200000D03*
%TO.N,/PB12*%
X145300000Y-85775000D03*
X145300000Y-91600000D03*
D19*
%TO.N,/PA9_Tx_BOOT*%
X159000000Y-84100000D03*
X156500000Y-84100000D03*
D18*
%TO.N,Net-(USB1-CC1)*%
X108850000Y-79700000D03*
X107384315Y-80700000D03*
%TO.N,/USB_D+*%
X107323825Y-82140002D03*
X131200000Y-78100000D03*
X140350000Y-80800000D03*
X130000000Y-76400000D03*
X107950000Y-81450000D03*
X108400000Y-83500000D03*
%TO.N,/USB_D-*%
X130514004Y-78511598D03*
X107900000Y-82740002D03*
X141300000Y-80850000D03*
X129334358Y-77000000D03*
%TO.N,/PC13*%
X136200000Y-79700000D03*
X147514305Y-78475001D03*
%TO.N,/PC14*%
X145300000Y-82350000D03*
X137100000Y-82100000D03*
%TO.N,/PA1_ADC2*%
X135700000Y-83200000D03*
X129898196Y-79150396D03*
%TO.N,/PB1_OPAMP3_OUT*%
X137718758Y-79075000D03*
X139500000Y-74000000D03*
%TO.N,Net-(JP2-B)*%
X139310532Y-88324021D03*
X141379793Y-91370207D03*
D19*
%TO.N,/PG10_nRST*%
X146400000Y-90800000D03*
X142600000Y-92800000D03*
X130264950Y-91914950D03*
X149130000Y-88360000D03*
D18*
%TO.N,/PA0_ADC1*%
X125300000Y-80100000D03*
X131400000Y-85500000D03*
D19*
%TO.N,/PA2_VCP_Tx*%
X149139852Y-84700246D03*
X157305025Y-84894975D03*
X137000000Y-83200000D03*
D18*
%TO.N,/PA4_DAC1*%
X133100000Y-85700000D03*
X132913725Y-74886275D03*
%TO.N,/PA5*%
X132900000Y-91900000D03*
X132900000Y-94200000D03*
%TO.N,/PB10*%
X121150000Y-93850000D03*
X139570000Y-83820000D03*
%TO.N,/PB13*%
X155505406Y-97064593D03*
%TO.N,/PB14*%
X156360000Y-97058529D03*
%TO.N,/PB15*%
X157158749Y-97103292D03*
%TO.N,/PA8*%
X141248283Y-82946995D03*
X136240000Y-91046714D03*
%TO.N,/PA13_SWDIO*%
X159000000Y-76700000D03*
%TO.N,/PA14_SWDCLK*%
X160900000Y-80400000D03*
X141288014Y-79075000D03*
X148500000Y-79500000D03*
%TO.N,/SPI-SDcard/PULLUP4*%
X143770000Y-96790000D03*
X146110000Y-99500000D03*
%TD*%
%TO.N,GND*%
D20*
X158020000Y-93560000D02*
X158120000Y-93460000D01*
X138780000Y-90757500D02*
X138000000Y-91537500D01*
X159650000Y-99650000D02*
X159750000Y-99550000D01*
X151830000Y-93560000D02*
X158020000Y-93560000D01*
X159650000Y-104200000D02*
X159650000Y-99650000D01*
X151920000Y-82520000D02*
X151920000Y-80370000D01*
X158120000Y-93460000D02*
X158260000Y-93460000D01*
X138073527Y-88375000D02*
X138780000Y-89081473D01*
X138780000Y-89081473D02*
X138780000Y-90757500D01*
X139958235Y-93598235D02*
X141478235Y-93598235D01*
X127040000Y-107300000D02*
X121040000Y-107300000D01*
X138000000Y-91537500D02*
X137890786Y-91646714D01*
X137890786Y-91646714D02*
X135991471Y-91646714D01*
X151920000Y-80370000D02*
X151940000Y-80350000D01*
X132600000Y-72000000D02*
X129040000Y-72000000D01*
X135991471Y-91646714D02*
X134850000Y-90505243D01*
X134850000Y-90505243D02*
X134850000Y-89670000D01*
X141478235Y-93598235D02*
X141830000Y-93950000D01*
%TO.N,+3.3V*%
D21*
X147250000Y-91500000D02*
X147250000Y-94276200D01*
X143500000Y-73300000D02*
X136400000Y-73300000D01*
X147600000Y-77400000D02*
X143500000Y-73300000D01*
X147250000Y-94276200D02*
X149440000Y-96466200D01*
X149440000Y-96466200D02*
X149440000Y-99700000D01*
X136400000Y-73300000D02*
X134200000Y-75500000D01*
%TO.N,/PB11*%
D20*
X144400000Y-91600000D02*
X144400000Y-85800000D01*
%TO.N,/PB5*%
X150280000Y-95400000D02*
X149900000Y-95020000D01*
X149900000Y-82800000D02*
X147300000Y-80200000D01*
X149900000Y-95020000D02*
X149900000Y-82800000D01*
X147300000Y-80200000D02*
X138650000Y-80200000D01*
%TO.N,/PB3*%
X147491925Y-95508075D02*
X147371825Y-95508075D01*
X147371825Y-95508075D02*
X141812194Y-89948444D01*
X141812194Y-85466267D02*
X141889230Y-85389231D01*
X141812194Y-89948444D02*
X141812194Y-85466267D01*
%TO.N,/PB4*%
X146522610Y-95507390D02*
X146365506Y-95507390D01*
X140900000Y-90041884D02*
X140900000Y-84200000D01*
X146365506Y-95507390D02*
X140900000Y-90041884D01*
%TO.N,/PB12*%
X145300000Y-91600000D02*
X145300000Y-85775000D01*
%TO.N,/PA9_Tx_BOOT*%
X156500000Y-84100000D02*
X159000000Y-84100000D01*
%TO.N,Net-(USB1-CC1)*%
X108850000Y-79700000D02*
X108384315Y-79700000D01*
X108384315Y-79700000D02*
X107384315Y-80700000D01*
%TO.N,/USB_D+*%
X108250000Y-83650000D02*
X107892564Y-83650000D01*
X107892564Y-83650000D02*
X107300000Y-83057436D01*
X107950000Y-80900000D02*
X108010737Y-80839263D01*
X108010737Y-80839263D02*
X108760737Y-80839263D01*
X108400000Y-83500000D02*
X108250000Y-83650000D01*
X107300000Y-83057436D02*
X107300000Y-82163827D01*
X113200000Y-76400000D02*
X130000000Y-76400000D01*
X107950000Y-81450000D02*
X107950000Y-80900000D01*
X140350000Y-80800000D02*
X133900000Y-80800000D01*
X133900000Y-80800000D02*
X131200000Y-78100000D01*
X107300000Y-82163827D02*
X107323825Y-82140002D01*
X108760737Y-80839263D02*
X113200000Y-76400000D01*
%TO.N,/USB_D-*%
X108500000Y-82220004D02*
X113720004Y-77000000D01*
X140658975Y-81491025D02*
X133493431Y-81491025D01*
X113720004Y-77000000D02*
X129334358Y-77000000D01*
X108419998Y-82220004D02*
X108500000Y-82220004D01*
X107900000Y-82740002D02*
X108419998Y-82220004D01*
X141300000Y-80850000D02*
X140658975Y-81491025D01*
X133493431Y-81491025D02*
X130514004Y-78511598D01*
%TO.N,/PC13*%
X138000000Y-79700000D02*
X136200000Y-79700000D01*
X147514305Y-78475001D02*
X139224999Y-78475001D01*
X139224999Y-78475001D02*
X138000000Y-79700000D01*
%TO.N,/PC14*%
X137278705Y-81921295D02*
X137100000Y-82100000D01*
X145300000Y-82350000D02*
X144871295Y-81921295D01*
X144871295Y-81921295D02*
X137278705Y-81921295D01*
%TO.N,/PA1_ADC2*%
X129898196Y-80398196D02*
X132700000Y-83200000D01*
X132700000Y-83200000D02*
X135700000Y-83200000D01*
X129898196Y-79150396D02*
X129898196Y-80398196D01*
%TO.N,/PB1_OPAMP3_OUT*%
X137718758Y-79075000D02*
X137700000Y-79056242D01*
X137700000Y-79056242D02*
X137700000Y-75800000D01*
X137700000Y-75800000D02*
X139500000Y-74000000D01*
%TO.N,Net-(JP2-B)*%
X139310532Y-89300946D02*
X141379793Y-91370207D01*
X139310532Y-88324021D02*
X139310532Y-89300946D01*
%TO.N,/PG10_nRST*%
X136251471Y-92800000D02*
X142600000Y-92800000D01*
X149130000Y-89570000D02*
X147900000Y-90800000D01*
X134351471Y-90900000D02*
X136251471Y-92800000D01*
X147900000Y-90800000D02*
X146400000Y-90800000D01*
X149130000Y-88360000D02*
X149130000Y-89570000D01*
X131279900Y-90900000D02*
X134351471Y-90900000D01*
X130264950Y-91914950D02*
X131279900Y-90900000D01*
%TO.N,/PA0_ADC1*%
X128900000Y-85000000D02*
X128900000Y-81800000D01*
X129400000Y-85500000D02*
X128900000Y-85000000D01*
X131400000Y-85500000D02*
X129400000Y-85500000D01*
X126480000Y-81280000D02*
X125300000Y-80100000D01*
X128380000Y-81280000D02*
X126480000Y-81280000D01*
X128900000Y-81800000D02*
X128380000Y-81280000D01*
%TO.N,/PA2_VCP_Tx*%
X139700000Y-83200000D02*
X140553005Y-82346995D01*
X160300000Y-83789950D02*
X160300000Y-79989950D01*
X137000000Y-83200000D02*
X139700000Y-83200000D01*
X168650000Y-81840000D02*
X167500000Y-80690000D01*
X157305025Y-84894975D02*
X159194975Y-84894975D01*
X144346995Y-82346995D02*
X145500000Y-83500000D01*
X167023654Y-84380000D02*
X167976346Y-84380000D01*
X163650000Y-81006346D02*
X167023654Y-84380000D01*
X168650000Y-83706346D02*
X168650000Y-81840000D01*
X167976346Y-84380000D02*
X168650000Y-83706346D01*
X160300000Y-79989950D02*
X160719950Y-79570000D01*
X163650000Y-79570000D02*
X163650000Y-81006346D01*
X147978705Y-83500000D02*
X149139852Y-84661147D01*
X159194975Y-84894975D02*
X160300000Y-83789950D01*
X160719950Y-79570000D02*
X163650000Y-79570000D01*
X140553005Y-82346995D02*
X144346995Y-82346995D01*
X149139852Y-84661147D02*
X149139852Y-84700246D01*
X145500000Y-83500000D02*
X147978705Y-83500000D01*
%TO.N,/PA4_DAC1*%
X130300000Y-82634314D02*
X130300000Y-82900000D01*
X130300000Y-82900000D02*
X133100000Y-85700000D01*
X129298196Y-78501804D02*
X129298196Y-81632510D01*
X129298196Y-81632510D02*
X130300000Y-82634314D01*
X132913725Y-74886275D02*
X129298196Y-78501804D01*
%TO.N,/PA5*%
X132900000Y-94200000D02*
X132900000Y-91900000D01*
%TO.N,/PB10*%
X123340000Y-93160000D02*
X128029950Y-93160000D01*
X122600000Y-93900000D02*
X123340000Y-93160000D01*
X121150000Y-93850000D02*
X121200000Y-93900000D01*
X128029950Y-93160000D02*
X137369950Y-83820000D01*
X137369950Y-83820000D02*
X139570000Y-83820000D01*
X121200000Y-93900000D02*
X122600000Y-93900000D01*
%TO.N,/PB13*%
X149540000Y-103030000D02*
X115150000Y-103030000D01*
X115150000Y-103030000D02*
X110880000Y-107300000D01*
X155505406Y-97064593D02*
X149540000Y-103030000D01*
%TO.N,/PB14*%
X150018529Y-103400000D02*
X149735686Y-103400000D01*
X149655686Y-103480000D02*
X117240000Y-103480000D01*
X149735686Y-103400000D02*
X149655686Y-103480000D01*
X156360000Y-97058529D02*
X150018529Y-103400000D01*
X117240000Y-103480000D02*
X113420000Y-107300000D01*
%TO.N,/PB15*%
X157158749Y-97103292D02*
X156960000Y-97302041D01*
X156603512Y-97658529D02*
X150362041Y-103900000D01*
X156960000Y-97302041D02*
X156960000Y-97307058D01*
X156608529Y-97658529D02*
X156603512Y-97658529D01*
X157158749Y-97103292D02*
X157158749Y-97108309D01*
X156960000Y-97307058D02*
X156608529Y-97658529D01*
X150362041Y-103900000D02*
X119360000Y-103900000D01*
X119360000Y-103900000D02*
X115960000Y-107300000D01*
%TO.N,/PA8*%
X140200000Y-85400000D02*
X140200000Y-83942590D01*
X140200000Y-83942590D02*
X141195595Y-82946995D01*
X136240000Y-91046714D02*
X136290000Y-90996714D01*
X136290000Y-90996714D02*
X136290000Y-89310000D01*
X136290000Y-89310000D02*
X140200000Y-85400000D01*
X141195595Y-82946995D02*
X141248283Y-82946995D01*
%TO.N,/PA13_SWDIO*%
X159000000Y-76700000D02*
X163080000Y-76700000D01*
X163080000Y-76700000D02*
X165700000Y-79320000D01*
X166570000Y-82300000D02*
X167500000Y-83230000D01*
X165700000Y-79320000D02*
X165700000Y-81400000D01*
X165700000Y-81400000D02*
X166570000Y-82270000D01*
X166570000Y-82270000D02*
X166570000Y-82300000D01*
X167810000Y-83230000D02*
X168000000Y-83420000D01*
X167500000Y-83230000D02*
X167810000Y-83230000D01*
%TO.N,/PA14_SWDCLK*%
X148075000Y-79075000D02*
X148500000Y-79500000D01*
X141288014Y-79075000D02*
X148075000Y-79075000D01*
X160900000Y-80400000D02*
X160900000Y-80986346D01*
X164390000Y-82350000D02*
X168000000Y-85960000D01*
X162263654Y-82350000D02*
X164390000Y-82350000D01*
X160900000Y-80986346D02*
X162263654Y-82350000D01*
%TO.N,/SPI-SDcard/PULLUP4*%
X145540000Y-99500000D02*
X146110000Y-99500000D01*
X143790000Y-97750000D02*
X145540000Y-99500000D01*
X143790000Y-96810000D02*
X143790000Y-97750000D01*
X143770000Y-96790000D02*
X143790000Y-96810000D01*
%TD*%
%TA.AperFunction,Conductor*%
%TO.N,GND*%
G36*
X138429423Y-88122325D02*
G01*
X138485356Y-88164197D01*
X138509773Y-88229661D01*
X138509648Y-88239087D01*
X138510032Y-88239087D01*
X138510032Y-88402867D01*
X138540793Y-88557510D01*
X138540796Y-88557522D01*
X138601134Y-88703193D01*
X138601141Y-88703206D01*
X138689134Y-88834895D01*
X138710012Y-88901572D01*
X138710032Y-88903786D01*
X138710032Y-89214276D01*
X138710031Y-89214294D01*
X138710031Y-89380000D01*
X138710030Y-89380000D01*
X138710031Y-89380003D01*
X138748114Y-89522129D01*
X138750956Y-89532733D01*
X138767486Y-89561363D01*
X138767487Y-89561365D01*
X138830009Y-89669658D01*
X138830013Y-89669663D01*
X138948881Y-89788531D01*
X138948887Y-89788536D01*
X140545218Y-91384867D01*
X140578703Y-91446190D01*
X140579154Y-91448356D01*
X140610054Y-91603698D01*
X140610057Y-91603708D01*
X140670395Y-91749379D01*
X140670402Y-91749392D01*
X140758003Y-91880495D01*
X140758006Y-91880499D01*
X140865326Y-91987819D01*
X140898811Y-92049142D01*
X140893827Y-92118834D01*
X140851955Y-92174767D01*
X140786491Y-92199184D01*
X140777645Y-92199500D01*
X136551569Y-92199500D01*
X136522128Y-92190855D01*
X136492142Y-92184332D01*
X136487126Y-92180577D01*
X136484530Y-92179815D01*
X136463888Y-92163181D01*
X136340318Y-92039611D01*
X136306833Y-91978288D01*
X136311817Y-91908596D01*
X136353689Y-91852663D01*
X136403805Y-91830313D01*
X136473497Y-91816451D01*
X136603344Y-91762667D01*
X136619172Y-91756111D01*
X136619172Y-91756110D01*
X136619179Y-91756108D01*
X136750289Y-91668503D01*
X136861789Y-91557003D01*
X136949394Y-91425893D01*
X137009737Y-91280211D01*
X137040500Y-91125556D01*
X137040500Y-90967872D01*
X137040500Y-90967869D01*
X137040499Y-90967867D01*
X137030147Y-90915826D01*
X137009737Y-90813217D01*
X136949394Y-90667535D01*
X136911396Y-90610667D01*
X136890520Y-90543990D01*
X136890500Y-90541778D01*
X136890500Y-89610097D01*
X136910185Y-89543058D01*
X136926819Y-89522416D01*
X137612488Y-88836747D01*
X138298410Y-88150824D01*
X138359731Y-88117341D01*
X138429423Y-88122325D01*
G37*
%TD.AperFunction*%
%TA.AperFunction,Conductor*%
G36*
X139008377Y-84425827D02*
G01*
X139027287Y-84426165D01*
X139055504Y-84439665D01*
X139057273Y-84440185D01*
X139059125Y-84441398D01*
X139190814Y-84529390D01*
X139190827Y-84529397D01*
X139336498Y-84589735D01*
X139336503Y-84589737D01*
X139394767Y-84601326D01*
X139497132Y-84621689D01*
X139496707Y-84623820D01*
X139552402Y-84646284D01*
X139592784Y-84703302D01*
X139599500Y-84743557D01*
X139599500Y-85099902D01*
X139579815Y-85166941D01*
X139563181Y-85187583D01*
X135809481Y-88941282D01*
X135809479Y-88941285D01*
X135789521Y-88975853D01*
X135769563Y-89010423D01*
X135730423Y-89078215D01*
X135689499Y-89230943D01*
X135689499Y-89230945D01*
X135689499Y-89399046D01*
X135689500Y-89399059D01*
X135689500Y-90413773D01*
X135669815Y-90480812D01*
X135653181Y-90501454D01*
X135618213Y-90536421D01*
X135618210Y-90536425D01*
X135530609Y-90667528D01*
X135530602Y-90667541D01*
X135470264Y-90813212D01*
X135470261Y-90813222D01*
X135456400Y-90882907D01*
X135424015Y-90944818D01*
X135363299Y-90979392D01*
X135293529Y-90975651D01*
X135247102Y-90946396D01*
X134839061Y-90538355D01*
X134839059Y-90538352D01*
X134720188Y-90419481D01*
X134720187Y-90419480D01*
X134633375Y-90369360D01*
X134633375Y-90369359D01*
X134633371Y-90369358D01*
X134583256Y-90340423D01*
X134430528Y-90299499D01*
X134272414Y-90299499D01*
X134264818Y-90299499D01*
X134264802Y-90299500D01*
X132039047Y-90299500D01*
X131972008Y-90279815D01*
X131926253Y-90227011D01*
X131916309Y-90157853D01*
X131945334Y-90094297D01*
X131951366Y-90087819D01*
X134681940Y-87357246D01*
X137582367Y-84456819D01*
X137643690Y-84423334D01*
X137670048Y-84420500D01*
X138990234Y-84420500D01*
X139008377Y-84425827D01*
G37*
%TD.AperFunction*%
%TA.AperFunction,Conductor*%
G36*
X169442539Y-70020185D02*
G01*
X169488294Y-70072989D01*
X169499500Y-70124500D01*
X169499500Y-100040687D01*
X169479815Y-100107726D01*
X169427011Y-100153481D01*
X169357853Y-100163425D01*
X169294297Y-100134400D01*
X169265015Y-100096982D01*
X169226329Y-100021059D01*
X169207883Y-99995670D01*
X169207882Y-99995669D01*
X168553554Y-100649999D01*
X168553554Y-100650000D01*
X169207882Y-101304328D01*
X169207883Y-101304328D01*
X169226331Y-101278937D01*
X169265015Y-101203017D01*
X169312990Y-101152221D01*
X169380810Y-101135426D01*
X169446945Y-101157963D01*
X169490397Y-101212678D01*
X169499500Y-101259312D01*
X169499500Y-102040687D01*
X169479815Y-102107726D01*
X169427011Y-102153481D01*
X169357853Y-102163425D01*
X169294297Y-102134400D01*
X169265015Y-102096982D01*
X169226329Y-102021059D01*
X169207883Y-101995670D01*
X169207882Y-101995669D01*
X168553554Y-102649999D01*
X168553554Y-102650000D01*
X169207882Y-103304328D01*
X169207883Y-103304328D01*
X169226331Y-103278937D01*
X169265015Y-103203017D01*
X169312990Y-103152221D01*
X169380810Y-103135426D01*
X169446945Y-103157963D01*
X169490397Y-103212678D01*
X169499500Y-103259312D01*
X169499500Y-109375500D01*
X169479815Y-109442539D01*
X169427011Y-109488294D01*
X169375500Y-109499500D01*
X99624500Y-109499500D01*
X99557461Y-109479815D01*
X99511706Y-109427011D01*
X99500500Y-109375500D01*
X99500500Y-106872149D01*
X101049500Y-106872149D01*
X101049500Y-107127850D01*
X101068293Y-107270588D01*
X101082874Y-107381340D01*
X101127411Y-107547555D01*
X101149050Y-107628312D01*
X101149053Y-107628322D01*
X101246894Y-107864531D01*
X101246899Y-107864542D01*
X101374734Y-108085957D01*
X101374745Y-108085973D01*
X101530388Y-108288811D01*
X101530394Y-108288818D01*
X101711181Y-108469605D01*
X101711187Y-108469610D01*
X101914035Y-108625261D01*
X101914042Y-108625265D01*
X102135457Y-108753100D01*
X102135462Y-108753102D01*
X102135465Y-108753104D01*
X102271403Y-108809411D01*
X102313692Y-108826928D01*
X102371687Y-108850950D01*
X102618660Y-108917126D01*
X102872157Y-108950500D01*
X102872164Y-108950500D01*
X103127836Y-108950500D01*
X103127843Y-108950500D01*
X103381340Y-108917126D01*
X103628313Y-108850950D01*
X103864535Y-108753104D01*
X104085965Y-108625261D01*
X104288813Y-108469610D01*
X104469610Y-108288813D01*
X104625261Y-108085965D01*
X104753104Y-107864535D01*
X104850950Y-107628313D01*
X104917126Y-107381340D01*
X104950500Y-107127843D01*
X104950500Y-106872157D01*
X104917126Y-106618660D01*
X104859108Y-106402135D01*
X106989500Y-106402135D01*
X106989500Y-108197870D01*
X106989501Y-108197876D01*
X106995908Y-108257483D01*
X107046202Y-108392328D01*
X107046206Y-108392335D01*
X107132452Y-108507544D01*
X107132455Y-108507547D01*
X107247664Y-108593793D01*
X107247671Y-108593797D01*
X107382517Y-108644091D01*
X107382516Y-108644091D01*
X107389444Y-108644835D01*
X107442127Y-108650500D01*
X109237872Y-108650499D01*
X109297483Y-108644091D01*
X109432331Y-108593796D01*
X109547546Y-108507546D01*
X109633796Y-108392331D01*
X109682810Y-108260916D01*
X109724681Y-108204984D01*
X109790145Y-108180566D01*
X109858418Y-108195417D01*
X109886673Y-108216569D01*
X110000213Y-108330109D01*
X110172179Y-108455048D01*
X110172181Y-108455049D01*
X110172184Y-108455051D01*
X110361588Y-108551557D01*
X110563757Y-108617246D01*
X110773713Y-108650500D01*
X110773714Y-108650500D01*
X110986286Y-108650500D01*
X110986287Y-108650500D01*
X111196243Y-108617246D01*
X111398412Y-108551557D01*
X111587816Y-108455051D01*
X111673984Y-108392447D01*
X111759786Y-108330109D01*
X111759788Y-108330106D01*
X111759792Y-108330104D01*
X111910104Y-108179792D01*
X111910106Y-108179788D01*
X111910109Y-108179786D01*
X112035048Y-108007820D01*
X112035047Y-108007820D01*
X112035051Y-108007816D01*
X112039514Y-107999054D01*
X112087488Y-107948259D01*
X112155308Y-107931463D01*
X112221444Y-107953999D01*
X112260486Y-107999056D01*
X112264951Y-108007820D01*
X112389890Y-108179786D01*
X112540213Y-108330109D01*
X112712179Y-108455048D01*
X112712181Y-108455049D01*
X112712184Y-108455051D01*
X112901588Y-108551557D01*
X113103757Y-108617246D01*
X113313713Y-108650500D01*
X113313714Y-108650500D01*
X113526286Y-108650500D01*
X113526287Y-108650500D01*
X113736243Y-108617246D01*
X113938412Y-108551557D01*
X114127816Y-108455051D01*
X114213984Y-108392447D01*
X114299786Y-108330109D01*
X114299788Y-108330106D01*
X114299792Y-108330104D01*
X114450104Y-108179792D01*
X114450106Y-108179788D01*
X114450109Y-108179786D01*
X114575048Y-108007820D01*
X114575047Y-108007820D01*
X114575051Y-108007816D01*
X114579514Y-107999054D01*
X114627488Y-107948259D01*
X114695308Y-107931463D01*
X114761444Y-107953999D01*
X114800486Y-107999056D01*
X114804951Y-108007820D01*
X114929890Y-108179786D01*
X115080213Y-108330109D01*
X115252179Y-108455048D01*
X115252181Y-108455049D01*
X115252184Y-108455051D01*
X115441588Y-108551557D01*
X115643757Y-108617246D01*
X115853713Y-108650500D01*
X115853714Y-108650500D01*
X116066286Y-108650500D01*
X116066287Y-108650500D01*
X116276243Y-108617246D01*
X116478412Y-108551557D01*
X116667816Y-108455051D01*
X116753984Y-108392447D01*
X116839786Y-108330109D01*
X116839788Y-108330106D01*
X116839792Y-108330104D01*
X116990104Y-108179792D01*
X116990106Y-108179788D01*
X116990109Y-108179786D01*
X117115048Y-108007820D01*
X117115047Y-108007820D01*
X117115051Y-108007816D01*
X117119514Y-107999054D01*
X117167488Y-107948259D01*
X117235308Y-107931463D01*
X117301444Y-107953999D01*
X117340486Y-107999056D01*
X117344951Y-108007820D01*
X117469890Y-108179786D01*
X117620213Y-108330109D01*
X117792179Y-108455048D01*
X117792181Y-108455049D01*
X117792184Y-108455051D01*
X117981588Y-108551557D01*
X118183757Y-108617246D01*
X118393713Y-108650500D01*
X118393714Y-108650500D01*
X118606286Y-108650500D01*
X118606287Y-108650500D01*
X118816243Y-108617246D01*
X119018412Y-108551557D01*
X119207816Y-108455051D01*
X119293984Y-108392447D01*
X119379786Y-108330109D01*
X119379788Y-108330106D01*
X119379792Y-108330104D01*
X119530104Y-108179792D01*
X119530106Y-108179788D01*
X119530109Y-108179786D01*
X119615890Y-108061717D01*
X119655051Y-108007816D01*
X119659793Y-107998508D01*
X119707763Y-107947711D01*
X119775583Y-107930911D01*
X119841719Y-107953445D01*
X119880763Y-107998500D01*
X119885373Y-108007547D01*
X119924728Y-108061716D01*
X120557037Y-107429408D01*
X120574075Y-107492993D01*
X120639901Y-107607007D01*
X120732993Y-107700099D01*
X120847007Y-107765925D01*
X120910590Y-107782962D01*
X120278282Y-108415269D01*
X120278282Y-108415270D01*
X120332449Y-108454624D01*
X120521782Y-108551095D01*
X120723870Y-108616757D01*
X120933754Y-108650000D01*
X121146246Y-108650000D01*
X121356127Y-108616757D01*
X121356130Y-108616757D01*
X121558217Y-108551095D01*
X121747554Y-108454622D01*
X121801716Y-108415270D01*
X121801717Y-108415270D01*
X121169408Y-107782962D01*
X121232993Y-107765925D01*
X121347007Y-107700099D01*
X121440099Y-107607007D01*
X121505925Y-107492993D01*
X121522962Y-107429409D01*
X122155270Y-108061717D01*
X122155270Y-108061716D01*
X122194622Y-108007554D01*
X122257888Y-107883389D01*
X127339500Y-107883389D01*
X127339500Y-108056611D01*
X127347677Y-108108239D01*
X127361873Y-108197873D01*
X127366598Y-108227701D01*
X127420091Y-108392335D01*
X127420128Y-108392447D01*
X127452025Y-108455048D01*
X127498768Y-108546788D01*
X127600586Y-108686928D01*
X127723072Y-108809414D01*
X127863212Y-108911232D01*
X128017555Y-108989873D01*
X128182299Y-109043402D01*
X128353389Y-109070500D01*
X128353390Y-109070500D01*
X128526610Y-109070500D01*
X128526611Y-109070500D01*
X128697701Y-109043402D01*
X128862445Y-108989873D01*
X129016788Y-108911232D01*
X129156928Y-108809414D01*
X129279414Y-108686928D01*
X129381232Y-108546788D01*
X129459873Y-108392445D01*
X129513402Y-108227701D01*
X129540500Y-108056611D01*
X129540500Y-107883389D01*
X135339500Y-107883389D01*
X135339500Y-108056611D01*
X135347677Y-108108239D01*
X135361873Y-108197873D01*
X135366598Y-108227701D01*
X135420091Y-108392335D01*
X135420128Y-108392447D01*
X135452025Y-108455048D01*
X135498768Y-108546788D01*
X135600586Y-108686928D01*
X135723072Y-108809414D01*
X135863212Y-108911232D01*
X136017555Y-108989873D01*
X136182299Y-109043402D01*
X136353389Y-109070500D01*
X136353390Y-109070500D01*
X136526610Y-109070500D01*
X136526611Y-109070500D01*
X136697701Y-109043402D01*
X136862445Y-108989873D01*
X137016788Y-108911232D01*
X137156928Y-108809414D01*
X137279414Y-108686928D01*
X137381232Y-108546788D01*
X137459873Y-108392445D01*
X137513402Y-108227701D01*
X137540500Y-108056611D01*
X137540500Y-108023389D01*
X145849500Y-108023389D01*
X145849500Y-108196611D01*
X145876598Y-108367701D01*
X145904841Y-108454624D01*
X145930128Y-108532447D01*
X146008768Y-108686788D01*
X146110586Y-108826928D01*
X146233072Y-108949414D01*
X146373212Y-109051232D01*
X146527555Y-109129873D01*
X146692299Y-109183402D01*
X146863389Y-109210500D01*
X146863390Y-109210500D01*
X147036610Y-109210500D01*
X147036611Y-109210500D01*
X147207701Y-109183402D01*
X147372445Y-109129873D01*
X147526788Y-109051232D01*
X147666928Y-108949414D01*
X147789414Y-108826928D01*
X147891232Y-108686788D01*
X147969873Y-108532445D01*
X148023402Y-108367701D01*
X148050500Y-108196611D01*
X148050500Y-108023389D01*
X153849500Y-108023389D01*
X153849500Y-108196611D01*
X153876598Y-108367701D01*
X153904841Y-108454624D01*
X153930128Y-108532447D01*
X154008768Y-108686788D01*
X154110586Y-108826928D01*
X154233072Y-108949414D01*
X154373212Y-109051232D01*
X154527555Y-109129873D01*
X154692299Y-109183402D01*
X154863389Y-109210500D01*
X154863390Y-109210500D01*
X155036610Y-109210500D01*
X155036611Y-109210500D01*
X155207701Y-109183402D01*
X155372445Y-109129873D01*
X155526788Y-109051232D01*
X155666928Y-108949414D01*
X155789414Y-108826928D01*
X155891232Y-108686788D01*
X155969873Y-108532445D01*
X156023402Y-108367701D01*
X156050500Y-108196611D01*
X156050500Y-108023389D01*
X156023402Y-107852299D01*
X155969873Y-107687555D01*
X155891232Y-107533212D01*
X155789414Y-107393072D01*
X155666928Y-107270586D01*
X155526788Y-107168768D01*
X155372445Y-107090127D01*
X155207701Y-107036598D01*
X155207699Y-107036597D01*
X155207698Y-107036597D01*
X155076271Y-107015781D01*
X155036611Y-107009500D01*
X154863389Y-107009500D01*
X154823728Y-107015781D01*
X154692302Y-107036597D01*
X154527552Y-107090128D01*
X154373211Y-107168768D01*
X154338878Y-107193713D01*
X154233072Y-107270586D01*
X154233070Y-107270588D01*
X154233069Y-107270588D01*
X154110588Y-107393069D01*
X154110588Y-107393070D01*
X154110586Y-107393072D01*
X154100985Y-107406287D01*
X154008768Y-107533211D01*
X153930128Y-107687552D01*
X153876597Y-107852302D01*
X153851966Y-108007818D01*
X153849500Y-108023389D01*
X148050500Y-108023389D01*
X148023402Y-107852299D01*
X147969873Y-107687555D01*
X147891232Y-107533212D01*
X147789414Y-107393072D01*
X147666928Y-107270586D01*
X147526788Y-107168768D01*
X147372445Y-107090127D01*
X147207701Y-107036598D01*
X147207699Y-107036597D01*
X147207698Y-107036597D01*
X147076271Y-107015781D01*
X147036611Y-107009500D01*
X146863389Y-107009500D01*
X146823728Y-107015781D01*
X146692302Y-107036597D01*
X146527552Y-107090128D01*
X146373211Y-107168768D01*
X146338878Y-107193713D01*
X146233072Y-107270586D01*
X146233070Y-107270588D01*
X146233069Y-107270588D01*
X146110588Y-107393069D01*
X146110588Y-107393070D01*
X146110586Y-107393072D01*
X146100985Y-107406287D01*
X146008768Y-107533211D01*
X145930128Y-107687552D01*
X145876597Y-107852302D01*
X145851966Y-108007818D01*
X145849500Y-108023389D01*
X137540500Y-108023389D01*
X137540500Y-107883389D01*
X137513402Y-107712299D01*
X137459873Y-107547555D01*
X137381232Y-107393212D01*
X137279414Y-107253072D01*
X137156928Y-107130586D01*
X137016788Y-107028768D01*
X136928668Y-106983869D01*
X136918294Y-106978583D01*
X136918292Y-106978581D01*
X136862450Y-106950129D01*
X136862447Y-106950128D01*
X136862445Y-106950127D01*
X136697701Y-106896598D01*
X136697699Y-106896597D01*
X136697698Y-106896597D01*
X136566271Y-106875781D01*
X136543338Y-106872149D01*
X165049500Y-106872149D01*
X165049500Y-107127850D01*
X165068293Y-107270588D01*
X165082874Y-107381340D01*
X165127411Y-107547555D01*
X165149050Y-107628312D01*
X165149053Y-107628322D01*
X165246894Y-107864531D01*
X165246899Y-107864542D01*
X165374734Y-108085957D01*
X165374745Y-108085973D01*
X165530388Y-108288811D01*
X165530394Y-108288818D01*
X165711181Y-108469605D01*
X165711187Y-108469610D01*
X165914035Y-108625261D01*
X165914042Y-108625265D01*
X166135457Y-108753100D01*
X166135462Y-108753102D01*
X166135465Y-108753104D01*
X166271403Y-108809411D01*
X166313692Y-108826928D01*
X166371687Y-108850950D01*
X166618660Y-108917126D01*
X166872157Y-108950500D01*
X166872164Y-108950500D01*
X167127836Y-108950500D01*
X167127843Y-108950500D01*
X167381340Y-108917126D01*
X167628313Y-108850950D01*
X167864535Y-108753104D01*
X168085965Y-108625261D01*
X168288813Y-108469610D01*
X168469610Y-108288813D01*
X168625261Y-108085965D01*
X168753104Y-107864535D01*
X168850950Y-107628313D01*
X168917126Y-107381340D01*
X168950500Y-107127843D01*
X168950500Y-106872157D01*
X168917126Y-106618660D01*
X168850950Y-106371687D01*
X168838867Y-106342517D01*
X168808784Y-106269889D01*
X168753104Y-106135465D01*
X168753102Y-106135462D01*
X168753100Y-106135457D01*
X168625265Y-105914042D01*
X168625261Y-105914035D01*
X168495016Y-105744297D01*
X168469611Y-105711188D01*
X168469605Y-105711181D01*
X168288818Y-105530394D01*
X168288811Y-105530388D01*
X168085973Y-105374745D01*
X168085971Y-105374743D01*
X168085965Y-105374739D01*
X168085960Y-105374736D01*
X168085957Y-105374734D01*
X167864542Y-105246899D01*
X167864531Y-105246894D01*
X167628322Y-105149053D01*
X167628315Y-105149051D01*
X167628313Y-105149050D01*
X167381340Y-105082874D01*
X167325007Y-105075457D01*
X167127850Y-105049500D01*
X167127843Y-105049500D01*
X166872157Y-105049500D01*
X166872149Y-105049500D01*
X166646826Y-105079165D01*
X166618660Y-105082874D01*
X166371687Y-105149050D01*
X166371677Y-105149053D01*
X166135468Y-105246894D01*
X166135457Y-105246899D01*
X165914042Y-105374734D01*
X165914026Y-105374745D01*
X165711188Y-105530388D01*
X165711181Y-105530394D01*
X165530394Y-105711181D01*
X165530388Y-105711188D01*
X165374745Y-105914026D01*
X165374734Y-105914042D01*
X165246899Y-106135457D01*
X165246894Y-106135468D01*
X165149053Y-106371677D01*
X165149050Y-106371687D01*
X165082874Y-106618661D01*
X165049500Y-106872149D01*
X136543338Y-106872149D01*
X136526611Y-106869500D01*
X136353389Y-106869500D01*
X136313728Y-106875781D01*
X136182302Y-106896597D01*
X136017552Y-106950128D01*
X135863211Y-107028768D01*
X135783256Y-107086859D01*
X135723072Y-107130586D01*
X135723070Y-107130588D01*
X135723069Y-107130588D01*
X135600588Y-107253069D01*
X135600588Y-107253070D01*
X135600586Y-107253072D01*
X135566491Y-107300000D01*
X135498768Y-107393211D01*
X135420128Y-107547552D01*
X135366597Y-107712302D01*
X135349822Y-107818217D01*
X135339500Y-107883389D01*
X129540500Y-107883389D01*
X129513402Y-107712299D01*
X129459873Y-107547555D01*
X129381232Y-107393212D01*
X129279414Y-107253072D01*
X129156928Y-107130586D01*
X129016788Y-107028768D01*
X128862445Y-106950127D01*
X128697701Y-106896598D01*
X128697699Y-106896597D01*
X128697698Y-106896597D01*
X128566271Y-106875781D01*
X128526611Y-106869500D01*
X128353389Y-106869500D01*
X128313728Y-106875781D01*
X128182302Y-106896597D01*
X128017552Y-106950128D01*
X127863211Y-107028768D01*
X127783256Y-107086859D01*
X127723072Y-107130586D01*
X127723070Y-107130588D01*
X127723069Y-107130588D01*
X127600588Y-107253069D01*
X127600588Y-107253070D01*
X127600586Y-107253072D01*
X127566491Y-107300000D01*
X127498768Y-107393211D01*
X127420128Y-107547552D01*
X127366597Y-107712302D01*
X127349822Y-107818217D01*
X127339500Y-107883389D01*
X122257888Y-107883389D01*
X122289055Y-107822222D01*
X122291095Y-107818217D01*
X122356757Y-107616130D01*
X122356757Y-107616127D01*
X122390000Y-107406246D01*
X122390000Y-107193753D01*
X122356757Y-106983872D01*
X122356757Y-106983869D01*
X122291095Y-106781782D01*
X122194624Y-106592449D01*
X122155270Y-106538282D01*
X122155269Y-106538282D01*
X121522962Y-107170590D01*
X121505925Y-107107007D01*
X121440099Y-106992993D01*
X121347007Y-106899901D01*
X121232993Y-106834075D01*
X121169409Y-106817037D01*
X121801716Y-106184728D01*
X121747550Y-106145375D01*
X121558217Y-106048904D01*
X121356129Y-105983242D01*
X121146246Y-105950000D01*
X120933754Y-105950000D01*
X120723872Y-105983242D01*
X120723869Y-105983242D01*
X120521782Y-106048904D01*
X120332439Y-106145380D01*
X120278282Y-106184727D01*
X120278282Y-106184728D01*
X120910591Y-106817037D01*
X120847007Y-106834075D01*
X120732993Y-106899901D01*
X120639901Y-106992993D01*
X120574075Y-107107007D01*
X120557037Y-107170591D01*
X119924728Y-106538282D01*
X119924727Y-106538282D01*
X119885380Y-106592440D01*
X119885376Y-106592446D01*
X119880760Y-106601505D01*
X119832781Y-106652297D01*
X119764959Y-106669087D01*
X119698826Y-106646543D01*
X119659794Y-106601493D01*
X119655051Y-106592184D01*
X119655049Y-106592181D01*
X119655048Y-106592179D01*
X119530109Y-106420213D01*
X119379786Y-106269890D01*
X119207820Y-106144951D01*
X119018414Y-106048444D01*
X119018413Y-106048443D01*
X119018412Y-106048443D01*
X118816243Y-105982754D01*
X118816241Y-105982753D01*
X118816240Y-105982753D01*
X118654957Y-105957208D01*
X118606287Y-105949500D01*
X118459096Y-105949500D01*
X118392057Y-105929815D01*
X118346302Y-105877011D01*
X118336358Y-105807853D01*
X118365383Y-105744297D01*
X118371415Y-105737819D01*
X118862336Y-105246899D01*
X119572416Y-104536819D01*
X119633739Y-104503334D01*
X119660097Y-104500500D01*
X150275372Y-104500500D01*
X150275388Y-104500501D01*
X150282984Y-104500501D01*
X150441095Y-104500501D01*
X150441098Y-104500501D01*
X150593826Y-104459577D01*
X150643945Y-104430639D01*
X150730757Y-104380520D01*
X150842561Y-104268716D01*
X150842561Y-104268714D01*
X150852769Y-104258507D01*
X150852771Y-104258504D01*
X151453393Y-103657882D01*
X167545669Y-103657882D01*
X167545670Y-103657883D01*
X167571059Y-103676329D01*
X167739362Y-103762085D01*
X167918997Y-103820451D01*
X168105553Y-103850000D01*
X168294447Y-103850000D01*
X168481002Y-103820451D01*
X168660637Y-103762085D01*
X168828937Y-103676331D01*
X168854328Y-103657883D01*
X168854328Y-103657882D01*
X168200001Y-103003554D01*
X168200000Y-103003554D01*
X167545669Y-103657882D01*
X151453393Y-103657882D01*
X152555723Y-102555552D01*
X167000000Y-102555552D01*
X167000000Y-102744447D01*
X167029548Y-102931002D01*
X167087914Y-103110637D01*
X167173666Y-103278933D01*
X167192116Y-103304328D01*
X167846446Y-102650000D01*
X167846446Y-102649999D01*
X167800369Y-102603922D01*
X167850000Y-102603922D01*
X167850000Y-102696078D01*
X167873852Y-102785095D01*
X167919930Y-102864905D01*
X167985095Y-102930070D01*
X168064905Y-102976148D01*
X168153922Y-103000000D01*
X168246078Y-103000000D01*
X168335095Y-102976148D01*
X168414905Y-102930070D01*
X168480070Y-102864905D01*
X168526148Y-102785095D01*
X168550000Y-102696078D01*
X168550000Y-102603922D01*
X168526148Y-102514905D01*
X168480070Y-102435095D01*
X168414905Y-102369930D01*
X168335095Y-102323852D01*
X168246078Y-102300000D01*
X168153922Y-102300000D01*
X168064905Y-102323852D01*
X167985095Y-102369930D01*
X167919930Y-102435095D01*
X167873852Y-102514905D01*
X167850000Y-102603922D01*
X167800369Y-102603922D01*
X167192116Y-101995669D01*
X167192116Y-101995670D01*
X167173669Y-102021060D01*
X167087914Y-102189362D01*
X167029548Y-102368997D01*
X167000000Y-102555552D01*
X152555723Y-102555552D01*
X153461275Y-101650000D01*
X167553554Y-101650000D01*
X168200000Y-102296446D01*
X168846446Y-101650000D01*
X168200000Y-101003554D01*
X167553554Y-101650000D01*
X153461275Y-101650000D01*
X154555722Y-100555552D01*
X167000000Y-100555552D01*
X167000000Y-100744447D01*
X167029548Y-100931002D01*
X167087914Y-101110637D01*
X167173666Y-101278933D01*
X167192116Y-101304328D01*
X167846446Y-100650000D01*
X167846446Y-100649999D01*
X167800369Y-100603922D01*
X167850000Y-100603922D01*
X167850000Y-100696078D01*
X167873852Y-100785095D01*
X167919930Y-100864905D01*
X167985095Y-100930070D01*
X168064905Y-100976148D01*
X168153922Y-101000000D01*
X168246078Y-101000000D01*
X168335095Y-100976148D01*
X168414905Y-100930070D01*
X168480070Y-100864905D01*
X168526148Y-100785095D01*
X168550000Y-100696078D01*
X168550000Y-100603922D01*
X168526148Y-100514905D01*
X168480070Y-100435095D01*
X168414905Y-100369930D01*
X168335095Y-100323852D01*
X168246078Y-100300000D01*
X168153922Y-100300000D01*
X168064905Y-100323852D01*
X167985095Y-100369930D01*
X167919930Y-100435095D01*
X167873852Y-100514905D01*
X167850000Y-100603922D01*
X167800369Y-100603922D01*
X167192116Y-99995669D01*
X167192116Y-99995670D01*
X167173669Y-100021060D01*
X167087914Y-100189362D01*
X167029548Y-100368997D01*
X167000000Y-100555552D01*
X154555722Y-100555552D01*
X155469158Y-99642116D01*
X167545669Y-99642116D01*
X168200000Y-100296446D01*
X168200001Y-100296446D01*
X168854328Y-99642116D01*
X168828933Y-99623666D01*
X168660637Y-99537914D01*
X168481002Y-99479548D01*
X168294447Y-99450000D01*
X168105553Y-99450000D01*
X167918997Y-99479548D01*
X167739362Y-99537914D01*
X167571060Y-99623669D01*
X167545670Y-99642116D01*
X167545669Y-99642116D01*
X155469158Y-99642116D01*
X156953884Y-98157390D01*
X156955377Y-98155923D01*
X156966324Y-98145353D01*
X156977245Y-98139049D01*
X157089049Y-98027245D01*
X157089050Y-98027242D01*
X157179674Y-97936618D01*
X157240997Y-97903135D01*
X157243163Y-97902684D01*
X157298312Y-97891713D01*
X157392246Y-97873029D01*
X157537928Y-97812686D01*
X157669038Y-97725081D01*
X157780538Y-97613581D01*
X157868143Y-97482471D01*
X157869732Y-97478636D01*
X157881816Y-97449458D01*
X157928486Y-97336789D01*
X157959249Y-97182134D01*
X157959249Y-97024450D01*
X157959249Y-97024447D01*
X157959248Y-97024445D01*
X157928487Y-96869802D01*
X157928486Y-96869795D01*
X157920494Y-96850500D01*
X157868146Y-96724119D01*
X157868139Y-96724106D01*
X157780538Y-96593003D01*
X157780535Y-96592999D01*
X157669041Y-96481505D01*
X157669037Y-96481502D01*
X157537934Y-96393901D01*
X157537921Y-96393894D01*
X157392250Y-96333556D01*
X157392238Y-96333553D01*
X157237594Y-96302792D01*
X157237591Y-96302792D01*
X157079907Y-96302792D01*
X157079904Y-96302792D01*
X156925260Y-96333552D01*
X156925259Y-96333553D01*
X156925256Y-96333554D01*
X156925252Y-96333555D01*
X156857222Y-96361733D01*
X156787755Y-96369201D01*
X156744656Y-96351797D01*
X156744546Y-96352004D01*
X156742629Y-96350979D01*
X156740885Y-96350275D01*
X156739179Y-96349135D01*
X156739177Y-96349134D01*
X156739174Y-96349132D01*
X156593501Y-96288793D01*
X156593489Y-96288790D01*
X156438845Y-96258029D01*
X156438842Y-96258029D01*
X156281158Y-96258029D01*
X156281155Y-96258029D01*
X156126510Y-96288790D01*
X156126498Y-96288793D01*
X155975193Y-96351466D01*
X155974342Y-96349412D01*
X155915680Y-96361601D01*
X155878229Y-96352566D01*
X155738907Y-96294857D01*
X155738895Y-96294854D01*
X155584251Y-96264093D01*
X155584248Y-96264093D01*
X155426564Y-96264093D01*
X155426561Y-96264093D01*
X155271916Y-96294854D01*
X155271904Y-96294857D01*
X155126233Y-96355195D01*
X155126220Y-96355202D01*
X154995117Y-96442803D01*
X154995113Y-96442806D01*
X154883619Y-96554300D01*
X154883616Y-96554304D01*
X154796015Y-96685407D01*
X154796008Y-96685420D01*
X154735670Y-96831091D01*
X154735667Y-96831101D01*
X154704767Y-96986443D01*
X154672382Y-97048354D01*
X154670831Y-97049932D01*
X149327584Y-102393181D01*
X149266261Y-102426666D01*
X149239903Y-102429500D01*
X115236669Y-102429500D01*
X115236653Y-102429499D01*
X115229057Y-102429499D01*
X115070943Y-102429499D01*
X114963587Y-102458265D01*
X114918210Y-102470424D01*
X114918209Y-102470425D01*
X114868096Y-102499359D01*
X114868095Y-102499360D01*
X114841170Y-102514905D01*
X114781285Y-102549479D01*
X114781282Y-102549481D01*
X114669478Y-102661286D01*
X111364522Y-105966241D01*
X111303199Y-105999726D01*
X111238523Y-105996491D01*
X111196245Y-105982754D01*
X111056272Y-105960584D01*
X110986287Y-105949500D01*
X110773713Y-105949500D01*
X110725042Y-105957208D01*
X110563760Y-105982753D01*
X110361585Y-106048444D01*
X110172179Y-106144951D01*
X110000215Y-106269889D01*
X109886673Y-106383431D01*
X109825350Y-106416915D01*
X109755658Y-106411931D01*
X109699725Y-106370059D01*
X109682810Y-106339082D01*
X109633797Y-106207671D01*
X109633793Y-106207664D01*
X109547547Y-106092455D01*
X109547544Y-106092452D01*
X109432335Y-106006206D01*
X109432328Y-106006202D01*
X109297482Y-105955908D01*
X109297483Y-105955908D01*
X109237883Y-105949501D01*
X109237881Y-105949500D01*
X109237873Y-105949500D01*
X109237864Y-105949500D01*
X107442129Y-105949500D01*
X107442123Y-105949501D01*
X107382516Y-105955908D01*
X107247671Y-106006202D01*
X107247664Y-106006206D01*
X107132455Y-106092452D01*
X107132452Y-106092455D01*
X107046206Y-106207664D01*
X107046202Y-106207671D01*
X106995908Y-106342517D01*
X106989501Y-106402116D01*
X106989500Y-106402135D01*
X104859108Y-106402135D01*
X104850950Y-106371687D01*
X104838867Y-106342517D01*
X104808784Y-106269889D01*
X104753104Y-106135465D01*
X104753102Y-106135462D01*
X104753100Y-106135457D01*
X104625265Y-105914042D01*
X104625261Y-105914035D01*
X104495016Y-105744297D01*
X104469611Y-105711188D01*
X104469605Y-105711181D01*
X104288818Y-105530394D01*
X104288811Y-105530388D01*
X104085973Y-105374745D01*
X104085971Y-105374743D01*
X104085965Y-105374739D01*
X104085960Y-105374736D01*
X104085957Y-105374734D01*
X103864542Y-105246899D01*
X103864531Y-105246894D01*
X103628322Y-105149053D01*
X103628315Y-105149051D01*
X103628313Y-105149050D01*
X103381340Y-105082874D01*
X103325007Y-105075457D01*
X103127850Y-105049500D01*
X103127843Y-105049500D01*
X102872157Y-105049500D01*
X102872149Y-105049500D01*
X102646826Y-105079165D01*
X102618660Y-105082874D01*
X102371687Y-105149050D01*
X102371677Y-105149053D01*
X102135468Y-105246894D01*
X102135457Y-105246899D01*
X101914042Y-105374734D01*
X101914026Y-105374745D01*
X101711188Y-105530388D01*
X101711181Y-105530394D01*
X101530394Y-105711181D01*
X101530388Y-105711188D01*
X101374745Y-105914026D01*
X101374734Y-105914042D01*
X101246899Y-106135457D01*
X101246894Y-106135468D01*
X101149053Y-106371677D01*
X101149050Y-106371687D01*
X101082874Y-106618661D01*
X101049500Y-106872149D01*
X99500500Y-106872149D01*
X99500500Y-98327135D01*
X100649500Y-98327135D01*
X100649500Y-100122870D01*
X100649501Y-100122876D01*
X100655908Y-100182483D01*
X100706202Y-100317328D01*
X100706206Y-100317335D01*
X100792452Y-100432544D01*
X100792455Y-100432547D01*
X100907664Y-100518793D01*
X100907671Y-100518797D01*
X100952618Y-100535561D01*
X101042517Y-100569091D01*
X101102127Y-100575500D01*
X101112685Y-100575499D01*
X101179723Y-100595179D01*
X101200372Y-100611818D01*
X101870591Y-101282037D01*
X101807007Y-101299075D01*
X101692993Y-101364901D01*
X101599901Y-101457993D01*
X101534075Y-101572007D01*
X101517037Y-101635591D01*
X100884728Y-101003282D01*
X100884727Y-101003282D01*
X100845380Y-101057439D01*
X100748904Y-101246782D01*
X100683242Y-101448869D01*
X100683242Y-101448872D01*
X100650000Y-101658753D01*
X100650000Y-101871246D01*
X100683242Y-102081127D01*
X100683242Y-102081130D01*
X100748904Y-102283217D01*
X100845375Y-102472550D01*
X100884728Y-102526716D01*
X101517037Y-101894408D01*
X101534075Y-101957993D01*
X101599901Y-102072007D01*
X101692993Y-102165099D01*
X101807007Y-102230925D01*
X101870590Y-102247962D01*
X101238282Y-102880269D01*
X101238282Y-102880270D01*
X101292449Y-102919624D01*
X101481782Y-103016095D01*
X101683870Y-103081757D01*
X101893754Y-103115000D01*
X102106246Y-103115000D01*
X102316127Y-103081757D01*
X102316130Y-103081757D01*
X102518217Y-103016095D01*
X102707554Y-102919622D01*
X102761716Y-102880270D01*
X102761717Y-102880270D01*
X102129408Y-102247962D01*
X102192993Y-102230925D01*
X102307007Y-102165099D01*
X102400099Y-102072007D01*
X102465925Y-101957993D01*
X102482962Y-101894409D01*
X103115270Y-102526717D01*
X103115270Y-102526716D01*
X103154622Y-102472554D01*
X103251095Y-102283217D01*
X103316757Y-102081130D01*
X103316757Y-102081127D01*
X103350000Y-101871246D01*
X103350000Y-101658753D01*
X103316757Y-101448872D01*
X103316757Y-101448869D01*
X103251095Y-101246782D01*
X103154624Y-101057449D01*
X103115270Y-101003282D01*
X103115269Y-101003282D01*
X102482962Y-101635590D01*
X102465925Y-101572007D01*
X102400099Y-101457993D01*
X102307007Y-101364901D01*
X102192993Y-101299075D01*
X102129409Y-101282037D01*
X102799627Y-100611818D01*
X102860950Y-100578333D01*
X102887307Y-100575499D01*
X102897872Y-100575499D01*
X102957483Y-100569091D01*
X103092331Y-100518796D01*
X103207546Y-100432546D01*
X103293796Y-100317331D01*
X103344091Y-100182483D01*
X103350500Y-100122873D01*
X103350499Y-98327128D01*
X103344091Y-98267517D01*
X103330292Y-98230521D01*
X103293797Y-98132671D01*
X103293793Y-98132664D01*
X103207547Y-98017455D01*
X103207544Y-98017452D01*
X103092335Y-97931206D01*
X103092328Y-97931202D01*
X102957482Y-97880908D01*
X102957483Y-97880908D01*
X102897883Y-97874501D01*
X102897881Y-97874500D01*
X102897873Y-97874500D01*
X102897864Y-97874500D01*
X101102129Y-97874500D01*
X101102123Y-97874501D01*
X101042516Y-97880908D01*
X100907671Y-97931202D01*
X100907664Y-97931206D01*
X100792455Y-98017452D01*
X100792452Y-98017455D01*
X100706206Y-98132664D01*
X100706202Y-98132671D01*
X100655908Y-98267517D01*
X100649501Y-98327116D01*
X100649501Y-98327123D01*
X100649500Y-98327135D01*
X99500500Y-98327135D01*
X99500500Y-89522135D01*
X100649500Y-89522135D01*
X100649500Y-91317870D01*
X100649501Y-91317876D01*
X100655908Y-91377483D01*
X100706202Y-91512328D01*
X100706206Y-91512335D01*
X100792452Y-91627544D01*
X100792455Y-91627547D01*
X100907664Y-91713793D01*
X100907671Y-91713797D01*
X101039082Y-91762810D01*
X101095016Y-91804681D01*
X101119433Y-91870145D01*
X101104582Y-91938418D01*
X101083431Y-91966673D01*
X100969889Y-92080215D01*
X100844951Y-92252179D01*
X100748444Y-92441585D01*
X100682753Y-92643760D01*
X100649500Y-92853713D01*
X100649500Y-93066286D01*
X100675146Y-93228213D01*
X100682754Y-93276243D01*
X100745978Y-93470827D01*
X100748444Y-93478414D01*
X100844951Y-93667820D01*
X100969890Y-93839786D01*
X101083430Y-93953326D01*
X101116915Y-94014649D01*
X101111931Y-94084341D01*
X101070059Y-94140274D01*
X101039083Y-94157189D01*
X100907669Y-94206203D01*
X100907664Y-94206206D01*
X100792455Y-94292452D01*
X100792452Y-94292455D01*
X100706206Y-94407664D01*
X100706202Y-94407671D01*
X100655908Y-94542517D01*
X100649501Y-94602116D01*
X100649501Y-94602123D01*
X100649500Y-94602135D01*
X100649500Y-96397870D01*
X100649501Y-96397876D01*
X100655908Y-96457483D01*
X100706202Y-96592328D01*
X100706206Y-96592335D01*
X100792452Y-96707544D01*
X100792455Y-96707547D01*
X100907664Y-96793793D01*
X100907671Y-96793797D01*
X101042517Y-96844091D01*
X101042516Y-96844091D01*
X101049444Y-96844835D01*
X101102127Y-96850500D01*
X102897872Y-96850499D01*
X102957483Y-96844091D01*
X103092331Y-96793796D01*
X103202728Y-96711153D01*
X142969500Y-96711153D01*
X142969500Y-96868846D01*
X143000261Y-97023489D01*
X143000264Y-97023501D01*
X143060602Y-97169172D01*
X143060609Y-97169185D01*
X143128602Y-97270942D01*
X143148211Y-97300289D01*
X143153178Y-97305256D01*
X143186665Y-97366575D01*
X143189500Y-97392940D01*
X143189500Y-97663330D01*
X143189499Y-97663348D01*
X143189499Y-97829054D01*
X143189498Y-97829054D01*
X143230422Y-97981783D01*
X143251016Y-98017452D01*
X143251018Y-98017455D01*
X143309479Y-98118714D01*
X143309481Y-98118717D01*
X143428349Y-98237585D01*
X143428354Y-98237589D01*
X145171284Y-99980520D01*
X145171286Y-99980521D01*
X145171290Y-99980524D01*
X145275497Y-100040687D01*
X145308216Y-100059577D01*
X145460943Y-100100501D01*
X145530236Y-100100501D01*
X145597275Y-100120186D01*
X145599127Y-100121399D01*
X145730814Y-100209390D01*
X145730827Y-100209397D01*
X145876498Y-100269735D01*
X145876503Y-100269737D01*
X146028644Y-100300000D01*
X146031153Y-100300499D01*
X146031156Y-100300500D01*
X146031158Y-100300500D01*
X146188844Y-100300500D01*
X146188845Y-100300499D01*
X146343497Y-100269737D01*
X146489179Y-100209394D01*
X146620289Y-100121789D01*
X146731789Y-100010289D01*
X146819394Y-99879179D01*
X146879737Y-99733497D01*
X146910500Y-99578842D01*
X146910500Y-99421158D01*
X146910500Y-99421155D01*
X146910499Y-99421153D01*
X146881119Y-99273452D01*
X146879737Y-99266503D01*
X146879735Y-99266498D01*
X146819397Y-99120827D01*
X146819390Y-99120814D01*
X146731789Y-98989711D01*
X146731786Y-98989707D01*
X146620292Y-98878213D01*
X146620288Y-98878210D01*
X146489185Y-98790609D01*
X146489172Y-98790602D01*
X146343501Y-98730264D01*
X146343489Y-98730261D01*
X146188845Y-98699500D01*
X146188842Y-98699500D01*
X146031158Y-98699500D01*
X146031155Y-98699500D01*
X145876510Y-98730261D01*
X145876503Y-98730263D01*
X145771318Y-98773831D01*
X145701849Y-98781299D01*
X145639370Y-98750023D01*
X145636186Y-98746950D01*
X144426819Y-97537583D01*
X144412115Y-97510655D01*
X144395523Y-97484837D01*
X144394631Y-97478636D01*
X144393334Y-97476260D01*
X144390500Y-97449902D01*
X144390500Y-97339833D01*
X144410185Y-97272794D01*
X144411398Y-97270942D01*
X144479394Y-97169179D01*
X144539737Y-97023497D01*
X144570500Y-96868842D01*
X144570500Y-96711158D01*
X144570500Y-96711155D01*
X144570499Y-96711153D01*
X144554507Y-96630755D01*
X144539737Y-96556503D01*
X144538826Y-96554304D01*
X144479397Y-96410827D01*
X144479390Y-96410814D01*
X144391789Y-96279711D01*
X144391786Y-96279707D01*
X144280292Y-96168213D01*
X144280288Y-96168210D01*
X144149185Y-96080609D01*
X144149172Y-96080602D01*
X144003501Y-96020264D01*
X144003489Y-96020261D01*
X143848845Y-95989500D01*
X143848842Y-95989500D01*
X143691158Y-95989500D01*
X143691155Y-95989500D01*
X143536510Y-96020261D01*
X143536498Y-96020264D01*
X143390827Y-96080602D01*
X143390814Y-96080609D01*
X143259711Y-96168210D01*
X143259707Y-96168213D01*
X143148213Y-96279707D01*
X143148210Y-96279711D01*
X143060609Y-96410814D01*
X143060602Y-96410827D01*
X143000264Y-96556498D01*
X143000261Y-96556510D01*
X142969500Y-96711153D01*
X103202728Y-96711153D01*
X103207546Y-96707546D01*
X103293796Y-96592331D01*
X103344091Y-96457483D01*
X103350500Y-96397873D01*
X103350499Y-94602128D01*
X103344091Y-94542517D01*
X103313156Y-94459577D01*
X103293797Y-94407671D01*
X103293793Y-94407664D01*
X103207547Y-94292455D01*
X103207544Y-94292452D01*
X103092335Y-94206206D01*
X103092328Y-94206202D01*
X102960917Y-94157189D01*
X102904983Y-94115318D01*
X102880566Y-94049853D01*
X102895418Y-93981580D01*
X102916563Y-93953332D01*
X103030104Y-93839792D01*
X103061326Y-93796819D01*
X103155048Y-93667820D01*
X103155047Y-93667820D01*
X103155051Y-93667816D01*
X103251557Y-93478412D01*
X103317246Y-93276243D01*
X103350500Y-93066287D01*
X103350500Y-92853713D01*
X103317246Y-92643757D01*
X103251557Y-92441588D01*
X103155051Y-92252184D01*
X103155049Y-92252181D01*
X103155048Y-92252179D01*
X103030109Y-92080213D01*
X102916569Y-91966673D01*
X102883084Y-91905350D01*
X102888068Y-91835658D01*
X102929940Y-91779725D01*
X102960915Y-91762810D01*
X103092331Y-91713796D01*
X103207546Y-91627546D01*
X103293796Y-91512331D01*
X103344091Y-91377483D01*
X103350500Y-91317873D01*
X103350499Y-89522128D01*
X103344091Y-89462517D01*
X103342237Y-89457547D01*
X103293797Y-89327671D01*
X103293793Y-89327664D01*
X103207547Y-89212455D01*
X103207544Y-89212452D01*
X103092335Y-89126206D01*
X103092328Y-89126202D01*
X102957482Y-89075908D01*
X102957483Y-89075908D01*
X102897883Y-89069501D01*
X102897881Y-89069500D01*
X102897873Y-89069500D01*
X102897864Y-89069500D01*
X101102129Y-89069500D01*
X101102123Y-89069501D01*
X101042516Y-89075908D01*
X100907671Y-89126202D01*
X100907664Y-89126206D01*
X100792455Y-89212452D01*
X100792452Y-89212455D01*
X100706206Y-89327664D01*
X100706202Y-89327671D01*
X100655908Y-89462517D01*
X100650929Y-89508832D01*
X100649501Y-89522123D01*
X100649500Y-89522135D01*
X99500500Y-89522135D01*
X99500500Y-86569999D01*
X99800884Y-86569999D01*
X99800885Y-86570000D01*
X100708027Y-86570000D01*
X100690809Y-86579941D01*
X100634954Y-86635796D01*
X100595458Y-86704205D01*
X100575014Y-86780504D01*
X100575014Y-86859496D01*
X100595458Y-86935795D01*
X100634954Y-87004204D01*
X100690809Y-87060059D01*
X100708027Y-87070000D01*
X99800885Y-87070000D01*
X99802085Y-87077584D01*
X99855591Y-87242255D01*
X99934195Y-87396524D01*
X100035967Y-87536602D01*
X100158397Y-87659032D01*
X100298475Y-87760804D01*
X100452742Y-87839408D01*
X100617415Y-87892914D01*
X100788429Y-87920000D01*
X101025000Y-87920000D01*
X101025000Y-87119999D01*
X101525000Y-87119999D01*
X101525000Y-87920000D01*
X101761571Y-87920000D01*
X101932584Y-87892914D01*
X102097257Y-87839408D01*
X102251524Y-87760804D01*
X102391602Y-87659032D01*
X102514032Y-87536602D01*
X102615804Y-87396524D01*
X102694408Y-87242255D01*
X102747914Y-87077584D01*
X102749115Y-87070000D01*
X101841973Y-87070000D01*
X101859191Y-87060059D01*
X101915046Y-87004204D01*
X101954542Y-86935795D01*
X101974986Y-86859496D01*
X101974986Y-86780504D01*
X101954542Y-86704205D01*
X101915046Y-86635796D01*
X101859191Y-86579941D01*
X101841973Y-86570000D01*
X102749115Y-86570000D01*
X102749115Y-86569999D01*
X103800884Y-86569999D01*
X103800885Y-86570000D01*
X104708002Y-86570000D01*
X104690784Y-86579941D01*
X104634929Y-86635796D01*
X104595433Y-86704205D01*
X104574989Y-86780504D01*
X104574989Y-86859496D01*
X104595433Y-86935795D01*
X104634929Y-87004204D01*
X104690784Y-87060059D01*
X104708002Y-87070000D01*
X103800885Y-87070000D01*
X103802085Y-87077584D01*
X103855591Y-87242255D01*
X103934195Y-87396524D01*
X104035967Y-87536602D01*
X104158397Y-87659032D01*
X104298475Y-87760804D01*
X104452742Y-87839408D01*
X104617415Y-87892914D01*
X104788429Y-87920000D01*
X105175000Y-87920000D01*
X105175000Y-87119999D01*
X105675000Y-87119999D01*
X105675000Y-87920000D01*
X106061571Y-87920000D01*
X106232584Y-87892914D01*
X106397257Y-87839408D01*
X106551524Y-87760804D01*
X106691602Y-87659032D01*
X106814032Y-87536602D01*
X106915804Y-87396524D01*
X106994408Y-87242255D01*
X107047914Y-87077584D01*
X107049115Y-87070000D01*
X106141998Y-87070000D01*
X106159216Y-87060059D01*
X106215071Y-87004204D01*
X106254567Y-86935795D01*
X106275011Y-86859496D01*
X106275011Y-86780504D01*
X106254567Y-86704205D01*
X106215071Y-86635796D01*
X106159216Y-86579941D01*
X106141998Y-86570000D01*
X107049115Y-86570000D01*
X107049115Y-86569999D01*
X107047914Y-86562415D01*
X106994408Y-86397744D01*
X106915804Y-86243475D01*
X106814032Y-86103397D01*
X106691602Y-85980967D01*
X106551524Y-85879195D01*
X106397257Y-85800591D01*
X106232584Y-85747086D01*
X106078217Y-85722636D01*
X105951480Y-85719973D01*
X105919340Y-85709797D01*
X105887046Y-85700315D01*
X105886160Y-85699293D01*
X105884868Y-85698884D01*
X105863321Y-85672935D01*
X105841291Y-85647511D01*
X105841098Y-85646172D01*
X105840233Y-85645130D01*
X105836139Y-85611683D01*
X105834993Y-85603713D01*
X121399500Y-85603713D01*
X121399500Y-85816287D01*
X121409003Y-85876286D01*
X121422503Y-85961525D01*
X121432754Y-86026243D01*
X121492555Y-86210292D01*
X121498444Y-86228414D01*
X121594951Y-86417820D01*
X121719890Y-86589786D01*
X121833430Y-86703326D01*
X121866915Y-86764649D01*
X121861931Y-86834341D01*
X121820059Y-86890274D01*
X121789083Y-86907189D01*
X121657669Y-86956203D01*
X121657664Y-86956206D01*
X121542455Y-87042452D01*
X121542452Y-87042455D01*
X121456206Y-87157664D01*
X121456202Y-87157671D01*
X121405908Y-87292517D01*
X121399501Y-87352116D01*
X121399501Y-87352123D01*
X121399500Y-87352135D01*
X121399500Y-89147870D01*
X121399501Y-89147876D01*
X121405908Y-89207483D01*
X121456202Y-89342328D01*
X121456206Y-89342335D01*
X121542452Y-89457544D01*
X121542455Y-89457547D01*
X121657664Y-89543793D01*
X121657671Y-89543797D01*
X121792517Y-89594091D01*
X121792516Y-89594091D01*
X121799444Y-89594835D01*
X121852127Y-89600500D01*
X123647872Y-89600499D01*
X123707483Y-89594091D01*
X123842331Y-89543796D01*
X123957546Y-89457546D01*
X124043796Y-89342331D01*
X124094091Y-89207483D01*
X124100500Y-89147873D01*
X124100499Y-87352128D01*
X124094091Y-87292517D01*
X124089381Y-87279890D01*
X124043797Y-87157671D01*
X124043793Y-87157664D01*
X123957547Y-87042455D01*
X123957544Y-87042452D01*
X123842335Y-86956206D01*
X123842328Y-86956202D01*
X123710917Y-86907189D01*
X123654983Y-86865318D01*
X123630566Y-86799853D01*
X123645418Y-86731580D01*
X123666563Y-86703332D01*
X123780104Y-86589792D01*
X123794485Y-86569999D01*
X123905048Y-86417820D01*
X123905047Y-86417820D01*
X123905051Y-86417816D01*
X124001557Y-86228412D01*
X124067246Y-86026243D01*
X124100500Y-85816287D01*
X124100500Y-85603713D01*
X124067246Y-85393757D01*
X124001557Y-85191588D01*
X123905051Y-85002184D01*
X123905049Y-85002181D01*
X123905048Y-85002179D01*
X123780109Y-84830213D01*
X123629786Y-84679890D01*
X123457817Y-84554949D01*
X123448504Y-84550204D01*
X123397707Y-84502230D01*
X123380912Y-84434409D01*
X123403449Y-84368274D01*
X123448507Y-84329232D01*
X123457555Y-84324622D01*
X123511716Y-84285270D01*
X123511717Y-84285270D01*
X122879408Y-83652962D01*
X122942993Y-83635925D01*
X123057007Y-83570099D01*
X123150099Y-83477007D01*
X123215925Y-83362993D01*
X123232962Y-83299409D01*
X123865270Y-83931717D01*
X123865270Y-83931716D01*
X123904622Y-83877554D01*
X124001095Y-83688217D01*
X124066757Y-83486130D01*
X124066757Y-83486127D01*
X124100000Y-83276246D01*
X124100000Y-83063753D01*
X124066757Y-82853872D01*
X124066757Y-82853869D01*
X124001095Y-82651782D01*
X123904624Y-82462449D01*
X123865270Y-82408282D01*
X123865269Y-82408282D01*
X123232962Y-83040590D01*
X123215925Y-82977007D01*
X123150099Y-82862993D01*
X123057007Y-82769901D01*
X122942993Y-82704075D01*
X122879409Y-82687037D01*
X123511716Y-82054728D01*
X123457550Y-82015375D01*
X123268217Y-81918904D01*
X123066129Y-81853242D01*
X122856246Y-81820000D01*
X122643754Y-81820000D01*
X122433872Y-81853242D01*
X122433869Y-81853242D01*
X122231782Y-81918904D01*
X122042439Y-82015380D01*
X121988282Y-82054727D01*
X121988282Y-82054728D01*
X122620591Y-82687037D01*
X122557007Y-82704075D01*
X122442993Y-82769901D01*
X122349901Y-82862993D01*
X122284075Y-82977007D01*
X122267037Y-83040591D01*
X121634728Y-82408282D01*
X121634727Y-82408282D01*
X121595380Y-82462439D01*
X121498904Y-82651782D01*
X121433242Y-82853869D01*
X121433242Y-82853872D01*
X121400000Y-83063753D01*
X121400000Y-83276246D01*
X121433242Y-83486127D01*
X121433242Y-83486130D01*
X121498904Y-83688217D01*
X121595375Y-83877550D01*
X121634728Y-83931716D01*
X122267037Y-83299408D01*
X122284075Y-83362993D01*
X122349901Y-83477007D01*
X122442993Y-83570099D01*
X122557007Y-83635925D01*
X122620590Y-83652962D01*
X121988282Y-84285269D01*
X121988282Y-84285270D01*
X122042452Y-84324626D01*
X122042451Y-84324626D01*
X122051495Y-84329234D01*
X122102292Y-84377208D01*
X122119087Y-84445029D01*
X122096550Y-84511164D01*
X122051499Y-84550202D01*
X122042182Y-84554949D01*
X121870213Y-84679890D01*
X121719890Y-84830213D01*
X121594951Y-85002179D01*
X121498444Y-85191585D01*
X121432753Y-85393760D01*
X121400969Y-85594436D01*
X121399500Y-85603713D01*
X105834993Y-85603713D01*
X105831347Y-85578353D01*
X105831762Y-85575924D01*
X105831745Y-85575778D01*
X105831811Y-85575639D01*
X105832468Y-85571808D01*
X105850500Y-85481156D01*
X105850500Y-85298843D01*
X105814934Y-85120047D01*
X105814933Y-85120046D01*
X105814933Y-85120042D01*
X105808169Y-85103713D01*
X105745168Y-84951612D01*
X105745166Y-84951608D01*
X105643886Y-84800032D01*
X105643880Y-84800024D01*
X105514975Y-84671119D01*
X105514967Y-84671113D01*
X105363391Y-84569833D01*
X105363387Y-84569831D01*
X105194962Y-84500068D01*
X105194952Y-84500065D01*
X105016156Y-84464500D01*
X105016154Y-84464500D01*
X104833846Y-84464500D01*
X104833844Y-84464500D01*
X104655047Y-84500065D01*
X104655037Y-84500068D01*
X104486612Y-84569831D01*
X104486608Y-84569833D01*
X104335032Y-84671113D01*
X104335024Y-84671119D01*
X104206119Y-84800024D01*
X104206113Y-84800032D01*
X104104833Y-84951608D01*
X104104831Y-84951612D01*
X104035068Y-85120037D01*
X104035065Y-85120047D01*
X103999500Y-85298843D01*
X103999500Y-85298846D01*
X103999500Y-85481154D01*
X103999500Y-85481156D01*
X103999499Y-85481156D01*
X104035065Y-85659952D01*
X104035067Y-85659958D01*
X104104831Y-85828385D01*
X104104835Y-85828392D01*
X104130865Y-85867349D01*
X104151742Y-85934027D01*
X104133257Y-86001407D01*
X104115444Y-86023919D01*
X104035967Y-86103397D01*
X103934195Y-86243475D01*
X103855591Y-86397744D01*
X103802085Y-86562415D01*
X103800884Y-86569999D01*
X102749115Y-86569999D01*
X102747914Y-86562415D01*
X102694408Y-86397744D01*
X102615804Y-86243475D01*
X102514032Y-86103397D01*
X102391602Y-85980967D01*
X102251524Y-85879195D01*
X102097257Y-85800591D01*
X101932584Y-85747085D01*
X101761571Y-85720000D01*
X101525000Y-85720000D01*
X101525000Y-86520001D01*
X101025000Y-86520001D01*
X101025000Y-85720000D01*
X100788429Y-85720000D01*
X100617415Y-85747085D01*
X100452742Y-85800591D01*
X100298475Y-85879195D01*
X100158397Y-85980967D01*
X100035967Y-86103397D01*
X99934195Y-86243475D01*
X99855591Y-86397744D01*
X99802085Y-86562415D01*
X99800884Y-86569999D01*
X99500500Y-86569999D01*
X99500500Y-82061155D01*
X106523325Y-82061155D01*
X106523325Y-82218848D01*
X106554086Y-82373491D01*
X106554089Y-82373503D01*
X106614427Y-82519174D01*
X106614431Y-82519181D01*
X106678602Y-82615220D01*
X106699480Y-82681896D01*
X106699500Y-82684110D01*
X106699500Y-82970766D01*
X106699499Y-82970784D01*
X106699499Y-83136490D01*
X106699498Y-83136490D01*
X106740424Y-83289225D01*
X106740425Y-83289226D01*
X106755716Y-83315710D01*
X106755717Y-83315711D01*
X106819477Y-83426148D01*
X106819481Y-83426153D01*
X106938349Y-83545021D01*
X106938355Y-83545026D01*
X107407703Y-84014374D01*
X107407713Y-84014385D01*
X107412043Y-84018715D01*
X107412044Y-84018716D01*
X107523848Y-84130520D01*
X107590486Y-84168993D01*
X107660779Y-84209577D01*
X107813507Y-84250501D01*
X107813510Y-84250501D01*
X107979217Y-84250501D01*
X107979233Y-84250500D01*
X108095396Y-84250500D01*
X108142844Y-84259937D01*
X108166503Y-84269737D01*
X108166508Y-84269738D01*
X108166511Y-84269739D01*
X108321153Y-84300499D01*
X108321156Y-84300500D01*
X108321158Y-84300500D01*
X108478844Y-84300500D01*
X108478845Y-84300499D01*
X108633497Y-84269737D01*
X108779179Y-84209394D01*
X108910289Y-84121789D01*
X109021789Y-84010289D01*
X109109394Y-83879179D01*
X109169737Y-83733497D01*
X109200500Y-83578842D01*
X109200500Y-83421158D01*
X109200500Y-83421155D01*
X109200499Y-83421153D01*
X109192417Y-83380521D01*
X109169737Y-83266503D01*
X109134112Y-83180496D01*
X109109394Y-83120820D01*
X109021789Y-82989711D01*
X109021786Y-82989707D01*
X108910292Y-82878213D01*
X108910287Y-82878209D01*
X108904479Y-82874328D01*
X108890969Y-82858161D01*
X108874107Y-82845539D01*
X108869017Y-82831893D01*
X108859675Y-82820714D01*
X108857050Y-82799809D01*
X108849689Y-82780075D01*
X108852784Y-82765842D01*
X108850970Y-82751389D01*
X108860062Y-82732386D01*
X108864540Y-82711802D01*
X108879426Y-82691915D01*
X108881127Y-82688362D01*
X108885672Y-82683567D01*
X108980520Y-82588720D01*
X108980521Y-82588717D01*
X113932420Y-77636819D01*
X113993743Y-77603334D01*
X114020101Y-77600500D01*
X128754592Y-77600500D01*
X128770985Y-77605104D01*
X128786722Y-77604735D01*
X128814512Y-77617332D01*
X128819162Y-77618638D01*
X128823663Y-77621383D01*
X128824069Y-77621789D01*
X128955179Y-77709394D01*
X128994992Y-77725885D01*
X129003211Y-77730898D01*
X129020490Y-77749917D01*
X129040496Y-77766039D01*
X129043595Y-77775349D01*
X129050194Y-77782613D01*
X129054447Y-77807953D01*
X129062562Y-77832332D01*
X129060135Y-77841839D01*
X129061760Y-77851518D01*
X129051638Y-77875134D01*
X129045284Y-77900032D01*
X129035654Y-77912428D01*
X129034236Y-77915738D01*
X129031807Y-77917380D01*
X129026323Y-77924441D01*
X128929482Y-78021282D01*
X128817677Y-78133086D01*
X128817675Y-78133088D01*
X128813786Y-78139825D01*
X128780192Y-78198013D01*
X128738619Y-78270019D01*
X128697695Y-78422747D01*
X128697695Y-78422749D01*
X128697695Y-78590850D01*
X128697696Y-78590863D01*
X128697696Y-80581842D01*
X128692360Y-80600011D01*
X128692014Y-80618949D01*
X128682719Y-80632844D01*
X128678011Y-80648881D01*
X128663699Y-80661282D01*
X128653169Y-80677026D01*
X128637838Y-80683690D01*
X128625207Y-80694636D01*
X128606461Y-80697331D01*
X128589093Y-80704882D01*
X128565317Y-80703247D01*
X128556049Y-80704580D01*
X128553805Y-80704236D01*
X128547630Y-80703232D01*
X128459057Y-80679499D01*
X128401594Y-80679499D01*
X128391712Y-80677893D01*
X128368865Y-80666949D01*
X128344564Y-80659814D01*
X128337891Y-80652113D01*
X128328698Y-80647710D01*
X128315392Y-80626148D01*
X128298809Y-80607010D01*
X128297358Y-80596924D01*
X128292006Y-80588250D01*
X128292469Y-80562921D01*
X128288865Y-80537852D01*
X128293275Y-80518884D01*
X128293285Y-80518392D01*
X128293446Y-80518149D01*
X128293672Y-80517182D01*
X128316756Y-80446134D01*
X128316757Y-80446127D01*
X128350000Y-80236246D01*
X128350000Y-80023753D01*
X128316757Y-79813872D01*
X128316757Y-79813869D01*
X128251095Y-79611782D01*
X128154624Y-79422449D01*
X128115270Y-79368282D01*
X128115269Y-79368282D01*
X127482962Y-80000589D01*
X127465925Y-79937007D01*
X127400099Y-79822993D01*
X127307007Y-79729901D01*
X127192993Y-79664075D01*
X127129409Y-79647037D01*
X127761716Y-79014728D01*
X127707550Y-78975375D01*
X127518217Y-78878904D01*
X127316129Y-78813242D01*
X127106246Y-78780000D01*
X126893754Y-78780000D01*
X126683872Y-78813242D01*
X126683869Y-78813242D01*
X126481782Y-78878904D01*
X126292439Y-78975380D01*
X126238282Y-79014727D01*
X126238282Y-79014728D01*
X126870591Y-79647037D01*
X126807007Y-79664075D01*
X126692993Y-79729901D01*
X126599901Y-79822993D01*
X126534075Y-79937007D01*
X126517037Y-80000591D01*
X125884728Y-79368282D01*
X125884727Y-79368282D01*
X125876713Y-79379314D01*
X125821383Y-79421980D01*
X125751770Y-79427959D01*
X125707503Y-79409531D01*
X125679185Y-79390609D01*
X125679172Y-79390602D01*
X125533501Y-79330264D01*
X125533489Y-79330261D01*
X125378845Y-79299500D01*
X125378842Y-79299500D01*
X125221158Y-79299500D01*
X125221155Y-79299500D01*
X125066510Y-79330261D01*
X125066498Y-79330264D01*
X124920827Y-79390602D01*
X124920814Y-79390609D01*
X124789711Y-79478210D01*
X124789707Y-79478213D01*
X124678213Y-79589707D01*
X124678210Y-79589711D01*
X124590609Y-79720814D01*
X124590602Y-79720827D01*
X124530264Y-79866498D01*
X124530261Y-79866510D01*
X124499500Y-80021153D01*
X124499500Y-80178846D01*
X124530261Y-80333489D01*
X124530264Y-80333501D01*
X124590602Y-80479172D01*
X124590609Y-80479185D01*
X124678210Y-80610288D01*
X124678213Y-80610292D01*
X124789707Y-80721786D01*
X124789711Y-80721789D01*
X124920814Y-80809390D01*
X124920827Y-80809397D01*
X125066498Y-80869735D01*
X125066503Y-80869737D01*
X125131147Y-80882595D01*
X125221849Y-80900638D01*
X125283760Y-80933023D01*
X125285339Y-80934574D01*
X125967753Y-81616988D01*
X126001238Y-81678311D01*
X125996254Y-81748003D01*
X125972060Y-81785664D01*
X125973053Y-81786512D01*
X125969890Y-81790213D01*
X125844951Y-81962179D01*
X125748444Y-82151585D01*
X125682753Y-82353760D01*
X125649500Y-82563713D01*
X125649500Y-82776286D01*
X125682016Y-82981588D01*
X125682754Y-82986243D01*
X125746931Y-83183760D01*
X125748444Y-83188414D01*
X125844951Y-83377820D01*
X125969890Y-83549786D01*
X126120213Y-83700109D01*
X126292182Y-83825050D01*
X126300946Y-83829516D01*
X126351742Y-83877491D01*
X126368536Y-83945312D01*
X126345998Y-84011447D01*
X126300946Y-84050484D01*
X126292182Y-84054949D01*
X126120213Y-84179890D01*
X125969890Y-84330213D01*
X125844951Y-84502179D01*
X125748444Y-84691585D01*
X125748443Y-84691587D01*
X125748443Y-84691588D01*
X125732873Y-84739508D01*
X125682753Y-84893760D01*
X125649500Y-85103713D01*
X125649500Y-85316286D01*
X125682181Y-85522630D01*
X125682754Y-85526243D01*
X125746931Y-85723760D01*
X125748444Y-85728414D01*
X125844951Y-85917820D01*
X125969890Y-86089786D01*
X126083430Y-86203326D01*
X126116915Y-86264649D01*
X126111931Y-86334341D01*
X126070059Y-86390274D01*
X126039083Y-86407189D01*
X125907669Y-86456203D01*
X125907664Y-86456206D01*
X125792455Y-86542452D01*
X125792452Y-86542455D01*
X125706206Y-86657664D01*
X125706202Y-86657671D01*
X125655908Y-86792517D01*
X125651412Y-86834341D01*
X125649501Y-86852123D01*
X125649500Y-86852135D01*
X125649500Y-88647870D01*
X125649501Y-88647876D01*
X125655908Y-88707483D01*
X125706202Y-88842328D01*
X125706206Y-88842335D01*
X125792452Y-88957544D01*
X125792455Y-88957547D01*
X125907664Y-89043793D01*
X125907671Y-89043797D01*
X126042517Y-89094091D01*
X126042516Y-89094091D01*
X126049444Y-89094835D01*
X126102127Y-89100500D01*
X127897872Y-89100499D01*
X127957483Y-89094091D01*
X128092331Y-89043796D01*
X128207546Y-88957546D01*
X128293796Y-88842331D01*
X128344091Y-88707483D01*
X128350500Y-88647873D01*
X128350499Y-86852128D01*
X128344091Y-86792517D01*
X128339610Y-86780504D01*
X128293797Y-86657671D01*
X128293793Y-86657664D01*
X128207547Y-86542455D01*
X128207544Y-86542452D01*
X128092335Y-86456206D01*
X128092328Y-86456202D01*
X127960917Y-86407189D01*
X127904983Y-86365318D01*
X127880566Y-86299853D01*
X127895418Y-86231580D01*
X127916563Y-86203332D01*
X128030104Y-86089792D01*
X128032683Y-86086243D01*
X128155048Y-85917820D01*
X128155047Y-85917820D01*
X128155051Y-85917816D01*
X128251557Y-85728412D01*
X128317246Y-85526243D01*
X128317246Y-85526237D01*
X128318419Y-85522630D01*
X128357856Y-85464955D01*
X128422215Y-85437756D01*
X128491061Y-85449671D01*
X128524031Y-85473267D01*
X128531284Y-85480520D01*
X128531285Y-85480521D01*
X129031284Y-85980520D01*
X129031286Y-85980521D01*
X129031290Y-85980524D01*
X129150254Y-86049207D01*
X129168216Y-86059577D01*
X129320943Y-86100501D01*
X129320945Y-86100501D01*
X129486654Y-86100501D01*
X129486670Y-86100500D01*
X130820234Y-86100500D01*
X130887273Y-86120185D01*
X130889125Y-86121398D01*
X131020814Y-86209390D01*
X131020827Y-86209397D01*
X131103100Y-86243475D01*
X131166503Y-86269737D01*
X131317905Y-86299853D01*
X131321153Y-86300499D01*
X131321156Y-86300500D01*
X131321158Y-86300500D01*
X131478844Y-86300500D01*
X131478845Y-86300499D01*
X131633497Y-86269737D01*
X131779179Y-86209394D01*
X131910289Y-86121789D01*
X132021789Y-86010289D01*
X132104953Y-85885825D01*
X132158564Y-85841021D01*
X132227888Y-85832314D01*
X132290916Y-85862468D01*
X132327636Y-85921911D01*
X132329670Y-85930519D01*
X132330261Y-85933490D01*
X132330264Y-85933501D01*
X132390602Y-86079172D01*
X132390609Y-86079185D01*
X132478210Y-86210288D01*
X132478213Y-86210292D01*
X132589707Y-86321786D01*
X132589711Y-86321789D01*
X132720814Y-86409390D01*
X132720827Y-86409397D01*
X132833831Y-86456204D01*
X132866503Y-86469737D01*
X133021153Y-86500499D01*
X133021156Y-86500500D01*
X133021158Y-86500500D01*
X133178844Y-86500500D01*
X133178845Y-86500499D01*
X133333497Y-86469737D01*
X133479179Y-86409394D01*
X133610289Y-86321789D01*
X133721789Y-86210289D01*
X133809394Y-86079179D01*
X133869737Y-85933497D01*
X133900500Y-85778842D01*
X133900500Y-85621158D01*
X133900500Y-85621155D01*
X133900499Y-85621153D01*
X133891446Y-85575639D01*
X133869737Y-85466503D01*
X133864459Y-85453760D01*
X133809397Y-85320827D01*
X133809390Y-85320814D01*
X133721789Y-85189711D01*
X133721786Y-85189707D01*
X133610292Y-85078213D01*
X133610288Y-85078210D01*
X133479185Y-84990609D01*
X133479172Y-84990602D01*
X133333501Y-84930264D01*
X133333491Y-84930261D01*
X133178149Y-84899361D01*
X133116238Y-84866976D01*
X133114660Y-84865425D01*
X130936820Y-82687585D01*
X130922116Y-82660657D01*
X130905524Y-82634839D01*
X130904632Y-82628638D01*
X130903335Y-82626262D01*
X130900501Y-82599904D01*
X130900501Y-82549098D01*
X130920186Y-82482059D01*
X130972990Y-82436304D01*
X131042148Y-82426360D01*
X131105704Y-82455385D01*
X131112182Y-82461417D01*
X132215139Y-83564374D01*
X132215149Y-83564385D01*
X132219479Y-83568715D01*
X132219480Y-83568716D01*
X132331284Y-83680520D01*
X132331286Y-83680521D01*
X132331290Y-83680524D01*
X132415352Y-83729057D01*
X132415353Y-83729057D01*
X132468215Y-83759577D01*
X132620942Y-83800500D01*
X132620943Y-83800500D01*
X135120234Y-83800500D01*
X135187273Y-83820185D01*
X135189125Y-83821398D01*
X135320814Y-83909390D01*
X135320827Y-83909397D01*
X135458683Y-83966498D01*
X135466503Y-83969737D01*
X135621153Y-84000499D01*
X135621156Y-84000500D01*
X135621158Y-84000500D01*
X135778844Y-84000500D01*
X135778845Y-84000499D01*
X135933497Y-83969737D01*
X136079179Y-83909394D01*
X136093594Y-83899761D01*
X136160271Y-83878882D01*
X136227652Y-83897365D01*
X136274343Y-83949342D01*
X136285522Y-84018312D01*
X136257638Y-84082376D01*
X136250169Y-84090543D01*
X127817534Y-92523181D01*
X127756211Y-92556666D01*
X127729853Y-92559500D01*
X123426669Y-92559500D01*
X123426653Y-92559499D01*
X123419057Y-92559499D01*
X123260943Y-92559499D01*
X123108215Y-92600423D01*
X123108213Y-92600424D01*
X123082186Y-92615449D01*
X123082187Y-92615450D01*
X122971287Y-92679477D01*
X122971282Y-92679481D01*
X122859478Y-92791286D01*
X122387584Y-93263181D01*
X122326261Y-93296666D01*
X122299903Y-93299500D01*
X121782940Y-93299500D01*
X121715901Y-93279815D01*
X121695258Y-93263180D01*
X121660292Y-93228213D01*
X121660288Y-93228210D01*
X121529185Y-93140609D01*
X121529172Y-93140602D01*
X121383501Y-93080264D01*
X121383489Y-93080261D01*
X121228845Y-93049500D01*
X121228842Y-93049500D01*
X121071158Y-93049500D01*
X121071155Y-93049500D01*
X120916510Y-93080261D01*
X120916498Y-93080264D01*
X120770827Y-93140602D01*
X120770814Y-93140609D01*
X120639711Y-93228210D01*
X120639707Y-93228213D01*
X120528213Y-93339707D01*
X120528210Y-93339711D01*
X120440609Y-93470814D01*
X120440602Y-93470827D01*
X120380264Y-93616498D01*
X120380261Y-93616510D01*
X120349500Y-93771153D01*
X120349500Y-93928846D01*
X120380261Y-94083489D01*
X120380264Y-94083501D01*
X120440602Y-94229172D01*
X120440609Y-94229185D01*
X120528210Y-94360288D01*
X120528213Y-94360292D01*
X120639707Y-94471786D01*
X120639711Y-94471789D01*
X120770814Y-94559390D01*
X120770827Y-94559397D01*
X120899618Y-94612743D01*
X120916503Y-94619737D01*
X121071153Y-94650499D01*
X121071156Y-94650500D01*
X121071158Y-94650500D01*
X121228844Y-94650500D01*
X121228845Y-94650499D01*
X121383497Y-94619737D01*
X121529179Y-94559394D01*
X121586044Y-94521397D01*
X121652721Y-94500520D01*
X121654935Y-94500500D01*
X122513331Y-94500500D01*
X122513347Y-94500501D01*
X122520943Y-94500501D01*
X122679054Y-94500501D01*
X122679057Y-94500501D01*
X122831785Y-94459577D01*
X122889136Y-94426465D01*
X122968716Y-94380520D01*
X123080520Y-94268716D01*
X123080520Y-94268714D01*
X123090724Y-94258511D01*
X123090727Y-94258506D01*
X123552416Y-93796819D01*
X123613739Y-93763334D01*
X123640097Y-93760500D01*
X127943281Y-93760500D01*
X127943297Y-93760501D01*
X127950893Y-93760501D01*
X128109004Y-93760501D01*
X128109007Y-93760501D01*
X128261735Y-93719577D01*
X128261737Y-93719575D01*
X128261739Y-93719575D01*
X128261740Y-93719574D01*
X128313463Y-93689712D01*
X128313464Y-93689711D01*
X128398666Y-93640520D01*
X128510470Y-93528716D01*
X128510470Y-93528714D01*
X128520674Y-93518511D01*
X128520678Y-93518506D01*
X129470163Y-92569020D01*
X129531484Y-92535537D01*
X129601176Y-92540521D01*
X129645524Y-92569023D01*
X129690911Y-92614411D01*
X129690915Y-92614414D01*
X129838396Y-92712959D01*
X129838409Y-92712966D01*
X129961313Y-92763873D01*
X130002284Y-92780844D01*
X130002286Y-92780844D01*
X130002291Y-92780846D01*
X130176254Y-92815449D01*
X130176257Y-92815450D01*
X130176259Y-92815450D01*
X130353643Y-92815450D01*
X130353644Y-92815449D01*
X130411632Y-92803914D01*
X130527608Y-92780846D01*
X130527611Y-92780844D01*
X130527616Y-92780844D01*
X130691497Y-92712963D01*
X130838985Y-92614414D01*
X130964414Y-92488985D01*
X131062963Y-92341497D01*
X131130844Y-92177616D01*
X131132219Y-92170707D01*
X131165449Y-92003645D01*
X131165450Y-92003643D01*
X131165450Y-91915047D01*
X131185135Y-91848008D01*
X131201769Y-91827366D01*
X131492316Y-91536819D01*
X131553639Y-91503334D01*
X131579997Y-91500500D01*
X132013445Y-91500500D01*
X132080484Y-91520185D01*
X132126239Y-91572989D01*
X132136183Y-91642147D01*
X132131159Y-91660411D01*
X132132031Y-91660676D01*
X132130261Y-91666510D01*
X132099500Y-91821153D01*
X132099500Y-91978846D01*
X132130261Y-92133489D01*
X132130264Y-92133501D01*
X132190602Y-92279172D01*
X132190609Y-92279185D01*
X132278602Y-92410874D01*
X132299480Y-92477551D01*
X132299500Y-92479765D01*
X132299500Y-93620234D01*
X132279815Y-93687273D01*
X132278602Y-93689125D01*
X132190609Y-93820814D01*
X132190602Y-93820827D01*
X132130264Y-93966498D01*
X132130261Y-93966510D01*
X132099500Y-94121153D01*
X132099500Y-94278846D01*
X132130261Y-94433489D01*
X132130264Y-94433501D01*
X132190602Y-94579172D01*
X132190609Y-94579185D01*
X132278210Y-94710288D01*
X132278213Y-94710292D01*
X132389707Y-94821786D01*
X132389711Y-94821789D01*
X132520814Y-94909390D01*
X132520827Y-94909397D01*
X132666498Y-94969735D01*
X132666503Y-94969737D01*
X132821153Y-95000499D01*
X132821156Y-95000500D01*
X132821158Y-95000500D01*
X132978844Y-95000500D01*
X132978845Y-95000499D01*
X133133497Y-94969737D01*
X133279179Y-94909394D01*
X133410289Y-94821789D01*
X133521789Y-94710289D01*
X133609394Y-94579179D01*
X133669737Y-94433497D01*
X133700500Y-94278842D01*
X133700500Y-94121158D01*
X133700500Y-94121155D01*
X133700499Y-94121153D01*
X133699285Y-94115051D01*
X133669737Y-93966503D01*
X133654139Y-93928846D01*
X133609397Y-93820827D01*
X133609390Y-93820814D01*
X133521398Y-93689125D01*
X133500520Y-93622447D01*
X133500500Y-93620234D01*
X133500500Y-92479765D01*
X133520185Y-92412726D01*
X133521398Y-92410874D01*
X133609390Y-92279185D01*
X133609390Y-92279184D01*
X133609394Y-92279179D01*
X133669737Y-92133497D01*
X133700500Y-91978842D01*
X133700500Y-91821158D01*
X133700500Y-91821155D01*
X133700499Y-91821153D01*
X133699564Y-91816451D01*
X133669737Y-91666503D01*
X133669732Y-91666492D01*
X133667969Y-91660676D01*
X133670720Y-91659841D01*
X133664497Y-91602641D01*
X133695691Y-91540122D01*
X133755734Y-91504392D01*
X133786555Y-91500500D01*
X134051374Y-91500500D01*
X134118413Y-91520185D01*
X134139054Y-91536818D01*
X135882755Y-93280520D01*
X135882757Y-93280521D01*
X135882761Y-93280524D01*
X136019680Y-93359573D01*
X136019687Y-93359577D01*
X136172414Y-93400501D01*
X136172416Y-93400501D01*
X136338125Y-93400501D01*
X136338141Y-93400500D01*
X141875639Y-93400500D01*
X141942678Y-93420185D01*
X141963315Y-93436814D01*
X141997315Y-93470814D01*
X142025966Y-93499465D01*
X142173446Y-93598009D01*
X142173459Y-93598016D01*
X142276070Y-93640518D01*
X142337334Y-93665894D01*
X142337336Y-93665894D01*
X142337341Y-93665896D01*
X142511304Y-93700499D01*
X142511307Y-93700500D01*
X142511309Y-93700500D01*
X142688693Y-93700500D01*
X142688694Y-93700499D01*
X142755187Y-93687273D01*
X142862658Y-93665896D01*
X142862661Y-93665894D01*
X142862666Y-93665894D01*
X143026547Y-93598013D01*
X143174035Y-93499464D01*
X143253510Y-93419988D01*
X143314831Y-93386505D01*
X143384523Y-93391489D01*
X143428870Y-93419989D01*
X144588052Y-94579172D01*
X145737627Y-95728747D01*
X145764507Y-95768975D01*
X145813214Y-95886566D01*
X145813219Y-95886575D01*
X145900820Y-96017678D01*
X145900823Y-96017682D01*
X146012317Y-96129176D01*
X146012321Y-96129179D01*
X146143424Y-96216780D01*
X146143437Y-96216787D01*
X146289108Y-96277125D01*
X146289113Y-96277127D01*
X146418139Y-96302792D01*
X146443763Y-96307889D01*
X146443766Y-96307890D01*
X146443768Y-96307890D01*
X146601454Y-96307890D01*
X146601455Y-96307889D01*
X146756107Y-96277127D01*
X146901789Y-96216784D01*
X146937862Y-96192679D01*
X147004539Y-96171801D01*
X147071919Y-96190285D01*
X147075629Y-96192668D01*
X147112746Y-96217469D01*
X147112748Y-96217470D01*
X147112752Y-96217472D01*
X147258423Y-96277810D01*
X147258428Y-96277812D01*
X147384010Y-96302792D01*
X147413078Y-96308574D01*
X147413081Y-96308575D01*
X147413083Y-96308575D01*
X147570769Y-96308575D01*
X147570770Y-96308574D01*
X147725422Y-96277812D01*
X147871104Y-96217469D01*
X147871109Y-96217465D01*
X147871112Y-96217464D01*
X147911788Y-96190285D01*
X147984016Y-96142023D01*
X148050691Y-96121145D01*
X148118072Y-96139629D01*
X148140587Y-96157444D01*
X148703181Y-96720038D01*
X148736666Y-96781361D01*
X148739500Y-96807719D01*
X148739500Y-99089899D01*
X148719815Y-99156938D01*
X148718602Y-99158790D01*
X148641988Y-99273449D01*
X148641987Y-99273452D01*
X148574106Y-99437332D01*
X148574103Y-99437341D01*
X148539500Y-99611304D01*
X148539500Y-99788695D01*
X148574103Y-99962658D01*
X148574106Y-99962667D01*
X148641983Y-100126540D01*
X148641990Y-100126553D01*
X148740535Y-100274034D01*
X148740538Y-100274038D01*
X148865961Y-100399461D01*
X148865965Y-100399464D01*
X149013446Y-100498009D01*
X149013459Y-100498016D01*
X149136363Y-100548923D01*
X149177334Y-100565894D01*
X149177336Y-100565894D01*
X149177341Y-100565896D01*
X149351304Y-100600499D01*
X149351307Y-100600500D01*
X149351309Y-100600500D01*
X149528693Y-100600500D01*
X149528694Y-100600499D01*
X149586682Y-100588964D01*
X149702658Y-100565896D01*
X149702661Y-100565894D01*
X149702666Y-100565894D01*
X149866547Y-100498013D01*
X150014035Y-100399464D01*
X150139464Y-100274035D01*
X150238013Y-100126547D01*
X150305894Y-99962666D01*
X150340500Y-99788691D01*
X150340500Y-99611309D01*
X150340500Y-99611306D01*
X150340499Y-99611304D01*
X150305896Y-99437341D01*
X150305893Y-99437332D01*
X150299194Y-99421158D01*
X150238013Y-99273453D01*
X150238011Y-99273451D01*
X150238011Y-99273449D01*
X150161398Y-99158790D01*
X150140520Y-99092112D01*
X150140500Y-99089899D01*
X150140500Y-96397206D01*
X150138396Y-96386632D01*
X150138395Y-96386627D01*
X150132144Y-96355202D01*
X150130849Y-96348690D01*
X150137076Y-96279100D01*
X150179939Y-96223923D01*
X150245828Y-96200678D01*
X150252466Y-96200500D01*
X150358844Y-96200500D01*
X150358845Y-96200499D01*
X150513497Y-96169737D01*
X150659179Y-96109394D01*
X150790289Y-96021789D01*
X150901789Y-95910289D01*
X150989394Y-95779179D01*
X151049737Y-95633497D01*
X151080500Y-95478842D01*
X151080500Y-95321158D01*
X151080500Y-95321155D01*
X151080499Y-95321153D01*
X151049738Y-95166510D01*
X151049737Y-95166503D01*
X151031867Y-95123361D01*
X150989397Y-95020827D01*
X150989390Y-95020814D01*
X150901789Y-94889711D01*
X150901786Y-94889707D01*
X150790292Y-94778213D01*
X150790288Y-94778210D01*
X150659185Y-94690609D01*
X150659175Y-94690604D01*
X150577047Y-94656585D01*
X150522643Y-94612743D01*
X150500579Y-94546449D01*
X150500500Y-94542024D01*
X150500500Y-84011304D01*
X155599500Y-84011304D01*
X155599500Y-84188695D01*
X155634103Y-84362658D01*
X155634106Y-84362667D01*
X155701983Y-84526540D01*
X155701990Y-84526553D01*
X155800535Y-84674034D01*
X155800538Y-84674038D01*
X155925961Y-84799461D01*
X155925965Y-84799464D01*
X156073446Y-84898009D01*
X156073459Y-84898016D01*
X156196363Y-84948923D01*
X156230115Y-84962904D01*
X156237332Y-84965893D01*
X156237334Y-84965894D01*
X156326472Y-84983624D01*
X156388380Y-85016008D01*
X156422954Y-85076724D01*
X156423895Y-85081049D01*
X156439129Y-85157635D01*
X156439132Y-85157645D01*
X156507008Y-85321515D01*
X156507015Y-85321528D01*
X156605560Y-85469009D01*
X156605563Y-85469013D01*
X156730986Y-85594436D01*
X156730990Y-85594439D01*
X156878471Y-85692984D01*
X156878484Y-85692991D01*
X156976276Y-85733497D01*
X157042359Y-85760869D01*
X157042361Y-85760869D01*
X157042366Y-85760871D01*
X157216329Y-85795474D01*
X157216332Y-85795475D01*
X157216334Y-85795475D01*
X157393718Y-85795475D01*
X157393719Y-85795474D01*
X157451707Y-85783939D01*
X157567683Y-85760871D01*
X157567686Y-85760869D01*
X157567691Y-85760869D01*
X157731572Y-85692988D01*
X157879060Y-85594439D01*
X157941706Y-85531792D01*
X158003027Y-85498309D01*
X158029386Y-85495475D01*
X159108306Y-85495475D01*
X159108322Y-85495476D01*
X159115918Y-85495476D01*
X159274029Y-85495476D01*
X159274032Y-85495476D01*
X159426760Y-85454552D01*
X159476879Y-85425614D01*
X159563691Y-85375495D01*
X159675495Y-85263691D01*
X159675495Y-85263689D01*
X159685703Y-85253482D01*
X159685705Y-85253479D01*
X160658506Y-84280678D01*
X160658511Y-84280674D01*
X160668714Y-84270470D01*
X160668716Y-84270470D01*
X160780520Y-84158666D01*
X160859577Y-84021734D01*
X160892056Y-83900520D01*
X160900500Y-83869008D01*
X160900500Y-83710893D01*
X160900500Y-82135443D01*
X160920185Y-82068404D01*
X160972989Y-82022649D01*
X161042147Y-82012705D01*
X161105703Y-82041730D01*
X161112181Y-82047762D01*
X161489579Y-82425160D01*
X161523064Y-82486483D01*
X161518080Y-82556175D01*
X161489583Y-82600518D01*
X161469899Y-82620203D01*
X161469892Y-82620211D01*
X161344951Y-82792179D01*
X161248444Y-82981585D01*
X161248443Y-82981587D01*
X161248443Y-82981588D01*
X161238426Y-83012416D01*
X161182753Y-83183760D01*
X161161854Y-83315711D01*
X161149500Y-83393713D01*
X161149500Y-83606287D01*
X161151623Y-83619693D01*
X161182628Y-83815451D01*
X161182754Y-83816243D01*
X161246133Y-84011304D01*
X161248444Y-84018414D01*
X161344951Y-84207820D01*
X161469890Y-84379786D01*
X161620213Y-84530109D01*
X161792182Y-84655050D01*
X161800946Y-84659516D01*
X161851742Y-84707491D01*
X161868536Y-84775312D01*
X161845998Y-84841447D01*
X161800946Y-84880484D01*
X161792182Y-84884949D01*
X161620213Y-85009890D01*
X161469890Y-85160213D01*
X161344951Y-85332179D01*
X161248444Y-85521585D01*
X161248443Y-85521587D01*
X161248443Y-85521588D01*
X161245127Y-85531794D01*
X161182753Y-85723760D01*
X161149500Y-85933713D01*
X161149500Y-86146286D01*
X161178269Y-86327931D01*
X161182754Y-86356243D01*
X161243258Y-86542455D01*
X161248444Y-86558414D01*
X161344951Y-86747820D01*
X161469890Y-86919786D01*
X161620213Y-87070109D01*
X161792179Y-87195048D01*
X161792181Y-87195049D01*
X161792184Y-87195051D01*
X161801493Y-87199794D01*
X161852290Y-87247766D01*
X161869087Y-87315587D01*
X161846552Y-87381722D01*
X161801505Y-87420760D01*
X161792446Y-87425376D01*
X161792440Y-87425380D01*
X161738282Y-87464727D01*
X161738282Y-87464728D01*
X162370591Y-88097037D01*
X162307007Y-88114075D01*
X162192993Y-88179901D01*
X162099901Y-88272993D01*
X162034075Y-88387007D01*
X162017037Y-88450591D01*
X161384728Y-87818282D01*
X161384727Y-87818282D01*
X161345380Y-87872439D01*
X161248904Y-88061782D01*
X161183242Y-88263869D01*
X161183242Y-88263872D01*
X161150000Y-88473753D01*
X161150000Y-88686246D01*
X161183242Y-88896127D01*
X161183242Y-88896130D01*
X161248904Y-89098217D01*
X161345375Y-89287550D01*
X161384728Y-89341716D01*
X162017037Y-88709408D01*
X162034075Y-88772993D01*
X162099901Y-88887007D01*
X162192993Y-88980099D01*
X162307007Y-89045925D01*
X162370590Y-89062962D01*
X161738282Y-89695269D01*
X161738282Y-89695270D01*
X161792449Y-89734624D01*
X161981782Y-89831095D01*
X162183870Y-89896757D01*
X162393754Y-89930000D01*
X162606246Y-89930000D01*
X162816127Y-89896757D01*
X162816130Y-89896757D01*
X163018217Y-89831095D01*
X163207554Y-89734622D01*
X163261716Y-89695270D01*
X163261717Y-89695270D01*
X162629408Y-89062962D01*
X162692993Y-89045925D01*
X162807007Y-88980099D01*
X162900099Y-88887007D01*
X162965925Y-88772993D01*
X162982962Y-88709408D01*
X163615270Y-89341717D01*
X163615270Y-89341716D01*
X163654622Y-89287554D01*
X163751095Y-89098217D01*
X163816757Y-88896130D01*
X163816757Y-88896127D01*
X163850000Y-88686246D01*
X163850000Y-88473753D01*
X163816757Y-88263872D01*
X163816757Y-88263869D01*
X163751095Y-88061782D01*
X163654624Y-87872449D01*
X163615270Y-87818282D01*
X163615269Y-87818282D01*
X162982962Y-88450590D01*
X162965925Y-88387007D01*
X162900099Y-88272993D01*
X162807007Y-88179901D01*
X162692993Y-88114075D01*
X162629409Y-88097037D01*
X163261716Y-87464728D01*
X163207547Y-87425373D01*
X163207547Y-87425372D01*
X163198500Y-87420763D01*
X163147706Y-87372788D01*
X163130912Y-87304966D01*
X163153451Y-87238832D01*
X163198508Y-87199793D01*
X163207816Y-87195051D01*
X163369497Y-87077584D01*
X163379786Y-87070109D01*
X163379788Y-87070106D01*
X163379792Y-87070104D01*
X163530104Y-86919792D01*
X163530106Y-86919788D01*
X163530109Y-86919786D01*
X163655048Y-86747820D01*
X163655047Y-86747820D01*
X163655051Y-86747816D01*
X163751557Y-86558412D01*
X163817246Y-86356243D01*
X163850500Y-86146287D01*
X163850500Y-85933713D01*
X163817246Y-85723757D01*
X163751557Y-85521588D01*
X163655051Y-85332184D01*
X163655049Y-85332181D01*
X163655048Y-85332179D01*
X163530109Y-85160213D01*
X163379786Y-85009890D01*
X163207820Y-84884951D01*
X163202874Y-84882431D01*
X163199054Y-84880485D01*
X163148259Y-84832512D01*
X163131463Y-84764692D01*
X163153999Y-84698556D01*
X163199054Y-84659515D01*
X163207816Y-84655051D01*
X163256755Y-84619495D01*
X163379786Y-84530109D01*
X163379788Y-84530106D01*
X163379792Y-84530104D01*
X163530104Y-84379792D01*
X163530106Y-84379788D01*
X163530109Y-84379786D01*
X163639086Y-84229789D01*
X163655051Y-84207816D01*
X163751557Y-84018412D01*
X163817246Y-83816243D01*
X163850500Y-83606287D01*
X163850500Y-83393713D01*
X163817246Y-83183757D01*
X163794195Y-83112816D01*
X163793392Y-83084698D01*
X163789389Y-83056853D01*
X163792408Y-83050241D01*
X163792201Y-83042977D01*
X163806727Y-83018887D01*
X163818414Y-82993297D01*
X163824527Y-82989367D01*
X163828281Y-82983144D01*
X163853527Y-82970731D01*
X163877192Y-82955523D01*
X163887462Y-82954046D01*
X163890982Y-82952316D01*
X163912127Y-82950500D01*
X164089903Y-82950500D01*
X164156942Y-82970185D01*
X164177584Y-82986819D01*
X166250190Y-85059425D01*
X166283675Y-85120748D01*
X166278691Y-85190440D01*
X166272995Y-85203399D01*
X166248444Y-85251584D01*
X166182753Y-85453760D01*
X166156240Y-85621158D01*
X166149500Y-85663713D01*
X166149500Y-85876287D01*
X166153180Y-85899520D01*
X166174398Y-86033489D01*
X166182754Y-86086243D01*
X166247618Y-86285874D01*
X166248444Y-86288414D01*
X166344951Y-86477820D01*
X166469890Y-86649786D01*
X166620213Y-86800109D01*
X166792182Y-86925050D01*
X166800946Y-86929516D01*
X166851742Y-86977491D01*
X166868536Y-87045312D01*
X166845998Y-87111447D01*
X166800946Y-87150484D01*
X166792182Y-87154949D01*
X166620213Y-87279890D01*
X166469890Y-87430213D01*
X166344951Y-87602179D01*
X166248444Y-87791585D01*
X166182753Y-87993760D01*
X166149500Y-88203713D01*
X166149500Y-88416286D01*
X166182187Y-88622667D01*
X166182754Y-88626243D01*
X166234840Y-88786547D01*
X166248444Y-88828414D01*
X166344951Y-89017820D01*
X166469890Y-89189786D01*
X166620213Y-89340109D01*
X166792179Y-89465048D01*
X166792181Y-89465049D01*
X166792184Y-89465051D01*
X166801493Y-89469794D01*
X166852290Y-89517766D01*
X166869087Y-89585587D01*
X166846552Y-89651722D01*
X166801505Y-89690760D01*
X166792446Y-89695376D01*
X166792440Y-89695380D01*
X166738282Y-89734727D01*
X166738282Y-89734728D01*
X167370591Y-90367037D01*
X167307007Y-90384075D01*
X167192993Y-90449901D01*
X167099901Y-90542993D01*
X167034075Y-90657007D01*
X167017037Y-90720591D01*
X166384728Y-90088282D01*
X166384727Y-90088282D01*
X166345380Y-90142439D01*
X166248904Y-90331782D01*
X166183242Y-90533869D01*
X166183242Y-90533872D01*
X166150000Y-90743753D01*
X166150000Y-90956246D01*
X166183242Y-91166127D01*
X166183242Y-91166130D01*
X166248904Y-91368217D01*
X166345375Y-91557550D01*
X166384728Y-91611716D01*
X167017037Y-90979408D01*
X167034075Y-91042993D01*
X167099901Y-91157007D01*
X167192993Y-91250099D01*
X167307007Y-91315925D01*
X167370590Y-91332962D01*
X166738282Y-91965269D01*
X166738282Y-91965270D01*
X166792449Y-92004624D01*
X166981782Y-92101095D01*
X167183870Y-92166757D01*
X167393754Y-92200000D01*
X167606246Y-92200000D01*
X167816127Y-92166757D01*
X167816130Y-92166757D01*
X168018217Y-92101095D01*
X168207554Y-92004622D01*
X168261716Y-91965270D01*
X168261717Y-91965270D01*
X167629408Y-91332962D01*
X167692993Y-91315925D01*
X167807007Y-91250099D01*
X167900099Y-91157007D01*
X167965925Y-91042993D01*
X167982962Y-90979409D01*
X168615270Y-91611717D01*
X168615270Y-91611716D01*
X168654622Y-91557554D01*
X168751095Y-91368217D01*
X168816757Y-91166130D01*
X168816757Y-91166127D01*
X168850000Y-90956246D01*
X168850000Y-90743753D01*
X168816757Y-90533872D01*
X168816757Y-90533869D01*
X168751095Y-90331782D01*
X168654624Y-90142449D01*
X168615270Y-90088282D01*
X168615269Y-90088282D01*
X167982962Y-90720590D01*
X167965925Y-90657007D01*
X167900099Y-90542993D01*
X167807007Y-90449901D01*
X167692993Y-90384075D01*
X167629409Y-90367037D01*
X168261716Y-89734728D01*
X168207547Y-89695373D01*
X168207547Y-89695372D01*
X168198500Y-89690763D01*
X168147706Y-89642788D01*
X168130912Y-89574966D01*
X168153451Y-89508832D01*
X168198508Y-89469793D01*
X168207816Y-89465051D01*
X168298665Y-89399046D01*
X168379786Y-89340109D01*
X168379788Y-89340106D01*
X168379792Y-89340104D01*
X168530104Y-89189792D01*
X168530106Y-89189788D01*
X168530109Y-89189786D01*
X168655048Y-89017820D01*
X168655047Y-89017820D01*
X168655051Y-89017816D01*
X168751557Y-88828412D01*
X168817246Y-88626243D01*
X168850500Y-88416287D01*
X168850500Y-88203713D01*
X168817246Y-87993757D01*
X168751557Y-87791588D01*
X168655051Y-87602184D01*
X168655049Y-87602181D01*
X168655048Y-87602179D01*
X168530109Y-87430213D01*
X168379786Y-87279890D01*
X168207820Y-87154951D01*
X168207115Y-87154591D01*
X168199054Y-87150485D01*
X168148259Y-87102512D01*
X168131463Y-87034692D01*
X168153999Y-86968556D01*
X168199054Y-86929515D01*
X168207816Y-86925051D01*
X168290032Y-86865318D01*
X168379786Y-86800109D01*
X168379788Y-86800106D01*
X168379792Y-86800104D01*
X168530104Y-86649792D01*
X168530106Y-86649788D01*
X168530109Y-86649786D01*
X168655048Y-86477820D01*
X168655047Y-86477820D01*
X168655051Y-86477816D01*
X168751557Y-86288412D01*
X168817246Y-86086243D01*
X168850500Y-85876287D01*
X168850500Y-85663713D01*
X168817246Y-85453757D01*
X168751557Y-85251588D01*
X168655051Y-85062184D01*
X168655049Y-85062181D01*
X168655048Y-85062179D01*
X168530109Y-84890213D01*
X168510419Y-84870523D01*
X168476934Y-84809200D01*
X168481918Y-84739508D01*
X168510419Y-84695161D01*
X168623710Y-84581870D01*
X169130520Y-84075062D01*
X169209577Y-83938130D01*
X169250501Y-83785403D01*
X169250501Y-83627288D01*
X169250501Y-83619693D01*
X169250500Y-83619675D01*
X169250500Y-81929060D01*
X169250501Y-81929047D01*
X169250501Y-81760944D01*
X169250467Y-81760816D01*
X169209577Y-81608216D01*
X169193439Y-81580264D01*
X169130524Y-81471290D01*
X169130518Y-81471282D01*
X169020954Y-81361718D01*
X168833756Y-81174521D01*
X168800272Y-81113199D01*
X168803507Y-81048523D01*
X168817246Y-81006243D01*
X168850500Y-80796287D01*
X168850500Y-80583713D01*
X168817246Y-80373757D01*
X168751557Y-80171588D01*
X168655051Y-79982184D01*
X168655049Y-79982181D01*
X168655048Y-79982179D01*
X168530109Y-79810213D01*
X168416569Y-79696673D01*
X168383084Y-79635350D01*
X168388068Y-79565658D01*
X168429940Y-79509725D01*
X168460915Y-79492810D01*
X168592331Y-79443796D01*
X168707546Y-79357546D01*
X168793796Y-79242331D01*
X168844091Y-79107483D01*
X168850500Y-79047873D01*
X168850499Y-77252128D01*
X168844091Y-77192517D01*
X168843115Y-77189901D01*
X168793797Y-77057671D01*
X168793793Y-77057664D01*
X168707547Y-76942455D01*
X168707544Y-76942452D01*
X168592335Y-76856206D01*
X168592328Y-76856202D01*
X168457482Y-76805908D01*
X168457483Y-76805908D01*
X168397883Y-76799501D01*
X168397881Y-76799500D01*
X168397873Y-76799500D01*
X168397864Y-76799500D01*
X166602129Y-76799500D01*
X166602123Y-76799501D01*
X166542516Y-76805908D01*
X166407671Y-76856202D01*
X166407664Y-76856206D01*
X166292455Y-76942452D01*
X166292452Y-76942455D01*
X166206206Y-77057664D01*
X166206202Y-77057671D01*
X166155908Y-77192517D01*
X166150890Y-77239195D01*
X166149501Y-77252123D01*
X166149500Y-77252135D01*
X166149500Y-78620902D01*
X166129815Y-78687941D01*
X166077011Y-78733696D01*
X166007853Y-78743640D01*
X165944297Y-78714615D01*
X165937819Y-78708583D01*
X163567590Y-76338355D01*
X163567588Y-76338352D01*
X163448717Y-76219481D01*
X163448716Y-76219480D01*
X163356956Y-76166503D01*
X163356955Y-76166502D01*
X163311783Y-76140422D01*
X163255881Y-76125443D01*
X163159057Y-76099499D01*
X163000943Y-76099499D01*
X162993347Y-76099499D01*
X162993331Y-76099500D01*
X159579766Y-76099500D01*
X159512727Y-76079815D01*
X159510875Y-76078602D01*
X159379185Y-75990609D01*
X159379172Y-75990602D01*
X159233501Y-75930264D01*
X159233489Y-75930261D01*
X159078845Y-75899500D01*
X159078842Y-75899500D01*
X158921158Y-75899500D01*
X158921155Y-75899500D01*
X158766510Y-75930261D01*
X158766498Y-75930264D01*
X158620827Y-75990602D01*
X158620814Y-75990609D01*
X158489711Y-76078210D01*
X158489707Y-76078213D01*
X158378213Y-76189707D01*
X158378210Y-76189711D01*
X158290609Y-76320814D01*
X158290602Y-76320827D01*
X158230264Y-76466498D01*
X158230261Y-76466510D01*
X158199500Y-76621153D01*
X158199500Y-76778846D01*
X158230261Y-76933489D01*
X158230264Y-76933501D01*
X158290602Y-77079172D01*
X158290609Y-77079185D01*
X158378210Y-77210288D01*
X158378213Y-77210292D01*
X158489707Y-77321786D01*
X158489711Y-77321789D01*
X158620814Y-77409390D01*
X158620827Y-77409397D01*
X158766498Y-77469735D01*
X158766503Y-77469737D01*
X158861791Y-77488691D01*
X158921153Y-77500499D01*
X158921156Y-77500500D01*
X158921158Y-77500500D01*
X159078844Y-77500500D01*
X159078845Y-77500499D01*
X159233497Y-77469737D01*
X159379179Y-77409394D01*
X159441525Y-77367736D01*
X159510875Y-77321398D01*
X159577553Y-77300520D01*
X159579766Y-77300500D01*
X161037744Y-77300500D01*
X161104783Y-77320185D01*
X161150538Y-77372989D01*
X161160482Y-77442147D01*
X161157238Y-77454857D01*
X161157693Y-77454965D01*
X161155908Y-77462516D01*
X161151825Y-77500499D01*
X161149500Y-77522127D01*
X161149500Y-78241511D01*
X161149501Y-78845500D01*
X161146950Y-78854185D01*
X161148239Y-78863147D01*
X161137260Y-78887187D01*
X161129816Y-78912539D01*
X161122975Y-78918466D01*
X161119214Y-78926703D01*
X161096981Y-78940990D01*
X161077013Y-78958294D01*
X161066497Y-78960581D01*
X161060436Y-78964477D01*
X161025501Y-78969500D01*
X160806619Y-78969500D01*
X160806603Y-78969499D01*
X160799007Y-78969499D01*
X160640893Y-78969499D01*
X160541402Y-78996158D01*
X160488164Y-79010423D01*
X160446328Y-79034578D01*
X160446327Y-79034578D01*
X160351237Y-79089477D01*
X160351232Y-79089481D01*
X159819479Y-79621234D01*
X159791044Y-79670486D01*
X159779025Y-79691305D01*
X159740423Y-79758165D01*
X159699499Y-79910893D01*
X159699499Y-79910895D01*
X159699499Y-80078996D01*
X159699500Y-80079009D01*
X159699500Y-83252380D01*
X159679815Y-83319419D01*
X159627011Y-83365174D01*
X159557853Y-83375118D01*
X159506609Y-83355482D01*
X159426553Y-83301990D01*
X159426540Y-83301983D01*
X159262667Y-83234106D01*
X159262658Y-83234103D01*
X159088694Y-83199500D01*
X159088691Y-83199500D01*
X158911309Y-83199500D01*
X158911306Y-83199500D01*
X158737341Y-83234103D01*
X158737332Y-83234106D01*
X158573459Y-83301983D01*
X158573446Y-83301990D01*
X158425966Y-83400534D01*
X158405348Y-83421153D01*
X158363318Y-83463182D01*
X158301998Y-83496666D01*
X158275639Y-83499500D01*
X157224361Y-83499500D01*
X157157322Y-83479815D01*
X157136684Y-83463185D01*
X157074035Y-83400536D01*
X157074034Y-83400535D01*
X157074033Y-83400534D01*
X156926553Y-83301990D01*
X156926540Y-83301983D01*
X156762667Y-83234106D01*
X156762658Y-83234103D01*
X156588694Y-83199500D01*
X156588691Y-83199500D01*
X156411309Y-83199500D01*
X156411306Y-83199500D01*
X156237341Y-83234103D01*
X156237332Y-83234106D01*
X156073459Y-83301983D01*
X156073446Y-83301990D01*
X155925965Y-83400535D01*
X155925961Y-83400538D01*
X155800538Y-83525961D01*
X155800535Y-83525965D01*
X155701990Y-83673446D01*
X155701983Y-83673459D01*
X155634106Y-83837332D01*
X155634103Y-83837341D01*
X155599500Y-84011304D01*
X150500500Y-84011304D01*
X150500500Y-82720941D01*
X150499909Y-82718734D01*
X150473509Y-82620211D01*
X150459577Y-82568215D01*
X150409149Y-82480872D01*
X150380520Y-82431284D01*
X150268716Y-82319480D01*
X150268715Y-82319479D01*
X150264385Y-82315149D01*
X150264374Y-82315139D01*
X148461416Y-80512181D01*
X148427931Y-80450858D01*
X148432915Y-80381166D01*
X148474787Y-80325233D01*
X148540251Y-80300816D01*
X148549097Y-80300500D01*
X148578844Y-80300500D01*
X148578845Y-80300499D01*
X148733497Y-80269737D01*
X148879179Y-80209394D01*
X149010289Y-80121789D01*
X149121789Y-80010289D01*
X149208873Y-79879958D01*
X149209390Y-79879185D01*
X149209390Y-79879184D01*
X149209394Y-79879179D01*
X149269737Y-79733497D01*
X149300500Y-79578842D01*
X149300500Y-79421158D01*
X149300500Y-79421155D01*
X149300499Y-79421153D01*
X149284365Y-79340041D01*
X149269737Y-79266503D01*
X149260093Y-79243221D01*
X149209397Y-79120827D01*
X149209390Y-79120814D01*
X149121789Y-78989711D01*
X149121786Y-78989707D01*
X149010292Y-78878213D01*
X149010288Y-78878210D01*
X148879185Y-78790609D01*
X148879172Y-78790602D01*
X148733501Y-78730264D01*
X148733491Y-78730261D01*
X148578151Y-78699362D01*
X148565942Y-78693723D01*
X148555963Y-78692745D01*
X148537779Y-78680717D01*
X148525443Y-78675020D01*
X148519775Y-78670539D01*
X148443716Y-78594480D01*
X148368990Y-78551337D01*
X148361905Y-78545736D01*
X148346721Y-78524298D01*
X148328589Y-78505281D01*
X148326159Y-78495265D01*
X148321522Y-78488718D01*
X148320825Y-78473280D01*
X148314805Y-78448461D01*
X148314805Y-78396156D01*
X148314804Y-78396154D01*
X148303352Y-78338583D01*
X148284042Y-78241504D01*
X148241926Y-78139825D01*
X148234457Y-78070356D01*
X148265732Y-78007877D01*
X148268788Y-78004710D01*
X148299464Y-77974035D01*
X148398013Y-77826547D01*
X148465894Y-77662666D01*
X148471036Y-77636819D01*
X148493229Y-77525246D01*
X148500500Y-77488691D01*
X148500500Y-77311309D01*
X148500500Y-77311306D01*
X148500499Y-77311304D01*
X148465896Y-77137341D01*
X148465893Y-77137332D01*
X148398016Y-76973459D01*
X148398009Y-76973446D01*
X148299464Y-76825965D01*
X148299461Y-76825961D01*
X148174038Y-76700538D01*
X148174034Y-76700535D01*
X148026553Y-76601990D01*
X148026540Y-76601983D01*
X147862667Y-76534106D01*
X147862658Y-76534103D01*
X147727413Y-76507202D01*
X147665502Y-76474817D01*
X147663923Y-76473266D01*
X144752338Y-73561681D01*
X144718853Y-73500358D01*
X144723837Y-73430666D01*
X144765709Y-73374733D01*
X144831173Y-73350316D01*
X144840019Y-73350000D01*
X144871246Y-73350000D01*
X145081127Y-73316757D01*
X145081130Y-73316757D01*
X145283217Y-73251095D01*
X145472554Y-73154622D01*
X145526716Y-73115270D01*
X145526717Y-73115270D01*
X144894408Y-72482962D01*
X144957993Y-72465925D01*
X145072007Y-72400099D01*
X145165099Y-72307007D01*
X145230925Y-72192993D01*
X145247962Y-72129408D01*
X145880270Y-72761717D01*
X145880270Y-72761716D01*
X145919622Y-72707554D01*
X146016095Y-72518217D01*
X146081757Y-72316130D01*
X146081757Y-72316127D01*
X146115000Y-72106246D01*
X146115000Y-71893753D01*
X148490000Y-71893753D01*
X148490000Y-72106246D01*
X148523242Y-72316127D01*
X148523242Y-72316130D01*
X148588904Y-72518217D01*
X148685375Y-72707550D01*
X148724728Y-72761716D01*
X149357037Y-72129408D01*
X149374075Y-72192993D01*
X149439901Y-72307007D01*
X149532993Y-72400099D01*
X149647007Y-72465925D01*
X149710590Y-72482962D01*
X149078282Y-73115269D01*
X149078282Y-73115270D01*
X149132449Y-73154624D01*
X149321782Y-73251095D01*
X149523870Y-73316757D01*
X149733754Y-73350000D01*
X149946246Y-73350000D01*
X150156127Y-73316757D01*
X150156130Y-73316757D01*
X150358217Y-73251095D01*
X150547554Y-73154622D01*
X150601716Y-73115270D01*
X150601717Y-73115270D01*
X149969408Y-72482962D01*
X150032993Y-72465925D01*
X150147007Y-72400099D01*
X150240099Y-72307007D01*
X150305925Y-72192993D01*
X150322962Y-72129409D01*
X150955270Y-72761717D01*
X150955270Y-72761716D01*
X150994622Y-72707555D01*
X150999232Y-72698507D01*
X151047205Y-72647709D01*
X151115025Y-72630912D01*
X151181161Y-72653447D01*
X151220204Y-72698504D01*
X151224949Y-72707817D01*
X151349890Y-72879786D01*
X151500213Y-73030109D01*
X151672179Y-73155048D01*
X151672181Y-73155049D01*
X151672184Y-73155051D01*
X151861588Y-73251557D01*
X152063757Y-73317246D01*
X152273713Y-73350500D01*
X152273714Y-73350500D01*
X152486286Y-73350500D01*
X152486287Y-73350500D01*
X152696243Y-73317246D01*
X152898412Y-73251557D01*
X153087816Y-73155051D01*
X153259792Y-73030104D01*
X153373329Y-72916566D01*
X153434648Y-72883084D01*
X153504340Y-72888068D01*
X153560274Y-72929939D01*
X153577189Y-72960917D01*
X153626202Y-73092328D01*
X153626206Y-73092335D01*
X153712452Y-73207544D01*
X153712455Y-73207547D01*
X153827664Y-73293793D01*
X153827671Y-73293797D01*
X153962517Y-73344091D01*
X153962516Y-73344091D01*
X153969444Y-73344835D01*
X154022127Y-73350500D01*
X155817872Y-73350499D01*
X155877483Y-73344091D01*
X156012331Y-73293796D01*
X156127546Y-73207546D01*
X156213796Y-73092331D01*
X156264091Y-72957483D01*
X156270500Y-72897873D01*
X156270500Y-72872149D01*
X165049500Y-72872149D01*
X165049500Y-73127850D01*
X165074371Y-73316757D01*
X165082874Y-73381340D01*
X165114765Y-73500358D01*
X165149050Y-73628312D01*
X165149053Y-73628322D01*
X165246894Y-73864531D01*
X165246899Y-73864542D01*
X165374734Y-74085957D01*
X165374745Y-74085973D01*
X165530388Y-74288811D01*
X165530394Y-74288818D01*
X165711181Y-74469605D01*
X165711188Y-74469611D01*
X165764201Y-74510289D01*
X165914035Y-74625261D01*
X165914042Y-74625265D01*
X166135457Y-74753100D01*
X166135462Y-74753102D01*
X166135465Y-74753104D01*
X166371687Y-74850950D01*
X166618660Y-74917126D01*
X166872157Y-74950500D01*
X166872164Y-74950500D01*
X167127836Y-74950500D01*
X167127843Y-74950500D01*
X167381340Y-74917126D01*
X167628313Y-74850950D01*
X167864535Y-74753104D01*
X168085965Y-74625261D01*
X168288813Y-74469610D01*
X168469610Y-74288813D01*
X168625261Y-74085965D01*
X168753104Y-73864535D01*
X168850950Y-73628313D01*
X168917126Y-73381340D01*
X168950500Y-73127843D01*
X168950500Y-72872157D01*
X168917126Y-72618660D01*
X168850950Y-72371687D01*
X168753104Y-72135465D01*
X168753102Y-72135462D01*
X168753100Y-72135457D01*
X168625265Y-71914042D01*
X168625261Y-71914035D01*
X168469610Y-71711187D01*
X168469605Y-71711181D01*
X168288818Y-71530394D01*
X168288811Y-71530388D01*
X168085973Y-71374745D01*
X168085971Y-71374743D01*
X168085965Y-71374739D01*
X168085960Y-71374736D01*
X168085957Y-71374734D01*
X167864542Y-71246899D01*
X167864531Y-71246894D01*
X167628322Y-71149053D01*
X167628315Y-71149051D01*
X167628313Y-71149050D01*
X167381340Y-71082874D01*
X167325007Y-71075457D01*
X167127850Y-71049500D01*
X167127843Y-71049500D01*
X166872157Y-71049500D01*
X166872149Y-71049500D01*
X166646826Y-71079165D01*
X166618660Y-71082874D01*
X166371687Y-71149050D01*
X166371677Y-71149053D01*
X166135468Y-71246894D01*
X166135457Y-71246899D01*
X165914042Y-71374734D01*
X165914026Y-71374745D01*
X165711188Y-71530388D01*
X165711181Y-71530394D01*
X165530394Y-71711181D01*
X165530388Y-71711188D01*
X165374745Y-71914026D01*
X165374734Y-71914042D01*
X165246899Y-72135457D01*
X165246894Y-72135468D01*
X165149053Y-72371677D01*
X165149050Y-72371687D01*
X165093283Y-72579815D01*
X165082874Y-72618661D01*
X165049500Y-72872149D01*
X156270500Y-72872149D01*
X156270499Y-72000000D01*
X156270499Y-71102129D01*
X156270498Y-71102123D01*
X156270497Y-71102116D01*
X156264091Y-71042517D01*
X156262810Y-71039083D01*
X156213797Y-70907671D01*
X156213793Y-70907664D01*
X156127547Y-70792455D01*
X156127544Y-70792452D01*
X156012335Y-70706206D01*
X156012328Y-70706202D01*
X155877482Y-70655908D01*
X155877483Y-70655908D01*
X155817883Y-70649501D01*
X155817881Y-70649500D01*
X155817873Y-70649500D01*
X155817864Y-70649500D01*
X154022129Y-70649500D01*
X154022123Y-70649501D01*
X153962516Y-70655908D01*
X153827671Y-70706202D01*
X153827664Y-70706206D01*
X153712455Y-70792452D01*
X153712452Y-70792455D01*
X153626206Y-70907664D01*
X153626203Y-70907669D01*
X153577189Y-71039083D01*
X153535317Y-71095016D01*
X153469853Y-71119433D01*
X153401580Y-71104581D01*
X153373326Y-71083430D01*
X153259786Y-70969890D01*
X153087820Y-70844951D01*
X152898414Y-70748444D01*
X152898413Y-70748443D01*
X152898412Y-70748443D01*
X152696243Y-70682754D01*
X152696241Y-70682753D01*
X152696240Y-70682753D01*
X152534957Y-70657208D01*
X152486287Y-70649500D01*
X152273713Y-70649500D01*
X152225042Y-70657208D01*
X152063760Y-70682753D01*
X151861585Y-70748444D01*
X151672179Y-70844951D01*
X151500213Y-70969890D01*
X151349890Y-71120213D01*
X151224949Y-71292182D01*
X151220202Y-71301499D01*
X151172227Y-71352293D01*
X151104405Y-71369087D01*
X151038271Y-71346548D01*
X150999234Y-71301495D01*
X150994626Y-71292452D01*
X150955270Y-71238282D01*
X150955269Y-71238282D01*
X150322962Y-71870590D01*
X150305925Y-71807007D01*
X150240099Y-71692993D01*
X150147007Y-71599901D01*
X150032993Y-71534075D01*
X149969409Y-71517037D01*
X150601716Y-70884728D01*
X150547550Y-70845375D01*
X150358217Y-70748904D01*
X150156129Y-70683242D01*
X149946246Y-70650000D01*
X149733754Y-70650000D01*
X149523872Y-70683242D01*
X149523869Y-70683242D01*
X149321782Y-70748904D01*
X149132439Y-70845380D01*
X149078282Y-70884727D01*
X149078282Y-70884728D01*
X149710591Y-71517037D01*
X149647007Y-71534075D01*
X149532993Y-71599901D01*
X149439901Y-71692993D01*
X149374075Y-71807007D01*
X149357037Y-71870591D01*
X148724728Y-71238282D01*
X148724727Y-71238282D01*
X148685380Y-71292439D01*
X148588904Y-71481782D01*
X148523242Y-71683869D01*
X148523242Y-71683872D01*
X148490000Y-71893753D01*
X146115000Y-71893753D01*
X146081757Y-71683872D01*
X146081757Y-71683869D01*
X146016095Y-71481782D01*
X145919624Y-71292449D01*
X145880270Y-71238282D01*
X145247962Y-71870590D01*
X145230925Y-71807007D01*
X145165099Y-71692993D01*
X145072007Y-71599901D01*
X144957993Y-71534075D01*
X144894409Y-71517037D01*
X145526716Y-70884728D01*
X145472550Y-70845375D01*
X145283217Y-70748904D01*
X145081129Y-70683242D01*
X144871246Y-70650000D01*
X144658754Y-70650000D01*
X144448872Y-70683242D01*
X144448869Y-70683242D01*
X144246782Y-70748904D01*
X144057439Y-70845380D01*
X144003282Y-70884727D01*
X144003282Y-70884728D01*
X144635591Y-71517037D01*
X144572007Y-71534075D01*
X144457993Y-71599901D01*
X144364901Y-71692993D01*
X144299075Y-71807007D01*
X144282037Y-71870591D01*
X143611818Y-71200372D01*
X143578333Y-71139049D01*
X143578330Y-71139036D01*
X143575499Y-71126015D01*
X143575499Y-71102128D01*
X143569091Y-71042517D01*
X143540926Y-70967002D01*
X143518798Y-70907673D01*
X143518793Y-70907664D01*
X143432547Y-70792455D01*
X143432544Y-70792452D01*
X143317335Y-70706206D01*
X143317328Y-70706202D01*
X143182482Y-70655908D01*
X143182483Y-70655908D01*
X143122883Y-70649501D01*
X143122881Y-70649500D01*
X143122873Y-70649500D01*
X143122864Y-70649500D01*
X141327129Y-70649500D01*
X141327123Y-70649501D01*
X141267516Y-70655908D01*
X141132671Y-70706202D01*
X141132664Y-70706206D01*
X141017455Y-70792452D01*
X141017452Y-70792455D01*
X140931206Y-70907664D01*
X140931202Y-70907671D01*
X140880908Y-71042517D01*
X140875194Y-71095669D01*
X140874500Y-71102127D01*
X140874500Y-71844447D01*
X140874501Y-72475500D01*
X140854816Y-72542539D01*
X140802013Y-72588294D01*
X140750501Y-72599500D01*
X138660356Y-72599500D01*
X138593317Y-72579815D01*
X138547562Y-72527011D01*
X138537618Y-72457853D01*
X138542425Y-72437182D01*
X138581757Y-72316130D01*
X138581757Y-72316127D01*
X138615000Y-72106246D01*
X138615000Y-71893753D01*
X138581757Y-71683872D01*
X138581757Y-71683869D01*
X138516095Y-71481782D01*
X138419624Y-71292449D01*
X138380270Y-71238282D01*
X138380269Y-71238282D01*
X137747962Y-71870589D01*
X137730925Y-71807007D01*
X137665099Y-71692993D01*
X137572007Y-71599901D01*
X137457993Y-71534075D01*
X137394409Y-71517037D01*
X138026716Y-70884728D01*
X137972550Y-70845375D01*
X137783217Y-70748904D01*
X137581129Y-70683242D01*
X137371246Y-70650000D01*
X137158754Y-70650000D01*
X136948872Y-70683242D01*
X136948869Y-70683242D01*
X136746782Y-70748904D01*
X136557439Y-70845380D01*
X136503282Y-70884727D01*
X136503282Y-70884728D01*
X137135591Y-71517037D01*
X137072007Y-71534075D01*
X136957993Y-71599901D01*
X136864901Y-71692993D01*
X136799075Y-71807007D01*
X136782037Y-71870591D01*
X136111818Y-71200372D01*
X136078333Y-71139049D01*
X136078330Y-71139036D01*
X136075499Y-71126015D01*
X136075499Y-71102128D01*
X136069091Y-71042517D01*
X136040926Y-70967002D01*
X136018798Y-70907673D01*
X136018793Y-70907664D01*
X135932547Y-70792455D01*
X135932544Y-70792452D01*
X135817335Y-70706206D01*
X135817328Y-70706202D01*
X135682482Y-70655908D01*
X135682483Y-70655908D01*
X135622883Y-70649501D01*
X135622881Y-70649500D01*
X135622873Y-70649500D01*
X135622864Y-70649500D01*
X133827129Y-70649500D01*
X133827123Y-70649501D01*
X133767516Y-70655908D01*
X133632671Y-70706202D01*
X133632664Y-70706206D01*
X133517455Y-70792452D01*
X133517452Y-70792455D01*
X133431206Y-70907664D01*
X133431202Y-70907671D01*
X133380908Y-71042517D01*
X133375194Y-71095669D01*
X133374501Y-71102123D01*
X133374500Y-71102135D01*
X133374500Y-72897870D01*
X133374501Y-72897876D01*
X133380908Y-72957483D01*
X133431202Y-73092328D01*
X133431206Y-73092335D01*
X133517452Y-73207544D01*
X133517455Y-73207547D01*
X133632664Y-73293793D01*
X133632671Y-73293797D01*
X133767517Y-73344091D01*
X133767516Y-73344091D01*
X133774444Y-73344835D01*
X133827127Y-73350500D01*
X135059480Y-73350499D01*
X135126519Y-73370184D01*
X135172274Y-73422987D01*
X135182218Y-73492146D01*
X135153193Y-73555702D01*
X135147161Y-73562180D01*
X134136075Y-74573266D01*
X134074752Y-74606751D01*
X134072586Y-74607202D01*
X133937340Y-74634104D01*
X133937337Y-74634105D01*
X133937335Y-74634105D01*
X133937334Y-74634106D01*
X133898670Y-74650120D01*
X133828598Y-74679145D01*
X133759129Y-74686613D01*
X133696650Y-74655337D01*
X133666586Y-74612035D01*
X133623122Y-74507102D01*
X133623115Y-74507089D01*
X133535514Y-74375986D01*
X133535511Y-74375982D01*
X133424017Y-74264488D01*
X133424013Y-74264485D01*
X133292910Y-74176884D01*
X133292897Y-74176877D01*
X133147226Y-74116539D01*
X133147214Y-74116536D01*
X132992570Y-74085775D01*
X132992567Y-74085775D01*
X132834883Y-74085775D01*
X132834880Y-74085775D01*
X132680235Y-74116536D01*
X132680223Y-74116539D01*
X132534552Y-74176877D01*
X132534539Y-74176884D01*
X132403436Y-74264485D01*
X132403432Y-74264488D01*
X132291938Y-74375982D01*
X132291935Y-74375986D01*
X132204334Y-74507089D01*
X132204327Y-74507102D01*
X132143989Y-74652773D01*
X132143986Y-74652783D01*
X132113086Y-74808125D01*
X132080701Y-74870036D01*
X132079150Y-74871614D01*
X130904441Y-76046322D01*
X130843118Y-76079807D01*
X130773426Y-76074823D01*
X130717493Y-76032951D01*
X130712933Y-76025782D01*
X130712779Y-76025886D01*
X130621789Y-75889711D01*
X130621786Y-75889707D01*
X130510292Y-75778213D01*
X130510288Y-75778210D01*
X130379185Y-75690609D01*
X130379172Y-75690602D01*
X130233501Y-75630264D01*
X130233489Y-75630261D01*
X130078845Y-75599500D01*
X130078842Y-75599500D01*
X129921158Y-75599500D01*
X129921155Y-75599500D01*
X129766510Y-75630261D01*
X129766498Y-75630264D01*
X129620827Y-75690602D01*
X129620814Y-75690609D01*
X129489125Y-75778602D01*
X129422447Y-75799480D01*
X129420234Y-75799500D01*
X113286669Y-75799500D01*
X113286653Y-75799499D01*
X113279057Y-75799499D01*
X113120943Y-75799499D01*
X113013587Y-75828265D01*
X112968210Y-75840424D01*
X112968209Y-75840425D01*
X112918096Y-75869359D01*
X112918095Y-75869360D01*
X112901294Y-75879060D01*
X112831285Y-75919479D01*
X112831282Y-75919481D01*
X112719478Y-76031286D01*
X109604102Y-79146661D01*
X109542779Y-79180146D01*
X109473087Y-79175162D01*
X109428740Y-79146661D01*
X109360292Y-79078213D01*
X109360288Y-79078210D01*
X109229185Y-78990609D01*
X109229172Y-78990602D01*
X109083501Y-78930264D01*
X109083489Y-78930261D01*
X108928845Y-78899500D01*
X108928842Y-78899500D01*
X108771158Y-78899500D01*
X108771155Y-78899500D01*
X108616510Y-78930261D01*
X108616498Y-78930264D01*
X108470827Y-78990602D01*
X108470814Y-78990609D01*
X108339706Y-79078213D01*
X108338596Y-79079125D01*
X108337500Y-79079687D01*
X108334646Y-79081595D01*
X108334426Y-79081266D01*
X108292029Y-79103043D01*
X108251412Y-79113927D01*
X108152529Y-79140423D01*
X108152524Y-79140426D01*
X108015605Y-79219475D01*
X108015597Y-79219481D01*
X107369654Y-79865425D01*
X107308331Y-79898910D01*
X107306165Y-79899361D01*
X107150823Y-79930261D01*
X107150813Y-79930264D01*
X107005142Y-79990602D01*
X107005129Y-79990609D01*
X106874026Y-80078210D01*
X106874022Y-80078213D01*
X106762528Y-80189707D01*
X106762525Y-80189711D01*
X106674924Y-80320814D01*
X106674917Y-80320827D01*
X106614579Y-80466498D01*
X106614576Y-80466510D01*
X106583815Y-80621153D01*
X106583815Y-80778846D01*
X106614576Y-80933489D01*
X106614579Y-80933501D01*
X106674917Y-81079172D01*
X106674924Y-81079185D01*
X106762525Y-81210288D01*
X106762528Y-81210292D01*
X106860704Y-81308468D01*
X106894189Y-81369791D01*
X106889205Y-81439483D01*
X106847333Y-81495416D01*
X106841914Y-81499251D01*
X106813536Y-81518212D01*
X106813532Y-81518215D01*
X106702038Y-81629709D01*
X106702035Y-81629713D01*
X106614434Y-81760816D01*
X106614427Y-81760829D01*
X106554089Y-81906500D01*
X106554086Y-81906512D01*
X106523325Y-82061155D01*
X99500500Y-82061155D01*
X99500500Y-77929999D01*
X99800884Y-77929999D01*
X99800885Y-77930000D01*
X100708014Y-77930000D01*
X100690796Y-77939941D01*
X100634941Y-77995796D01*
X100595445Y-78064205D01*
X100575001Y-78140504D01*
X100575001Y-78219496D01*
X100595445Y-78295795D01*
X100634941Y-78364204D01*
X100690796Y-78420059D01*
X100708014Y-78430000D01*
X99800885Y-78430000D01*
X99802085Y-78437584D01*
X99855591Y-78602255D01*
X99934195Y-78756524D01*
X100035967Y-78896602D01*
X100158397Y-79019032D01*
X100298475Y-79120804D01*
X100452742Y-79199408D01*
X100617415Y-79252914D01*
X100788429Y-79280000D01*
X101025000Y-79280000D01*
X101025000Y-78479999D01*
X101525000Y-78479999D01*
X101525000Y-79280000D01*
X101761571Y-79280000D01*
X101932584Y-79252914D01*
X102097257Y-79199408D01*
X102251524Y-79120804D01*
X102391602Y-79019032D01*
X102514032Y-78896602D01*
X102615804Y-78756524D01*
X102694408Y-78602255D01*
X102747914Y-78437584D01*
X102749115Y-78430000D01*
X101841986Y-78430000D01*
X101859204Y-78420059D01*
X101915059Y-78364204D01*
X101954555Y-78295795D01*
X101974999Y-78219496D01*
X101974999Y-78140504D01*
X101954555Y-78064205D01*
X101915059Y-77995796D01*
X101859204Y-77939941D01*
X101841986Y-77930000D01*
X102749115Y-77930000D01*
X102749115Y-77929999D01*
X103800884Y-77929999D01*
X103800885Y-77930000D01*
X104708002Y-77930000D01*
X104690784Y-77939941D01*
X104634929Y-77995796D01*
X104595433Y-78064205D01*
X104574989Y-78140504D01*
X104574989Y-78219496D01*
X104595433Y-78295795D01*
X104634929Y-78364204D01*
X104690784Y-78420059D01*
X104708002Y-78430000D01*
X103800885Y-78430000D01*
X103802085Y-78437584D01*
X103855591Y-78602255D01*
X103934195Y-78756524D01*
X104035967Y-78896602D01*
X104115443Y-78976078D01*
X104148928Y-79037401D01*
X104143944Y-79107093D01*
X104130866Y-79132647D01*
X104104837Y-79171604D01*
X104104831Y-79171614D01*
X104035067Y-79340041D01*
X104035065Y-79340047D01*
X103999500Y-79518843D01*
X103999500Y-79518846D01*
X103999500Y-79701154D01*
X103999500Y-79701156D01*
X103999499Y-79701156D01*
X104035065Y-79879952D01*
X104035068Y-79879962D01*
X104104831Y-80048387D01*
X104104833Y-80048391D01*
X104206113Y-80199967D01*
X104206119Y-80199975D01*
X104335024Y-80328880D01*
X104335032Y-80328886D01*
X104486608Y-80430166D01*
X104486612Y-80430168D01*
X104655037Y-80499931D01*
X104655042Y-80499933D01*
X104655046Y-80499933D01*
X104655047Y-80499934D01*
X104833843Y-80535500D01*
X104833846Y-80535500D01*
X105016156Y-80535500D01*
X105136445Y-80511572D01*
X105194958Y-80499933D01*
X105363389Y-80430167D01*
X105363391Y-80430166D01*
X105447813Y-80373757D01*
X105514972Y-80328883D01*
X105643883Y-80199972D01*
X105724594Y-80079179D01*
X105745166Y-80048391D01*
X105745168Y-80048387D01*
X105772592Y-79982179D01*
X105814933Y-79879958D01*
X105844066Y-79733501D01*
X105850500Y-79701156D01*
X105850500Y-79518843D01*
X105832468Y-79428192D01*
X105838695Y-79358600D01*
X105881558Y-79303423D01*
X105947448Y-79280178D01*
X105954085Y-79280000D01*
X106061571Y-79280000D01*
X106232584Y-79252914D01*
X106397257Y-79199408D01*
X106551524Y-79120804D01*
X106691602Y-79019032D01*
X106814032Y-78896602D01*
X106915804Y-78756524D01*
X106994408Y-78602255D01*
X107047914Y-78437584D01*
X107049115Y-78430000D01*
X106141998Y-78430000D01*
X106159216Y-78420059D01*
X106215071Y-78364204D01*
X106254567Y-78295795D01*
X106275011Y-78219496D01*
X106275011Y-78140504D01*
X106254567Y-78064205D01*
X106215071Y-77995796D01*
X106159216Y-77939941D01*
X106141998Y-77930000D01*
X107049115Y-77930000D01*
X107049115Y-77929999D01*
X107047914Y-77922415D01*
X106994408Y-77757744D01*
X106915804Y-77603475D01*
X106814032Y-77463397D01*
X106691602Y-77340967D01*
X106551524Y-77239195D01*
X106397257Y-77160591D01*
X106232584Y-77107085D01*
X106061571Y-77080000D01*
X105675000Y-77080000D01*
X105675000Y-77880001D01*
X105175000Y-77880001D01*
X105175000Y-77080000D01*
X104788429Y-77080000D01*
X104617415Y-77107085D01*
X104452742Y-77160591D01*
X104298475Y-77239195D01*
X104158397Y-77340967D01*
X104035967Y-77463397D01*
X103934195Y-77603475D01*
X103855591Y-77757744D01*
X103802085Y-77922415D01*
X103800884Y-77929999D01*
X102749115Y-77929999D01*
X102747914Y-77922415D01*
X102694408Y-77757744D01*
X102615804Y-77603475D01*
X102514032Y-77463397D01*
X102391602Y-77340967D01*
X102251524Y-77239195D01*
X102097257Y-77160591D01*
X101932584Y-77107085D01*
X101761571Y-77080000D01*
X101525000Y-77080000D01*
X101525000Y-77880001D01*
X101025000Y-77880001D01*
X101025000Y-77080000D01*
X100788429Y-77080000D01*
X100617415Y-77107085D01*
X100452742Y-77160591D01*
X100298475Y-77239195D01*
X100158397Y-77340967D01*
X100035967Y-77463397D01*
X99934195Y-77603475D01*
X99855591Y-77757744D01*
X99802085Y-77922415D01*
X99800884Y-77929999D01*
X99500500Y-77929999D01*
X99500500Y-72872149D01*
X101049500Y-72872149D01*
X101049500Y-73127850D01*
X101074371Y-73316757D01*
X101082874Y-73381340D01*
X101114765Y-73500358D01*
X101149050Y-73628312D01*
X101149053Y-73628322D01*
X101246894Y-73864531D01*
X101246899Y-73864542D01*
X101374734Y-74085957D01*
X101374745Y-74085973D01*
X101530388Y-74288811D01*
X101530394Y-74288818D01*
X101711181Y-74469605D01*
X101711188Y-74469611D01*
X101764201Y-74510289D01*
X101914035Y-74625261D01*
X101914042Y-74625265D01*
X102135457Y-74753100D01*
X102135462Y-74753102D01*
X102135465Y-74753104D01*
X102371687Y-74850950D01*
X102618660Y-74917126D01*
X102872157Y-74950500D01*
X102872164Y-74950500D01*
X103127836Y-74950500D01*
X103127843Y-74950500D01*
X103381340Y-74917126D01*
X103628313Y-74850950D01*
X103864535Y-74753104D01*
X104085965Y-74625261D01*
X104288813Y-74469610D01*
X104469610Y-74288813D01*
X104625261Y-74085965D01*
X104753104Y-73864535D01*
X104850950Y-73628313D01*
X104917126Y-73381340D01*
X104950500Y-73127843D01*
X104950500Y-72872157D01*
X104935455Y-72757882D01*
X106895669Y-72757882D01*
X106895670Y-72757883D01*
X106921059Y-72776329D01*
X107089362Y-72862085D01*
X107268997Y-72920451D01*
X107455553Y-72950000D01*
X107644447Y-72950000D01*
X107831002Y-72920451D01*
X108010637Y-72862085D01*
X108178937Y-72776331D01*
X108204328Y-72757883D01*
X108204328Y-72757882D01*
X108895669Y-72757882D01*
X108895670Y-72757883D01*
X108921059Y-72776329D01*
X109089362Y-72862085D01*
X109268997Y-72920451D01*
X109455553Y-72950000D01*
X109644447Y-72950000D01*
X109831002Y-72920451D01*
X110010637Y-72862085D01*
X110178937Y-72776331D01*
X110204328Y-72757883D01*
X110204328Y-72757882D01*
X109550001Y-72103554D01*
X109550000Y-72103554D01*
X108895669Y-72757882D01*
X108204328Y-72757882D01*
X107550001Y-72103554D01*
X107550000Y-72103554D01*
X106895669Y-72757882D01*
X104935455Y-72757882D01*
X104917126Y-72618660D01*
X104850950Y-72371687D01*
X104753104Y-72135465D01*
X104753102Y-72135462D01*
X104753100Y-72135457D01*
X104625265Y-71914042D01*
X104625261Y-71914035D01*
X104571864Y-71844447D01*
X104481111Y-71726175D01*
X104481109Y-71726173D01*
X104469610Y-71711187D01*
X104469608Y-71711185D01*
X104469605Y-71711181D01*
X104413976Y-71655552D01*
X106350000Y-71655552D01*
X106350000Y-71844447D01*
X106379548Y-72031002D01*
X106437914Y-72210637D01*
X106523666Y-72378933D01*
X106542116Y-72404328D01*
X107196446Y-71750000D01*
X107196446Y-71749999D01*
X107150369Y-71703922D01*
X107200000Y-71703922D01*
X107200000Y-71796078D01*
X107223852Y-71885095D01*
X107269930Y-71964905D01*
X107335095Y-72030070D01*
X107414905Y-72076148D01*
X107503922Y-72100000D01*
X107596078Y-72100000D01*
X107685095Y-72076148D01*
X107764905Y-72030070D01*
X107830070Y-71964905D01*
X107876148Y-71885095D01*
X107900000Y-71796078D01*
X107900000Y-71750000D01*
X107903554Y-71750000D01*
X108550000Y-72396446D01*
X109196446Y-71750000D01*
X109150368Y-71703922D01*
X109200000Y-71703922D01*
X109200000Y-71796078D01*
X109223852Y-71885095D01*
X109269930Y-71964905D01*
X109335095Y-72030070D01*
X109414905Y-72076148D01*
X109503922Y-72100000D01*
X109596078Y-72100000D01*
X109685095Y-72076148D01*
X109764905Y-72030070D01*
X109830070Y-71964905D01*
X109876148Y-71885095D01*
X109900000Y-71796078D01*
X109900000Y-71749999D01*
X109903554Y-71749999D01*
X109903554Y-71750000D01*
X110557882Y-72404328D01*
X110557883Y-72404328D01*
X110576331Y-72378937D01*
X110662085Y-72210637D01*
X110720451Y-72031002D01*
X110750000Y-71844447D01*
X110750000Y-71655552D01*
X110720451Y-71468997D01*
X110662085Y-71289362D01*
X110593675Y-71155101D01*
X110576329Y-71121058D01*
X110562580Y-71102135D01*
X111609500Y-71102135D01*
X111609500Y-72897870D01*
X111609501Y-72897876D01*
X111615908Y-72957483D01*
X111666202Y-73092328D01*
X111666206Y-73092335D01*
X111752452Y-73207544D01*
X111752455Y-73207547D01*
X111867664Y-73293793D01*
X111867671Y-73293797D01*
X112002517Y-73344091D01*
X112002516Y-73344091D01*
X112009444Y-73344835D01*
X112062127Y-73350500D01*
X113857872Y-73350499D01*
X113917483Y-73344091D01*
X114052331Y-73293796D01*
X114167546Y-73207546D01*
X114253796Y-73092331D01*
X114302810Y-72960916D01*
X114344681Y-72904984D01*
X114410145Y-72880566D01*
X114478418Y-72895417D01*
X114506673Y-72916569D01*
X114620213Y-73030109D01*
X114792179Y-73155048D01*
X114792181Y-73155049D01*
X114792184Y-73155051D01*
X114981588Y-73251557D01*
X115183757Y-73317246D01*
X115393713Y-73350500D01*
X115393714Y-73350500D01*
X115606286Y-73350500D01*
X115606287Y-73350500D01*
X115816243Y-73317246D01*
X116018412Y-73251557D01*
X116207816Y-73155051D01*
X116245265Y-73127843D01*
X116379786Y-73030109D01*
X116379788Y-73030106D01*
X116379792Y-73030104D01*
X116530104Y-72879792D01*
X116530106Y-72879788D01*
X116530109Y-72879786D01*
X116615890Y-72761717D01*
X116655051Y-72707816D01*
X116659793Y-72698508D01*
X116707763Y-72647711D01*
X116775583Y-72630911D01*
X116841719Y-72653445D01*
X116880763Y-72698500D01*
X116885373Y-72707547D01*
X116924728Y-72761716D01*
X117557037Y-72129408D01*
X117574075Y-72192993D01*
X117639901Y-72307007D01*
X117732993Y-72400099D01*
X117847007Y-72465925D01*
X117910590Y-72482962D01*
X117278282Y-73115269D01*
X117278282Y-73115270D01*
X117332449Y-73154624D01*
X117521782Y-73251095D01*
X117723870Y-73316757D01*
X117933754Y-73350000D01*
X118146246Y-73350000D01*
X118356127Y-73316757D01*
X118356130Y-73316757D01*
X118558217Y-73251095D01*
X118747554Y-73154622D01*
X118801716Y-73115270D01*
X118801717Y-73115270D01*
X118169408Y-72482962D01*
X118232993Y-72465925D01*
X118347007Y-72400099D01*
X118440099Y-72307007D01*
X118505925Y-72192993D01*
X118522962Y-72129409D01*
X119155270Y-72761717D01*
X119155270Y-72761716D01*
X119194622Y-72707554D01*
X119291095Y-72518217D01*
X119356757Y-72316130D01*
X119356757Y-72316127D01*
X119390000Y-72106246D01*
X119390000Y-71893753D01*
X119356757Y-71683872D01*
X119356757Y-71683869D01*
X119291095Y-71481782D01*
X119194624Y-71292449D01*
X119155270Y-71238282D01*
X119155269Y-71238282D01*
X118522962Y-71870590D01*
X118505925Y-71807007D01*
X118440099Y-71692993D01*
X118347007Y-71599901D01*
X118232993Y-71534075D01*
X118169409Y-71517037D01*
X118584310Y-71102135D01*
X122609500Y-71102135D01*
X122609500Y-72897870D01*
X122609501Y-72897876D01*
X122615908Y-72957483D01*
X122666202Y-73092328D01*
X122666206Y-73092335D01*
X122752452Y-73207544D01*
X122752455Y-73207547D01*
X122867664Y-73293793D01*
X122867671Y-73293797D01*
X123002517Y-73344091D01*
X123002516Y-73344091D01*
X123009444Y-73344835D01*
X123062127Y-73350500D01*
X124857872Y-73350499D01*
X124917483Y-73344091D01*
X125052331Y-73293796D01*
X125167546Y-73207546D01*
X125253796Y-73092331D01*
X125302810Y-72960916D01*
X125344681Y-72904984D01*
X125410145Y-72880566D01*
X125478418Y-72895417D01*
X125506673Y-72916569D01*
X125620213Y-73030109D01*
X125792179Y-73155048D01*
X125792181Y-73155049D01*
X125792184Y-73155051D01*
X125981588Y-73251557D01*
X126183757Y-73317246D01*
X126393713Y-73350500D01*
X126393714Y-73350500D01*
X126606286Y-73350500D01*
X126606287Y-73350500D01*
X126816243Y-73317246D01*
X127018412Y-73251557D01*
X127207816Y-73155051D01*
X127245265Y-73127843D01*
X127379786Y-73030109D01*
X127379788Y-73030106D01*
X127379792Y-73030104D01*
X127530104Y-72879792D01*
X127530106Y-72879788D01*
X127530109Y-72879786D01*
X127615890Y-72761717D01*
X127655051Y-72707816D01*
X127659793Y-72698508D01*
X127707763Y-72647711D01*
X127775583Y-72630911D01*
X127841719Y-72653445D01*
X127880763Y-72698500D01*
X127885373Y-72707547D01*
X127924728Y-72761716D01*
X128557037Y-72129408D01*
X128574075Y-72192993D01*
X128639901Y-72307007D01*
X128732993Y-72400099D01*
X128847007Y-72465925D01*
X128910590Y-72482962D01*
X128278282Y-73115269D01*
X128278282Y-73115270D01*
X128332449Y-73154624D01*
X128521782Y-73251095D01*
X128723870Y-73316757D01*
X128933754Y-73350000D01*
X129146246Y-73350000D01*
X129356127Y-73316757D01*
X129356130Y-73316757D01*
X129558217Y-73251095D01*
X129747554Y-73154622D01*
X129801716Y-73115270D01*
X129801717Y-73115270D01*
X129169408Y-72482962D01*
X129232993Y-72465925D01*
X129347007Y-72400099D01*
X129440099Y-72307007D01*
X129505925Y-72192993D01*
X129522962Y-72129409D01*
X130155270Y-72761717D01*
X130155270Y-72761716D01*
X130194622Y-72707554D01*
X130291095Y-72518217D01*
X130356757Y-72316130D01*
X130356757Y-72316127D01*
X130390000Y-72106246D01*
X130390000Y-71893753D01*
X130356757Y-71683872D01*
X130356757Y-71683869D01*
X130291095Y-71481782D01*
X130194624Y-71292449D01*
X130155270Y-71238282D01*
X130155269Y-71238282D01*
X129522962Y-71870590D01*
X129505925Y-71807007D01*
X129440099Y-71692993D01*
X129347007Y-71599901D01*
X129232993Y-71534075D01*
X129169409Y-71517037D01*
X129801716Y-70884728D01*
X129747550Y-70845375D01*
X129558217Y-70748904D01*
X129356129Y-70683242D01*
X129146246Y-70650000D01*
X128933754Y-70650000D01*
X128723872Y-70683242D01*
X128723869Y-70683242D01*
X128521782Y-70748904D01*
X128332439Y-70845380D01*
X128278282Y-70884727D01*
X128278282Y-70884728D01*
X128910591Y-71517037D01*
X128847007Y-71534075D01*
X128732993Y-71599901D01*
X128639901Y-71692993D01*
X128574075Y-71807007D01*
X128557037Y-71870591D01*
X127924728Y-71238282D01*
X127924727Y-71238282D01*
X127885380Y-71292440D01*
X127885376Y-71292446D01*
X127880760Y-71301505D01*
X127832781Y-71352297D01*
X127764959Y-71369087D01*
X127698826Y-71346543D01*
X127659794Y-71301493D01*
X127655051Y-71292184D01*
X127655049Y-71292181D01*
X127655048Y-71292179D01*
X127530109Y-71120213D01*
X127379786Y-70969890D01*
X127207820Y-70844951D01*
X127018414Y-70748444D01*
X127018413Y-70748443D01*
X127018412Y-70748443D01*
X126816243Y-70682754D01*
X126816241Y-70682753D01*
X126816240Y-70682753D01*
X126654957Y-70657208D01*
X126606287Y-70649500D01*
X126393713Y-70649500D01*
X126345042Y-70657208D01*
X126183760Y-70682753D01*
X125981585Y-70748444D01*
X125792179Y-70844951D01*
X125620215Y-70969889D01*
X125506673Y-71083431D01*
X125445350Y-71116915D01*
X125375658Y-71111931D01*
X125319725Y-71070059D01*
X125302810Y-71039082D01*
X125253797Y-70907671D01*
X125253793Y-70907664D01*
X125167547Y-70792455D01*
X125167544Y-70792452D01*
X125052335Y-70706206D01*
X125052328Y-70706202D01*
X124917482Y-70655908D01*
X124917483Y-70655908D01*
X124857883Y-70649501D01*
X124857881Y-70649500D01*
X124857873Y-70649500D01*
X124857864Y-70649500D01*
X123062129Y-70649500D01*
X123062123Y-70649501D01*
X123002516Y-70655908D01*
X122867671Y-70706202D01*
X122867664Y-70706206D01*
X122752455Y-70792452D01*
X122752452Y-70792455D01*
X122666206Y-70907664D01*
X122666202Y-70907671D01*
X122615908Y-71042517D01*
X122610194Y-71095669D01*
X122609501Y-71102123D01*
X122609500Y-71102135D01*
X118584310Y-71102135D01*
X118675320Y-71011125D01*
X118801716Y-70884728D01*
X118747550Y-70845375D01*
X118558217Y-70748904D01*
X118356129Y-70683242D01*
X118146246Y-70650000D01*
X117933754Y-70650000D01*
X117723872Y-70683242D01*
X117723869Y-70683242D01*
X117521782Y-70748904D01*
X117332439Y-70845380D01*
X117278282Y-70884727D01*
X117278282Y-70884728D01*
X117910591Y-71517037D01*
X117847007Y-71534075D01*
X117732993Y-71599901D01*
X117639901Y-71692993D01*
X117574075Y-71807007D01*
X117557037Y-71870591D01*
X116924728Y-71238282D01*
X116924727Y-71238282D01*
X116885380Y-71292440D01*
X116885376Y-71292446D01*
X116880760Y-71301505D01*
X116832781Y-71352297D01*
X116764959Y-71369087D01*
X116698826Y-71346543D01*
X116659794Y-71301493D01*
X116655051Y-71292184D01*
X116655049Y-71292181D01*
X116655048Y-71292179D01*
X116530109Y-71120213D01*
X116379786Y-70969890D01*
X116207820Y-70844951D01*
X116018414Y-70748444D01*
X116018413Y-70748443D01*
X116018412Y-70748443D01*
X115816243Y-70682754D01*
X115816241Y-70682753D01*
X115816240Y-70682753D01*
X115654957Y-70657208D01*
X115606287Y-70649500D01*
X115393713Y-70649500D01*
X115345042Y-70657208D01*
X115183760Y-70682753D01*
X114981585Y-70748444D01*
X114792179Y-70844951D01*
X114620215Y-70969889D01*
X114506673Y-71083431D01*
X114445350Y-71116915D01*
X114375658Y-71111931D01*
X114319725Y-71070059D01*
X114302810Y-71039082D01*
X114253797Y-70907671D01*
X114253793Y-70907664D01*
X114167547Y-70792455D01*
X114167544Y-70792452D01*
X114052335Y-70706206D01*
X114052328Y-70706202D01*
X113917482Y-70655908D01*
X113917483Y-70655908D01*
X113857883Y-70649501D01*
X113857881Y-70649500D01*
X113857873Y-70649500D01*
X113857864Y-70649500D01*
X112062129Y-70649500D01*
X112062123Y-70649501D01*
X112002516Y-70655908D01*
X111867671Y-70706202D01*
X111867664Y-70706206D01*
X111752455Y-70792452D01*
X111752452Y-70792455D01*
X111666206Y-70907664D01*
X111666202Y-70907671D01*
X111615908Y-71042517D01*
X111610194Y-71095669D01*
X111609501Y-71102123D01*
X111609500Y-71102135D01*
X110562580Y-71102135D01*
X110557883Y-71095670D01*
X110557882Y-71095669D01*
X109903554Y-71749999D01*
X109900000Y-71749999D01*
X109900000Y-71703922D01*
X109876148Y-71614905D01*
X109830070Y-71535095D01*
X109764905Y-71469930D01*
X109685095Y-71423852D01*
X109596078Y-71400000D01*
X109503922Y-71400000D01*
X109414905Y-71423852D01*
X109335095Y-71469930D01*
X109269930Y-71535095D01*
X109223852Y-71614905D01*
X109200000Y-71703922D01*
X109150368Y-71703922D01*
X108550000Y-71103554D01*
X107903554Y-71750000D01*
X107900000Y-71750000D01*
X107900000Y-71703922D01*
X107876148Y-71614905D01*
X107830070Y-71535095D01*
X107764905Y-71469930D01*
X107685095Y-71423852D01*
X107596078Y-71400000D01*
X107503922Y-71400000D01*
X107414905Y-71423852D01*
X107335095Y-71469930D01*
X107269930Y-71535095D01*
X107223852Y-71614905D01*
X107200000Y-71703922D01*
X107150369Y-71703922D01*
X106542116Y-71095669D01*
X106542116Y-71095670D01*
X106523669Y-71121060D01*
X106437914Y-71289362D01*
X106379548Y-71468997D01*
X106350000Y-71655552D01*
X104413976Y-71655552D01*
X104288818Y-71530394D01*
X104288811Y-71530388D01*
X104085973Y-71374745D01*
X104085971Y-71374743D01*
X104085965Y-71374739D01*
X104085960Y-71374736D01*
X104085957Y-71374734D01*
X103864542Y-71246899D01*
X103864531Y-71246894D01*
X103628322Y-71149053D01*
X103628315Y-71149051D01*
X103628313Y-71149050D01*
X103381340Y-71082874D01*
X103325007Y-71075457D01*
X103127850Y-71049500D01*
X103127843Y-71049500D01*
X102872157Y-71049500D01*
X102872149Y-71049500D01*
X102646826Y-71079165D01*
X102618660Y-71082874D01*
X102371687Y-71149050D01*
X102371677Y-71149053D01*
X102135468Y-71246894D01*
X102135457Y-71246899D01*
X101914042Y-71374734D01*
X101914026Y-71374745D01*
X101711188Y-71530388D01*
X101711181Y-71530394D01*
X101530394Y-71711181D01*
X101530388Y-71711188D01*
X101374745Y-71914026D01*
X101374734Y-71914042D01*
X101246899Y-72135457D01*
X101246894Y-72135468D01*
X101149053Y-72371677D01*
X101149050Y-72371687D01*
X101093283Y-72579815D01*
X101082874Y-72618661D01*
X101049500Y-72872149D01*
X99500500Y-72872149D01*
X99500500Y-70742116D01*
X106895669Y-70742116D01*
X107550000Y-71396446D01*
X107550001Y-71396446D01*
X108204328Y-70742116D01*
X108895669Y-70742116D01*
X109550000Y-71396446D01*
X109550001Y-71396446D01*
X110204328Y-70742116D01*
X110178933Y-70723666D01*
X110010637Y-70637914D01*
X109831002Y-70579548D01*
X109644447Y-70550000D01*
X109455553Y-70550000D01*
X109268997Y-70579548D01*
X109089362Y-70637914D01*
X108921060Y-70723669D01*
X108895670Y-70742116D01*
X108895669Y-70742116D01*
X108204328Y-70742116D01*
X108178933Y-70723666D01*
X108010637Y-70637914D01*
X107831002Y-70579548D01*
X107644447Y-70550000D01*
X107455553Y-70550000D01*
X107268997Y-70579548D01*
X107089362Y-70637914D01*
X106921060Y-70723669D01*
X106895670Y-70742116D01*
X106895669Y-70742116D01*
X99500500Y-70742116D01*
X99500500Y-70124500D01*
X99520185Y-70057461D01*
X99572989Y-70011706D01*
X99624500Y-70000500D01*
X169375500Y-70000500D01*
X169442539Y-70020185D01*
G37*
%TD.AperFunction*%
%TD*%
M02*
