M48
; DRILL file KiCad 10.0.4 date 2026-07-16T15:09:21
; FORMAT={-:-/ absolute / metric / decimal}
; #@! TF.CreationDate,2026-07-16T15:09:21+02:00
; #@! TF.GenerationSoftware,Kicad,Pcbnew,10.0.4
; #@! TF.FileFunction,MixedPlating,1,2
FMAT,2
METRIC
; #@! TA.AperFunction,Plated,PTH,ViaDrill
T1C0.300
; #@! TA.AperFunction,Plated,PTH,ViaDrill
T2C0.400
; #@! TA.AperFunction,Plated,PTH,ComponentDrill
T3C0.600
; #@! TA.AperFunction,Plated,PTH,ComponentDrill
T4C0.650
; #@! TA.AperFunction,Plated,PTH,ComponentDrill
T5C0.700
; #@! TA.AperFunction,Plated,PTH,ComponentDrill
T6C1.000
; #@! TA.AperFunction,Plated,PTH,ComponentDrill
T7C2.500
%
G90
G05
T1
X107.324Y-82.14
X107.384Y-80.7
X107.9Y-82.74
X107.95Y-81.45
X108.4Y-83.5
X108.85Y-79.7
X121.15Y-93.85
X125.3Y-80.1
X127.04Y-107.3
X129.334Y-77.0
X129.898Y-79.15
X130.0Y-76.4
X130.514Y-78.512
X131.2Y-78.1
X131.4Y-85.5
X132.9Y-91.9
X132.9Y-94.2
X132.914Y-74.886
X133.1Y-85.7
X135.7Y-83.2
X136.2Y-79.7
X136.24Y-91.047
X137.1Y-82.1
X137.719Y-79.075
X138.0Y-91.537
X138.074Y-88.375
X138.65Y-80.2
X138.74Y-84.81
X139.311Y-88.324
X139.5Y-74.0
X139.57Y-83.82
X139.958Y-93.598
X140.35Y-80.8
X140.9Y-84.2
X141.248Y-82.947
X141.288Y-79.075
X141.3Y-80.85
X141.38Y-91.37
X141.83Y-93.95
X141.889Y-85.389
X143.77Y-96.79
X144.4Y-85.8
X144.4Y-91.6
X145.3Y-82.35
X145.3Y-85.775
X145.3Y-91.6
X146.11Y-99.5
X146.523Y-95.507
X147.492Y-95.508
X147.514Y-78.475
X148.5Y-79.5
X150.28Y-95.4
X151.83Y-93.56
X151.92Y-82.52
X151.94Y-80.35
X152.32Y-91.47
X155.505Y-97.065
X156.36Y-97.059
X157.159Y-97.103
X158.26Y-93.46
X159.0Y-76.7
X159.65Y-104.2
X159.75Y-99.55
X160.9Y-80.4
T2
X130.265Y-91.915
X132.6Y-72.0
X134.2Y-75.5
X137.0Y-83.2
X142.6Y-92.8
X146.4Y-90.8
X147.25Y-91.5
X147.6Y-77.4
X149.13Y-88.36
X149.14Y-84.7
X149.44Y-99.7
X156.5Y-84.1
X157.305Y-84.895
X159.0Y-84.1
T4
X104.925Y-79.61
X104.925Y-85.39
T5
X107.55Y-71.75
X109.55Y-71.75
X168.2Y-100.65
X168.2Y-102.65
T6
X102.0Y-90.42
X102.0Y-92.96
X102.0Y-95.5
X102.0Y-99.225
X102.0Y-101.765
X108.34Y-107.3
X110.88Y-107.3
X112.96Y-72.0
X113.42Y-107.3
X115.5Y-72.0
X115.96Y-107.3
X118.04Y-72.0
X118.5Y-107.3
X121.04Y-107.3
X122.75Y-83.17
X122.75Y-85.71
X122.75Y-88.25
X123.96Y-72.0
X126.5Y-72.0
X127.0Y-80.13
X127.0Y-82.67
X127.0Y-85.21
X127.0Y-87.75
X128.44Y-107.97
X129.04Y-72.0
X134.725Y-72.0
X136.44Y-107.97
X137.265Y-72.0
X142.225Y-72.0
X144.765Y-72.0
X146.95Y-108.11
X149.84Y-72.0
X152.38Y-72.0
X154.92Y-72.0
X154.95Y-108.11
X162.5Y-78.42
X162.5Y-80.96
X162.5Y-83.5
X162.5Y-86.04
X162.5Y-88.58
X167.5Y-78.15
X167.5Y-80.69
X167.5Y-83.23
X167.5Y-85.77
X167.5Y-88.31
X167.5Y-90.85
T7
X103.0Y-73.0
X103.0Y-107.0
X167.0Y-73.0
X167.0Y-107.0
T3
G00X101.675Y-78.18
M15
G01X100.875Y-78.18
M16
G05
G00X101.675Y-86.82
M15
G01X100.875Y-86.82
M16
G05
G00X105.975Y-78.18
M15
G01X104.875Y-78.18
M16
G05
G00X105.975Y-86.82
M15
G01X104.875Y-86.82
M16
G05
M30
