%TF.GenerationSoftware,KiCad,Pcbnew,10.0.4*%
%TF.CreationDate,2026-07-16T15:09:27+02:00*%
%TF.ProjectId,stm-sdcard,73746d2d-7364-4636-9172-642e6b696361,rev?*%
%TF.SameCoordinates,Original*%
%TF.FileFunction,Soldermask,Top*%
%TF.FilePolarity,Negative*%
%FSLAX46Y46*%
G04 Gerber Fmt 4.6, Leading zero omitted, Abs format (unit mm)*
G04 Created by KiCad (PCBNEW 10.0.4) date 2026-07-16 15:09:27*
%MOMM*%
%LPD*%
G01*
G04 APERTURE LIST*
G04 Aperture macros list*
%AMRoundRect*
0 Rectangle with rounded corners*
0 $1 Rounding radius*
0 $2 $3 $4 $5 $6 $7 $8 $9 X,Y pos of 4 corners*
0 Add a 4 corners polygon primitive as box body*
4,1,4,$2,$3,$4,$5,$6,$7,$8,$9,$2,$3,0*
0 Add four circle primitives for the rounded corners*
1,1,$1+$1,$2,$3*
1,1,$1+$1,$4,$5*
1,1,$1+$1,$6,$7*
1,1,$1+$1,$8,$9*
0 Add four rect primitives between the rounded corners*
20,1,$1+$1,$2,$3,$4,$5,0*
20,1,$1+$1,$4,$5,$6,$7,0*
20,1,$1+$1,$6,$7,$8,$9,0*
20,1,$1+$1,$8,$9,$2,$3,0*%
%AMFreePoly0*
4,1,23,0.500000,-0.750000,0.000000,-0.750000,0.000000,-0.745722,-0.065263,-0.745722,-0.191342,-0.711940,-0.304381,-0.646677,-0.396677,-0.554381,-0.461940,-0.441342,-0.495722,-0.315263,-0.495722,-0.250000,-0.500000,-0.250000,-0.500000,0.250000,-0.495722,0.250000,-0.495722,0.315263,-0.461940,0.441342,-0.396677,0.554381,-0.304381,0.646677,-0.191342,0.711940,-0.065263,0.745722,0.000000,0.745722,
0.000000,0.750000,0.500000,0.750000,0.500000,-0.750000,0.500000,-0.750000,$1*%
%AMFreePoly1*
4,1,23,0.000000,0.745722,0.065263,0.745722,0.191342,0.711940,0.304381,0.646677,0.396677,0.554381,0.461940,0.441342,0.495722,0.315263,0.495722,0.250000,0.500000,0.250000,0.500000,-0.250000,0.495722,-0.250000,0.495722,-0.315263,0.461940,-0.441342,0.396677,-0.554381,0.304381,-0.646677,0.191342,-0.711940,0.065263,-0.745722,0.000000,-0.745722,0.000000,-0.750000,-0.500000,-0.750000,
-0.500000,0.750000,0.000000,0.750000,0.000000,0.745722,0.000000,0.745722,$1*%
G04 Aperture macros list end*
%ADD10C,1.400000*%
%ADD11R,2.200000X1.100000*%
%ADD12R,2.200000X3.500000*%
%ADD13C,1.200000*%
%ADD14R,0.700000X1.600000*%
%ADD15R,1.200000X1.800000*%
%ADD16R,1.600000X1.500000*%
%ADD17R,1.200000X2.500000*%
%ADD18RoundRect,0.250000X-0.475000X0.337500X-0.475000X-0.337500X0.475000X-0.337500X0.475000X0.337500X0*%
%ADD19RoundRect,0.250000X0.475000X-0.337500X0.475000X0.337500X-0.475000X0.337500X-0.475000X-0.337500X0*%
%ADD20C,2.900000*%
%ADD21C,5.000000*%
%ADD22R,1.700000X1.700000*%
%ADD23C,1.700000*%
%ADD24C,0.850000*%
%ADD25O,2.300000X1.200000*%
%ADD26O,2.000000X1.200000*%
%ADD27RoundRect,0.150000X-0.500000X0.150000X-0.500000X-0.150000X0.500000X-0.150000X0.500000X0.150000X0*%
%ADD28R,1.415000X0.300000*%
%ADD29R,1.600000X1.400000*%
%ADD30RoundRect,0.250000X0.350000X0.450000X-0.350000X0.450000X-0.350000X-0.450000X0.350000X-0.450000X0*%
%ADD31RoundRect,0.250000X0.337500X0.475000X-0.337500X0.475000X-0.337500X-0.475000X0.337500X-0.475000X0*%
%ADD32FreePoly0,180.000000*%
%ADD33FreePoly1,180.000000*%
%ADD34RoundRect,0.075000X-0.925000X-0.075000X0.925000X-0.075000X0.925000X0.075000X-0.925000X0.075000X0*%
%ADD35RoundRect,0.075000X-0.075000X-0.925000X0.075000X-0.925000X0.075000X0.925000X-0.075000X0.925000X0*%
%ADD36RoundRect,0.250000X-0.350000X-0.450000X0.350000X-0.450000X0.350000X0.450000X-0.350000X0.450000X0*%
%ADD37RoundRect,0.250000X-0.450000X0.350000X-0.450000X-0.350000X0.450000X-0.350000X0.450000X0.350000X0*%
%ADD38RoundRect,0.250000X-0.337500X-0.475000X0.337500X-0.475000X0.337500X0.475000X-0.337500X0.475000X0*%
G04 APERTURE END LIST*
%TO.C,JP2*%
G36*
X142850000Y-89250000D02*
G01*
X143150000Y-89250000D01*
X143150000Y-90750000D01*
X142850000Y-90750000D01*
X142850000Y-89250000D01*
G37*
%TD*%
D10*
%TO.C,GND*%
X109550000Y-71750000D03*
X107550000Y-71750000D03*
%TD*%
%TO.C,GND*%
X168200000Y-102650000D03*
X168200000Y-100650000D03*
%TD*%
D11*
%TO.C,U4*%
X108900000Y-89700000D03*
X108900000Y-92000000D03*
X108900000Y-94300000D03*
D12*
X115100000Y-92000000D03*
%TD*%
D13*
%TO.C,U2*%
X146950000Y-108110000D03*
X154950000Y-108110000D03*
D14*
X154150000Y-97110000D03*
X153050000Y-97110000D03*
X151950000Y-97110000D03*
X150850000Y-97110000D03*
X149750000Y-97110000D03*
X148650000Y-97110000D03*
X147550000Y-97110000D03*
X146450000Y-97110000D03*
X145350000Y-97110000D03*
D15*
X144150000Y-98410000D03*
D16*
X158750000Y-98170000D03*
D17*
X144150000Y-107570000D03*
X159650000Y-107570000D03*
%TD*%
D18*
%TO.C,C9*%
X140000000Y-89462500D03*
X140000000Y-91537500D03*
%TD*%
D19*
%TO.C,C1*%
X115500000Y-88537500D03*
X115500000Y-86462500D03*
%TD*%
D20*
%TO.C,REF\u002A\u002A*%
X103000000Y-107000000D03*
D21*
X103000000Y-107000000D03*
%TD*%
D22*
%TO.C,UART_PRG1*%
X162500000Y-78420000D03*
D23*
X162500000Y-80960000D03*
X162500000Y-83500000D03*
X162500000Y-86040000D03*
X162500000Y-88580000D03*
%TD*%
D20*
%TO.C,REF\u002A\u002A*%
X167000000Y-107000000D03*
D21*
X167000000Y-107000000D03*
%TD*%
D24*
%TO.C,USB1*%
X104925000Y-79610000D03*
X104925000Y-85390000D03*
D25*
X105425000Y-78180000D03*
X105425000Y-86820000D03*
D26*
X101275000Y-78180000D03*
X101275000Y-86820000D03*
D27*
X106185000Y-79300000D03*
X106185000Y-80100000D03*
D28*
X106127500Y-81250000D03*
X106127500Y-82250000D03*
X106127500Y-82750000D03*
X106127500Y-83750000D03*
D27*
X106185000Y-85700000D03*
X106185000Y-84900000D03*
D28*
X106127500Y-84250000D03*
X106127500Y-83250000D03*
X106127500Y-81750000D03*
X106127500Y-80750000D03*
%TD*%
D29*
%TO.C,SW1*%
X150000000Y-78000000D03*
X158000000Y-78000000D03*
X150000000Y-82500000D03*
X158000000Y-82500000D03*
%TD*%
D18*
%TO.C,C7*%
X138000000Y-89462500D03*
X138000000Y-91537500D03*
%TD*%
D22*
%TO.C,BAT1*%
X102000000Y-99225000D03*
D23*
X102000000Y-101765000D03*
%TD*%
D22*
%TO.C,USART1*%
X154920000Y-72000000D03*
D23*
X152380000Y-72000000D03*
X149840000Y-72000000D03*
%TD*%
D22*
%TO.C,J1*%
X127000000Y-87750000D03*
D23*
X127000000Y-85210000D03*
X127000000Y-82670000D03*
X127000000Y-80130000D03*
%TD*%
D22*
%TO.C,ADC2*%
X123960000Y-72000000D03*
D23*
X126500000Y-72000000D03*
X129040000Y-72000000D03*
%TD*%
D30*
%TO.C,R7*%
X143770000Y-95500000D03*
X141770000Y-95500000D03*
%TD*%
D18*
%TO.C,C5*%
X145500000Y-77962500D03*
X145500000Y-80037500D03*
%TD*%
D22*
%TO.C,OPA3*%
X142225000Y-72000000D03*
D23*
X144765000Y-72000000D03*
%TD*%
D31*
%TO.C,C3*%
X134037500Y-77000000D03*
X131962500Y-77000000D03*
%TD*%
D22*
%TO.C,J2*%
X122750000Y-88250000D03*
D23*
X122750000Y-85710000D03*
X122750000Y-83170000D03*
%TD*%
D32*
%TO.C,JP2*%
X143650000Y-90000000D03*
D33*
X142350000Y-90000000D03*
%TD*%
D34*
%TO.C,STM1*%
X134075000Y-79250000D03*
X134075000Y-79750000D03*
X134075000Y-80250000D03*
X134075000Y-80750000D03*
X134075000Y-81250000D03*
X134075000Y-81750000D03*
X134075000Y-82250000D03*
X134075000Y-82750000D03*
X134075000Y-83250000D03*
X134075000Y-83750000D03*
X134075000Y-84250000D03*
X134075000Y-84750000D03*
D35*
X135750000Y-86425000D03*
X136250000Y-86425000D03*
X136750000Y-86425000D03*
X137250000Y-86425000D03*
X137750000Y-86425000D03*
X138250000Y-86425000D03*
X138750000Y-86425000D03*
X139250000Y-86425000D03*
X139750000Y-86425000D03*
X140250000Y-86425000D03*
X140750000Y-86425000D03*
X141250000Y-86425000D03*
D34*
X142925000Y-84750000D03*
X142925000Y-84250000D03*
X142925000Y-83750000D03*
X142925000Y-83250000D03*
X142925000Y-82750000D03*
X142925000Y-82250000D03*
X142925000Y-81750000D03*
X142925000Y-81250000D03*
X142925000Y-80750000D03*
X142925000Y-80250000D03*
X142925000Y-79750000D03*
X142925000Y-79250000D03*
D35*
X141250000Y-77575000D03*
X140750000Y-77575000D03*
X140250000Y-77575000D03*
X139750000Y-77575000D03*
X139250000Y-77575000D03*
X138750000Y-77575000D03*
X138250000Y-77575000D03*
X137750000Y-77575000D03*
X137250000Y-77575000D03*
X136750000Y-77575000D03*
X136250000Y-77575000D03*
X135750000Y-77575000D03*
%TD*%
D20*
%TO.C,REF\u002A\u002A*%
X167000000Y-73000000D03*
D21*
X167000000Y-73000000D03*
%TD*%
D22*
%TO.C,JP1*%
X102000000Y-90420000D03*
D23*
X102000000Y-92960000D03*
D22*
X102000000Y-95500000D03*
%TD*%
D19*
%TO.C,C2*%
X106000000Y-93037500D03*
X106000000Y-90962500D03*
%TD*%
D20*
%TO.C,REF\u002A\u002A*%
X103000000Y-73000000D03*
D21*
X103000000Y-73000000D03*
%TD*%
D36*
%TO.C,R6*%
X159700000Y-94650000D03*
X161700000Y-94650000D03*
%TD*%
D13*
%TO.C,U1*%
X128440000Y-107970000D03*
X136440000Y-107970000D03*
D14*
X135640000Y-96970000D03*
X134540000Y-96970000D03*
X133440000Y-96970000D03*
X132340000Y-96970000D03*
X131240000Y-96970000D03*
X130140000Y-96970000D03*
X129040000Y-96970000D03*
X127940000Y-96970000D03*
X126840000Y-96970000D03*
D15*
X125640000Y-98270000D03*
D16*
X140240000Y-98030000D03*
D17*
X125640000Y-107430000D03*
X141140000Y-107430000D03*
%TD*%
D37*
%TO.C,R1*%
X109850000Y-83850000D03*
X109850000Y-85850000D03*
%TD*%
D30*
%TO.C,R2*%
X110450000Y-78000000D03*
X108450000Y-78000000D03*
%TD*%
D22*
%TO.C,DAC1*%
X134725000Y-72000000D03*
D23*
X137265000Y-72000000D03*
%TD*%
D38*
%TO.C,C4*%
X142962500Y-87000000D03*
X145037500Y-87000000D03*
%TD*%
D22*
%TO.C,U3*%
X108340000Y-107300000D03*
D23*
X110880000Y-107300000D03*
X113420000Y-107300000D03*
X115960000Y-107300000D03*
X118500000Y-107300000D03*
X121040000Y-107300000D03*
%TD*%
D22*
%TO.C,SWD_PRG1*%
X167500000Y-78150000D03*
D23*
X167500000Y-80690000D03*
X167500000Y-83230000D03*
X167500000Y-85770000D03*
X167500000Y-88310000D03*
X167500000Y-90850000D03*
%TD*%
D22*
%TO.C,ADC1*%
X112960000Y-72000000D03*
D23*
X115500000Y-72000000D03*
X118040000Y-72000000D03*
%TD*%
D36*
%TO.C,R3*%
X135900000Y-74800000D03*
X137900000Y-74800000D03*
%TD*%
D19*
%TO.C,C8*%
X123750000Y-93887500D03*
X123750000Y-91812500D03*
%TD*%
D29*
%TO.C,SW2*%
X150000000Y-87000000D03*
X158000000Y-87000000D03*
X150000000Y-91500000D03*
X158000000Y-91500000D03*
%TD*%
D30*
%TO.C,R5*%
X124440000Y-101800000D03*
X122440000Y-101800000D03*
%TD*%
D36*
%TO.C,R4*%
X137560000Y-95500000D03*
X139560000Y-95500000D03*
%TD*%
M02*
